<svg xmlns="http://www.w3.org/2000/svg" xmlns:xlink="http://www.w3.org/1999/xlink" width="42" zoomAndPan="magnify" viewBox="0 0 31.5 31.499999" height="42" preserveAspectRatio="xMidYMid meet" version="1.0"><defs><g/><clipPath id="6997814820"><path d="M 3.269531 4 L 27.632812 4 L 27.632812 28.769531 L 3.269531 28.769531 Z M 3.269531 4 " clip-rule="nonzero"/></clipPath><clipPath id="2e937d5eb6"><path d="M 8 2.191406 L 22 2.191406 L 22 14 L 8 14 Z M 8 2.191406 " clip-rule="nonzero"/></clipPath><clipPath id="14681e015e"><path d="M 11 18 L 21 18 L 21 28.769531 L 11 28.769531 Z M 11 18 " clip-rule="nonzero"/></clipPath><clipPath id="18e9413fd3"><path d="M 4 19 L 13 19 L 13 28.769531 L 4 28.769531 Z M 4 19 " clip-rule="nonzero"/></clipPath><clipPath id="61e531845b"><path d="M 18 19 L 27 19 L 27 28.769531 L 18 28.769531 Z M 18 19 " clip-rule="nonzero"/></clipPath><clipPath id="98f786eb30"><path d="M 13 22 L 19 22 L 19 28.769531 L 13 28.769531 Z M 13 22 " clip-rule="nonzero"/></clipPath></defs><g clip-path="url(#6997814820)"><path fill="#9a51a0" d="M 27.605469 16.503906 C 27.605469 18.625 27.070312 20.621094 26.132812 22.359375 C 24.652344 25.097656 22.175781 27.203125 19.1875 28.175781 C 18.917969 28.265625 18.640625 28.34375 18.363281 28.414062 C 17.429688 28.644531 16.453125 22.335938 15.453125 22.335938 C 14.449219 22.335938 13.472656 28.644531 12.542969 28.414062 C 12.328125 28.359375 12.121094 28.300781 11.914062 28.238281 C 8.910156 27.320312 6.402344 25.253906 4.878906 22.550781 C 3.875 20.765625 3.300781 18.703125 3.300781 16.503906 C 3.300781 9.730469 8.738281 4.242188 15.453125 4.242188 C 22.164062 4.242188 27.601562 9.730469 27.601562 16.503906 Z M 27.605469 16.503906 " fill-opacity="1" fill-rule="nonzero"/></g><path fill="#b7baba" d="M 11.519531 18.5625 C 11.519531 18.5625 12.496094 18.804688 12.832031 18.5625 C 13.167969 18.324219 17.386719 18.222656 17.386719 18.222656 L 17.929688 18.5625 L 19.117188 18.257812 L 18.792969 19.972656 L 11.890625 19.851562 L 11.519531 18.566406 Z M 11.519531 18.5625 " fill-opacity="1" fill-rule="nonzero"/><g clip-path="url(#2e937d5eb6)"><path fill="#3d3b3c" d="M 10.96875 11.617188 C 10.96875 11.617188 9.308594 9.589844 8.789062 9.003906 C 8.273438 8.421875 8.1875 7.453125 8.609375 6.15625 C 9.03125 4.855469 9.4375 4.128906 10.53125 4.054688 C 11.621094 3.980469 11.777344 3.050781 12.855469 2.621094 C 13.933594 2.191406 16.425781 2.914062 18.625 3.730469 C 20.828125 4.546875 21.457031 5.566406 21.859375 6.859375 C 21.859375 6.859375 21.65625 6.746094 21.027344 6.585938 C 21.027344 6.585938 21.296875 9.035156 21.859375 9.351562 C 21.859375 9.351562 21.074219 9.644531 20.625 9.417969 C 20.625 9.417969 20.625 10.753906 20.199219 11.253906 C 19.769531 11.753906 17.5625 12.96875 14.910156 13.308594 C 12.253906 13.644531 10.96875 11.617188 10.96875 11.617188 Z M 10.96875 11.617188 " fill-opacity="1" fill-rule="nonzero"/></g><path fill="#ce6c5f" d="M 10.636719 11.214844 C 10.636719 11.214844 9.953125 10.585938 9.636719 11.003906 C 9.320312 11.421875 9.589844 13.386719 10.136719 14.144531 C 10.628906 14.828125 11.109375 14.757812 11.261719 14.382812 C 11.414062 14.007812 10.636719 11.214844 10.636719 11.214844 Z M 10.636719 11.214844 " fill-opacity="1" fill-rule="nonzero"/><path fill="#ce6c5f" d="M 19.515625 10.96875 C 19.515625 10.96875 20.109375 10.253906 20.480469 10.625 C 20.851562 10.992188 20.851562 12.976562 20.414062 13.804688 C 20.019531 14.546875 19.535156 14.546875 19.332031 14.195312 C 19.132812 13.84375 19.515625 10.96875 19.515625 10.96875 Z M 19.515625 10.96875 " fill-opacity="1" fill-rule="nonzero"/><path fill="#f9b69b" d="M 15.382812 22.789062 C 12.757812 22.035156 11.601562 19.699219 11.601562 19.699219 C 11.601562 19.699219 11.792969 19.183594 11.949219 18.546875 C 12.070312 18.050781 12.164062 17.480469 12.117188 17.03125 L 18.625 16.46875 C 18.625 16.46875 18.671875 17.046875 18.765625 17.699219 C 18.855469 18.347656 18.988281 19.066406 19.164062 19.367188 C 19.515625 19.972656 18.007812 23.539062 15.382812 22.789062 Z M 15.382812 22.789062 " fill-opacity="1" fill-rule="nonzero"/><path fill="#ce6c5f" d="M 18.738281 17.507812 C 18 18.546875 16.96875 20.46875 14.515625 20.226562 C 13.878906 20.164062 12.820312 19.359375 11.949219 18.546875 C 12.070312 18.050781 12.164062 17.480469 12.117188 17.03125 L 18.625 16.46875 C 18.625 16.46875 18.648438 16.859375 18.738281 17.507812 Z M 18.738281 17.507812 " fill-opacity="1" fill-rule="nonzero"/><path fill="#f9b69b" d="M 10.386719 10.34375 C 10.386719 10.34375 10.988281 13.925781 11.15625 15.125 C 11.320312 16.328125 11.757812 16.882812 12.65625 17.839844 C 13.550781 18.800781 14.339844 19.078125 15.585938 19.058594 C 16.828125 19.042969 18.53125 17.214844 18.878906 16.808594 C 19.226562 16.402344 19.539062 15.660156 19.609375 14.40625 C 19.683594 13.152344 19.648438 10.914062 19.609375 10.34375 C 19.574219 9.769531 19.519531 4.96875 17.761719 5.078125 C 16.003906 5.1875 12.910156 5.097656 11.101562 5.652344 C 9.289062 6.203125 9.195312 8.125 9.542969 8.957031 C 9.890625 9.789062 10.386719 10.34375 10.386719 10.34375 Z M 10.386719 10.34375 " fill-opacity="1" fill-rule="nonzero"/><path stroke-linecap="round" transform="matrix(0.0568352, 0, 0, 0.0573546, 3.300472, 1.978022)" fill="none" stroke-linejoin="round" d="M 136.227067 157.9828 C 136.227067 157.9828 147.429955 150.559137 164.337382 148.856462 C 181.17608 147.221894 186.262054 150.763458 186.262054 150.763458 " stroke="#7d2929" stroke-width="6" stroke-opacity="1" stroke-miterlimit="4"/><path stroke-linecap="round" transform="matrix(0.0568352, 0, 0, 0.0573546, 3.300472, 1.978022)" fill="none" stroke-linejoin="round" d="M 223.513376 148.44782 C 223.513376 148.44782 231.829631 143.271687 243.444896 143.271687 C 259.871217 143.271687 267.362719 148.856462 267.362719 148.856462 " stroke="#7d2929" stroke-width="6" stroke-opacity="1" stroke-miterlimit="4"/><path stroke-linecap="round" transform="matrix(0.0568352, 0, 0, 0.0573546, 3.300472, 1.978022)" fill="none" stroke-linejoin="round" d="M 204.062963 169.833419 L 207.63689 213.421902 " stroke="#ce6c5f" stroke-width="6" stroke-opacity="1" stroke-miterlimit="4"/><path fill="#3d1119" d="M 13.453125 11.996094 C 13.453125 12.117188 13.417969 12.21875 13.347656 12.300781 C 13.273438 12.386719 13.191406 12.425781 13.089844 12.425781 C 12.988281 12.425781 12.902344 12.386719 12.832031 12.300781 C 12.761719 12.21875 12.726562 12.117188 12.726562 11.996094 C 12.726562 11.878906 12.761719 11.777344 12.832031 11.691406 C 12.902344 11.609375 12.988281 11.566406 13.089844 11.566406 C 13.191406 11.566406 13.273438 11.609375 13.347656 11.691406 C 13.417969 11.777344 13.453125 11.878906 13.453125 11.996094 Z M 13.453125 11.996094 " fill-opacity="1" fill-rule="nonzero"/><path fill="#3d1119" d="M 17.0625 11.789062 C 17.0625 11.90625 17.03125 12.007812 16.964844 12.09375 C 16.898438 12.175781 16.820312 12.21875 16.726562 12.21875 C 16.632812 12.21875 16.554688 12.175781 16.488281 12.09375 C 16.421875 12.007812 16.390625 11.90625 16.390625 11.789062 C 16.390625 11.667969 16.421875 11.566406 16.488281 11.484375 C 16.554688 11.398438 16.632812 11.355469 16.726562 11.355469 C 16.820312 11.355469 16.898438 11.398438 16.964844 11.484375 C 17.03125 11.566406 17.0625 11.667969 17.0625 11.789062 Z M 17.0625 11.789062 " fill-opacity="1" fill-rule="nonzero"/><path stroke-linecap="round" transform="matrix(0.0568352, 0, 0, 0.0573546, 3.300472, 1.978022)" fill="none" stroke-linejoin="round" d="M 180.901162 247.271084 C 180.901162 247.271084 197.946048 255.716352 213.753805 253.400714 C 229.492832 251.085076 240.489533 244.478697 240.489533 244.478697 " stroke="#7d2929" stroke-width="3" stroke-opacity="1" stroke-miterlimit="4"/><g clip-path="url(#14681e015e)"><path fill="#feffff" d="M 20.292969 20.417969 L 19.1875 28.175781 C 18.917969 28.265625 18.640625 28.34375 18.363281 28.414062 C 18.273438 28.433594 18.183594 28.457031 18.09375 28.476562 C 17.242188 28.667969 16.359375 28.765625 15.453125 28.765625 C 14.808594 28.765625 14.175781 28.71875 13.5625 28.621094 C 13.21875 28.566406 12.875 28.496094 12.539062 28.414062 C 12.328125 28.359375 12.121094 28.300781 11.914062 28.238281 L 11.832031 28.046875 L 11.070312 19.679688 C 11.070312 19.679688 11.386719 19.035156 11.335938 18.75 C 11.28125 18.464844 11.601562 18.519531 11.777344 18.75 C 11.953125 18.980469 12.921875 20.34375 13.492188 20.71875 C 14.066406 21.09375 14.828125 21.628906 15 21.816406 C 15.0625 21.882812 15.113281 21.996094 15.164062 22.101562 C 15.25 22.277344 15.332031 22.433594 15.453125 22.335938 C 15.554688 22.25 15.59375 22.183594 15.679688 22.089844 C 15.746094 22.011719 15.847656 21.914062 16.039062 21.765625 C 16.464844 21.441406 18.121094 19.964844 18.53125 19.339844 C 18.941406 18.714844 18.855469 18.183594 19.117188 18.257812 C 19.382812 18.332031 19.175781 18.527344 19.441406 18.9375 C 19.707031 19.355469 20.292969 20.417969 20.292969 20.417969 Z M 20.292969 20.417969 " fill-opacity="1" fill-rule="nonzero"/></g><g clip-path="url(#18e9413fd3)"><path fill="#3d3b3c" d="M 11.601562 23.074219 C 11.707031 23.917969 12.167969 26.496094 12.542969 28.414062 C 9.261719 27.597656 6.503906 25.441406 4.878906 22.550781 C 5.46875 22.441406 6.046875 22.308594 6.453125 22.160156 C 7.660156 21.710938 9.585938 20.742188 10.054688 20.273438 C 10.523438 19.808594 11.007812 19.324219 11.144531 19.511719 C 11.144531 19.511719 11.433594 21.777344 11.601562 23.074219 Z M 11.601562 23.074219 " fill-opacity="1" fill-rule="nonzero"/></g><g clip-path="url(#61e531845b)"><path fill="#3d3b3c" d="M 26.132812 22.359375 C 24.519531 25.347656 21.714844 27.582031 18.363281 28.414062 C 18.816406 25.929688 19.351562 24.117188 19.53125 21.125 C 19.601562 19.929688 19.488281 19.136719 19.558594 19.046875 C 19.632812 18.960938 20.011719 19.367188 20.449219 19.628906 C 20.886719 19.890625 23.289062 21.480469 24.835938 21.851562 C 25.503906 22.007812 25.898438 22.199219 26.132812 22.359375 Z M 26.132812 22.359375 " fill-opacity="1" fill-rule="nonzero"/></g><g clip-path="url(#98f786eb30)"><path fill="#e54328" d="M 18.09375 28.476562 C 17.242188 28.667969 16.359375 28.765625 15.453125 28.765625 C 14.808594 28.765625 14.175781 28.71875 13.5625 28.621094 L 14.839844 24.492188 L 13.609375 23.082031 C 13.609375 23.082031 14.316406 22.21875 14.5625 22.113281 L 15.164062 22.101562 L 15.679688 22.089844 L 16.332031 22.074219 L 16.503906 22.15625 L 17.25 23.082031 C 17.25 23.082031 16.464844 24.457031 16.457031 24.492188 C 16.457031 24.542969 17.59375 27.277344 18.09375 28.476562 Z M 18.09375 28.476562 " fill-opacity="1" fill-rule="nonzero"/></g><path stroke-linecap="round" transform="matrix(0.0568352, 0, 0, 0.0573546, 3.300472, 1.978022)" fill="none" stroke-linejoin="round" d="M 206.468491 392.543325 C 206.468491 392.543325 224.131941 392.679539 226.674928 392.543325 " stroke="#531110" stroke-width="3" stroke-opacity="1" stroke-miterlimit="4"/><path fill="#3d3b3c" d="M 10.503906 11.039062 C 10.503906 11.039062 10.246094 9.257812 10.640625 8.78125 C 10.640625 8.78125 11.015625 8.09375 11.585938 7.835938 C 12.375 7.476562 13.449219 7.503906 13.699219 7.398438 C 14.132812 7.222656 14.695312 6.90625 15.679688 6.824219 C 17.0625 6.710938 17.574219 7.390625 18.15625 8.742188 C 18.738281 10.089844 19.425781 10.757812 19.847656 10.492188 C 20.265625 10.226562 20.023438 7.113281 19.738281 6.101562 C 19.453125 5.089844 17.53125 3.207031 15.3125 3.382812 C 13.089844 3.5625 10.675781 4.027344 9.960938 4.996094 C 9.246094 5.964844 9.015625 8.152344 9.015625 8.152344 L 10.5 11.039062 Z M 10.503906 11.039062 " fill-opacity="1" fill-rule="nonzero"/><path stroke-linecap="round" transform="matrix(0.0568352, 0, 0, 0.0573546, 3.300472, 1.978022)" fill="none" stroke-linejoin="round" d="M 148.117249 360.056284 C 148.117249 360.056284 161.107101 388.661226 165.230864 385.800732 C 169.354627 382.940238 194.578308 350.725624 200.282847 349.976447 " stroke="#999999" stroke-width="3" stroke-opacity="1" stroke-miterlimit="4"/><path stroke-linecap="round" transform="matrix(0.0568352, 0, 0, 0.0573546, 3.300472, 1.978022)" fill="none" stroke-linejoin="round" d="M 228.049515 349.976447 C 228.049515 349.976447 229.973938 350.521303 232.310737 351.815336 C 234.647536 353.041262 258.634089 387.775835 263.651333 384.506699 C 268.668578 381.305669 277.809585 346.911632 280.008925 341.531179 " stroke="#999999" stroke-width="3" stroke-opacity="1" stroke-miterlimit="4"/><g fill="#000000" fill-opacity="1"><g transform="translate(15.607726, 3.469921)"><g><path d="M 0.265625 0.015625 C 0.222656 0.015625 0.191406 0.00390625 0.171875 -0.015625 C 0.148438 -0.0351562 0.140625 -0.0664062 0.140625 -0.109375 C 0.140625 -0.140625 0.148438 -0.164062 0.171875 -0.1875 C 0.191406 -0.207031 0.222656 -0.21875 0.265625 -0.21875 C 0.296875 -0.21875 0.320312 -0.207031 0.34375 -0.1875 C 0.363281 -0.164062 0.375 -0.140625 0.375 -0.109375 C 0.375 -0.0664062 0.363281 -0.0351562 0.34375 -0.015625 C 0.320312 0.00390625 0.296875 0.015625 0.265625 0.015625 Z M 0.265625 0.015625 "/></g></g></g></svg>