<svg xmlns="http://www.w3.org/2000/svg" xmlns:xlink="http://www.w3.org/1999/xlink" width="42" zoomAndPan="magnify" viewBox="0 0 31.5 31.499999" height="42" preserveAspectRatio="xMidYMid meet" version="1.0"><defs><clipPath id="e0d276371e"><path d="M 4.757812 24 L 26.167969 24 L 26.167969 31.007812 L 4.757812 31.007812 Z M 4.757812 24 " clip-rule="nonzero"/></clipPath><clipPath id="59a0e81db4"><path d="M 8 3.101562 L 25 3.101562 L 25 15 L 8 15 Z M 8 3.101562 " clip-rule="nonzero"/></clipPath><clipPath id="7b6efb2e27"><path d="M 4.757812 23 L 14 23 L 14 31.007812 L 4.757812 31.007812 Z M 4.757812 23 " clip-rule="nonzero"/></clipPath><clipPath id="f673549ecf"><path d="M 19 23 L 26.167969 23 L 26.167969 31.007812 L 19 31.007812 Z M 19 23 " clip-rule="nonzero"/></clipPath></defs><g clip-path="url(#e0d276371e)"><path fill="#964f4f" d="M 26.121094 30.125 C 26.128906 30.597656 26.128906 31.074219 26.148438 31.546875 C 26.160156 31.796875 26.082031 31.894531 25.820312 31.886719 C 25.335938 31.867188 24.847656 31.878906 24.363281 31.878906 C 18.007812 31.878906 11.65625 31.875 5.304688 31.886719 C 4.898438 31.890625 4.765625 31.78125 4.800781 31.378906 C 4.839844 30.882812 4.832031 30.378906 4.847656 29.875 C 5.09375 29.863281 5.09375 30.050781 5.113281 30.214844 C 5.140625 30.492188 5.113281 30.773438 5.132812 31.050781 C 5.148438 31.207031 5.171875 31.386719 5.363281 31.394531 C 5.589844 31.40625 5.621094 31.207031 5.621094 31.039062 C 5.621094 30.324219 5.6875 29.625 5.863281 28.925781 C 6.121094 27.882812 6.757812 27.132812 7.582031 26.53125 C 8.851562 25.609375 10.308594 25.097656 11.816406 24.71875 C 12.328125 24.59375 12.84375 24.472656 13.363281 24.394531 C 13.605469 24.277344 13.761719 24.417969 13.910156 24.574219 C 14.414062 25.09375 14.949219 25.582031 15.488281 26.066406 C 15.527344 26.101562 15.566406 26.144531 15.609375 26.179688 C 16.203125 26.710938 16.308594 26.695312 16.890625 26.164062 C 17.496094 25.613281 18.109375 25.070312 18.628906 24.425781 C 18.738281 24.289062 18.875 24.148438 19.089844 24.21875 C 19.988281 24.402344 20.878906 24.613281 21.726562 24.972656 C 22.789062 25.417969 23.75 26.007812 24.4375 26.972656 C 25.109375 27.917969 25.339844 28.996094 25.414062 30.121094 C 25.429688 30.429688 25.433594 30.734375 25.496094 31.039062 C 25.523438 31.15625 25.515625 31.328125 25.683594 31.3125 C 25.839844 31.296875 25.828125 31.125 25.835938 31.003906 C 25.851562 30.808594 25.832031 30.613281 25.859375 30.421875 C 25.878906 30.269531 25.894531 30.101562 26.121094 30.125 Z M 26.121094 30.125 " fill-opacity="1" fill-rule="nonzero"/></g><path fill="#fe9881" d="M 14.027344 20.222656 C 14.03125 20.019531 13.886719 19.941406 13.738281 19.855469 C 12.777344 19.3125 11.871094 18.699219 11.226562 17.773438 C 11.082031 17.566406 10.886719 17.625 10.703125 17.628906 C 9.589844 17.644531 8.730469 16.96875 8.480469 15.878906 C 8.238281 14.835938 8.792969 14.050781 9.851562 13.941406 C 9.949219 13.929688 10.050781 13.949219 10.109375 13.84375 C 10.183594 13.800781 10.257812 13.78125 10.347656 13.789062 C 10.589844 13.8125 10.714844 13.675781 10.714844 13.445312 C 10.714844 12.371094 10.796875 11.292969 10.675781 10.222656 C 10.601562 9.574219 10.804688 9.105469 11.324219 8.753906 C 12.140625 8.199219 13.074219 8.066406 14.023438 8.046875 C 14.449219 8.039062 14.816406 8.253906 15.167969 8.558594 C 15.664062 8.984375 16.265625 9.277344 16.730469 9.59375 C 16.324219 9.324219 15.839844 9 15.339844 8.699219 C 15.257812 8.652344 15.140625 8.609375 15.191406 8.488281 C 15.242188 8.367188 15.359375 8.34375 15.476562 8.382812 C 15.742188 8.464844 16.003906 8.558594 16.246094 8.699219 C 17.730469 9.5625 19.265625 10.300781 20.941406 10.71875 C 21.160156 10.773438 21.320312 10.886719 21.289062 11.152344 C 21.265625 11.382812 21.417969 11.582031 21.402344 11.808594 C 21.414062 12.347656 21.402344 12.886719 21.414062 13.421875 C 21.417969 13.714844 21.492188 13.972656 21.800781 14.085938 C 21.828125 14.085938 21.859375 14.09375 21.882812 14.085938 C 23.371094 13.789062 23.886719 15.199219 23.398438 16.308594 C 22.992188 17.234375 22.09375 17.761719 21.082031 17.648438 C 20.867188 17.625 20.746094 17.6875 20.632812 17.855469 C 20.089844 18.632812 19.410156 19.265625 18.601562 19.746094 C 18.359375 19.886719 18.335938 20.074219 18.355469 20.304688 C 17.964844 20.308594 17.605469 20.441406 17.253906 20.601562 C 16.457031 20.972656 15.660156 21.007812 14.859375 20.601562 C 14.585938 20.464844 14.296875 20.367188 14.027344 20.222656 Z M 14.027344 20.222656 " fill-opacity="1" fill-rule="nonzero"/><g clip-path="url(#59a0e81db4)"><path fill="#191919" d="M 21.199219 11.847656 C 21.183594 11.808594 21.152344 11.765625 21.160156 11.730469 C 21.285156 11.023438 20.839844 10.886719 20.285156 10.742188 C 18.875 10.375 17.59375 9.699219 16.332031 8.988281 C 16.007812 8.808594 15.667969 8.664062 15.3125 8.542969 C 15.964844 8.992188 16.628906 9.421875 17.21875 9.964844 C 16.871094 9.746094 16.527344 9.53125 16.179688 9.316406 C 15.976562 9.1875 15.769531 9.074219 15.582031 8.929688 C 14.355469 7.972656 13.0625 8.164062 11.765625 8.734375 C 11.011719 9.070312 10.863281 9.46875 10.894531 10.289062 C 10.941406 11.476562 10.914062 12.660156 10.921875 13.847656 C 10.921875 14.105469 10.816406 14.167969 10.585938 14.085938 C 10.414062 14.027344 10.234375 13.996094 10.113281 13.847656 C 9.625 12.492188 9.15625 11.132812 8.746094 9.753906 C 8.707031 9.621094 8.691406 9.480469 8.667969 9.347656 C 8.5625 9.140625 8.519531 8.929688 8.582031 8.703125 C 8.558594 7.972656 9.003906 7.519531 9.523438 7.117188 C 9.84375 6.871094 10.203125 6.675781 10.589844 6.5625 C 10.972656 6.445312 11.371094 6.375 11.832031 6.265625 C 11.4375 6.09375 11.089844 6.03125 10.722656 6.070312 C 10.335938 6.113281 9.964844 6.21875 9.613281 6.398438 C 9.285156 6.566406 9.019531 6.820312 8.746094 7.0625 C 9.484375 5.964844 10.6875 5.589844 11.988281 6.011719 C 12.121094 6.054688 12.261719 6.085938 12.382812 6.152344 C 12.644531 6.296875 12.753906 6.28125 12.773438 5.933594 C 12.816406 5.136719 13.261719 4.542969 13.859375 4.078125 C 14.976562 3.203125 16.242188 3.101562 17.578125 3.4375 C 17.652344 3.457031 17.71875 3.511719 17.839844 3.582031 C 17 3.710938 16.285156 3.980469 15.683594 4.59375 C 15.949219 4.664062 16.15625 4.546875 16.363281 4.523438 C 19.078125 4.242188 21.101562 5.398438 22.628906 7.5625 C 23.324219 8.554688 23.890625 9.636719 24.707031 10.546875 C 24.847656 10.703125 24.769531 10.769531 24.621094 10.851562 C 24.058594 11.167969 23.449219 11.292969 22.816406 11.261719 C 22.476562 11.246094 22.414062 11.390625 22.453125 11.671875 C 22.5 11.796875 22.386719 11.78125 22.332031 11.816406 C 22.292969 11.832031 22.257812 11.839844 22.214844 11.839844 C 21.960938 11.816406 21.785156 11.535156 21.496094 11.628906 C 21.378906 11.679688 21.34375 11.839844 21.199219 11.847656 Z M 21.199219 11.847656 " fill-opacity="1" fill-rule="nonzero"/></g><path fill="#fe9881" d="M 19.035156 24.335938 C 18.355469 25.015625 17.703125 25.722656 16.988281 26.367188 C 16.265625 27.015625 16.273438 27.042969 15.546875 26.394531 C 14.964844 25.875 14.40625 25.328125 13.835938 24.796875 C 13.714844 24.683594 13.578125 24.585938 13.449219 24.480469 C 13.023438 24.382812 12.699219 24 12.765625 23.671875 C 13.003906 23.550781 13.265625 23.535156 13.519531 23.503906 C 13.914062 23.96875 13.925781 23.964844 14.511719 23.796875 C 15.855469 23.402344 16.886719 22.554688 17.785156 21.515625 C 17.867188 21.417969 17.949219 21.324219 18.027344 21.226562 C 18.210938 21.007812 18.347656 21.089844 18.464844 21.296875 C 18.539062 21.8125 18.648438 22.332031 18.679688 22.851562 C 18.707031 23.289062 18.828125 23.566406 19.308594 23.582031 C 19.382812 23.582031 19.457031 23.636719 19.53125 23.667969 C 19.648438 24.027344 19.519531 24.203125 19.035156 24.339844 Z M 19.035156 24.335938 " fill-opacity="1" fill-rule="nonzero"/><g clip-path="url(#7b6efb2e27)"><path fill="#964f4f" d="M 12.765625 23.671875 C 12.945312 23.980469 13.285156 24.15625 13.449219 24.480469 C 13.007812 24.785156 12.476562 24.773438 11.984375 24.894531 C 10.617188 25.238281 9.308594 25.710938 8.089844 26.433594 C 6.566406 27.332031 5.898438 28.699219 5.839844 30.421875 C 5.828125 30.726562 5.832031 31.035156 5.839844 31.339844 C 5.847656 31.679688 5.636719 31.714844 5.371094 31.71875 C 5.097656 31.722656 4.925781 31.65625 4.917969 31.328125 C 4.902344 30.84375 4.996094 30.351562 4.847656 29.875 C 4.886719 28.261719 5.476562 26.929688 6.804688 25.960938 C 8.328125 24.851562 10.066406 24.261719 11.871094 23.835938 C 12.164062 23.765625 12.457031 23.664062 12.765625 23.671875 Z M 12.765625 23.671875 " fill-opacity="1" fill-rule="nonzero"/></g><path fill="#f7705c" d="M 18.464844 21.292969 C 18.203125 21.167969 18.140625 21.40625 18.03125 21.535156 C 17.089844 22.671875 15.992188 23.578125 14.550781 24 C 14.417969 24.039062 14.285156 24.078125 14.148438 24.109375 C 13.605469 24.230469 13.449219 24.078125 13.519531 23.5 C 13.753906 22.867188 13.734375 22.195312 13.84375 21.539062 C 13.914062 21.101562 13.964844 20.660156 14.027344 20.222656 C 14.148438 20.078125 14.292969 20.089844 14.4375 20.179688 C 15.601562 20.921875 16.757812 20.746094 17.878906 20.097656 C 18.203125 19.910156 18.277344 20.046875 18.355469 20.304688 C 18.410156 20.632812 18.480469 20.957031 18.464844 21.292969 Z M 18.464844 21.292969 " fill-opacity="1" fill-rule="nonzero"/><g clip-path="url(#f673549ecf)"><path fill="#964f4f" d="M 19.035156 24.335938 C 19.171875 24.089844 19.464844 23.964844 19.53125 23.667969 C 21.617188 24.058594 23.503906 24.84375 24.90625 26.511719 C 25.773438 27.542969 26.09375 28.792969 26.121094 30.125 C 25.976562 30.503906 26.066406 30.898438 26.050781 31.285156 C 26.042969 31.546875 25.984375 31.714844 25.675781 31.71875 C 25.378906 31.71875 25.320312 31.5625 25.289062 31.296875 C 25.203125 30.5625 25.214844 29.824219 25.082031 29.09375 C 24.734375 27.140625 23.519531 25.941406 21.761719 25.214844 C 21.070312 24.925781 20.359375 24.679688 19.613281 24.558594 C 19.40625 24.523438 19.207031 24.464844 19.035156 24.335938 Z M 19.035156 24.335938 " fill-opacity="1" fill-rule="nonzero"/></g><path fill="#191919" d="M 21.199219 11.847656 C 21.210938 11.671875 21.183594 11.492188 21.285156 11.332031 C 21.683594 11.320312 21.960938 11.597656 22.292969 11.753906 L 22.285156 11.75 C 22.316406 11.777344 22.371094 11.785156 22.382812 11.835938 C 22.363281 12.632812 22.046875 13.351562 21.800781 14.085938 C 21.355469 14.410156 21.292969 14.398438 21.253906 13.851562 C 21.207031 13.183594 21.214844 12.515625 21.199219 11.847656 Z M 21.199219 11.847656 " fill-opacity="1" fill-rule="nonzero"/><path fill="#191919" d="M 8.582031 8.703125 C 8.609375 8.917969 8.636719 9.132812 8.667969 9.347656 C 8.464844 9.925781 8.640625 10.492188 8.730469 11.058594 C 8.789062 11.433594 8.910156 11.804688 9.011719 12.207031 C 8.550781 11.707031 8.328125 9.707031 8.582031 8.703125 Z M 8.582031 8.703125 " fill-opacity="1" fill-rule="nonzero"/><path fill="#191919" d="M 22.382812 11.835938 C 22.351562 11.808594 22.320312 11.777344 22.285156 11.75 C 22.34375 11.722656 22.398438 11.699219 22.453125 11.671875 C 22.976562 11.914062 23.558594 11.945312 24.105469 12.117188 C 23.5 12.199219 22.953125 11.9375 22.382812 11.835938 Z M 22.382812 11.835938 " fill-opacity="1" fill-rule="nonzero"/><path fill="#191919" d="M 23.375 8.214844 C 23.148438 7.878906 22.925781 7.542969 22.703125 7.203125 C 23.050781 7.460938 23.234375 7.824219 23.46875 8.15625 C 23.4375 8.175781 23.40625 8.195312 23.375 8.214844 Z M 23.375 8.214844 " fill-opacity="1" fill-rule="nonzero"/><path fill="#191919" d="M 24.335938 9.175781 C 24.621094 9.25 24.871094 9.386719 25.148438 9.449219 C 24.820312 9.53125 24.558594 9.394531 24.335938 9.175781 Z M 24.335938 9.175781 " fill-opacity="1" fill-rule="nonzero"/><path fill="#ffffff" d="M 16.128906 18.117188 C 15.226562 18.109375 14.523438 17.332031 14.601562 16.433594 C 14.617188 16.242188 14.707031 16.195312 14.867188 16.195312 C 15.714844 16.191406 16.5625 16.183594 17.410156 16.183594 C 17.558594 16.183594 17.671875 16.207031 17.691406 16.402344 C 17.773438 17.285156 17.015625 18.128906 16.128906 18.121094 Z M 16.128906 18.117188 " fill-opacity="1" fill-rule="nonzero"/><path fill="#f7705c" d="M 12.453125 15.945312 C 11.738281 15.945312 11.4375 15.738281 11.441406 15.253906 C 11.445312 14.621094 11.851562 14.265625 12.570312 14.269531 C 13.230469 14.269531 13.523438 14.542969 13.519531 15.148438 C 13.515625 15.703125 13.191406 15.945312 12.453125 15.945312 Z M 12.453125 15.945312 " fill-opacity="1" fill-rule="nonzero"/><path fill="#f7705c" d="M 19.742188 15.945312 C 19.644531 15.945312 19.550781 15.945312 19.453125 15.945312 C 18.765625 15.929688 18.464844 15.429688 18.777344 14.808594 C 18.890625 14.582031 19.0625 14.421875 19.34375 14.515625 C 19.480469 14.558594 19.613281 14.546875 19.75 14.539062 C 19.886719 14.527344 20.027344 14.53125 20.160156 14.558594 C 20.667969 14.675781 20.988281 15.03125 20.933594 15.398438 C 20.878906 15.761719 20.597656 15.933594 20.035156 15.945312 C 19.9375 15.949219 19.839844 15.945312 19.742188 15.945312 Z M 19.742188 15.945312 " fill-opacity="1" fill-rule="nonzero"/><path fill="#191919" d="M 20.433594 11.953125 C 19.527344 11.582031 18.589844 11.535156 17.648438 11.5 C 17.398438 11.492188 17.199219 11.402344 17.207031 11.117188 C 17.210938 10.828125 17.425781 10.757812 17.667969 10.746094 C 18.367188 10.714844 19.050781 10.828125 19.703125 11.074219 C 20.09375 11.222656 20.269531 11.578125 20.433594 11.953125 Z M 20.433594 11.953125 " fill-opacity="1" fill-rule="nonzero"/><path fill="#191919" d="M 11.613281 12.054688 C 11.8125 11.609375 12.027344 11.269531 12.421875 11.121094 C 13.023438 10.894531 13.648438 10.753906 14.292969 10.757812 C 14.550781 10.757812 14.832031 10.789062 14.839844 11.136719 C 14.84375 11.46875 14.570312 11.542969 14.316406 11.554688 C 13.71875 11.578125 13.121094 11.582031 12.539062 11.746094 C 12.25 11.828125 11.96875 11.933594 11.613281 12.054688 Z M 11.613281 12.054688 " fill-opacity="1" fill-rule="nonzero"/><path fill="#f7705c" d="M 22.746094 15.195312 C 22.714844 15.371094 22.589844 15.398438 22.507812 15.460938 C 22.3125 15.609375 22.171875 15.722656 22.457031 15.960938 C 22.714844 16.179688 22.558594 16.449219 22.371094 16.652344 C 22.164062 16.878906 21.890625 17.070312 21.605469 16.878906 C 21.34375 16.710938 21.40625 16.398438 21.550781 16.167969 C 21.832031 15.722656 22.171875 15.332031 22.746094 15.195312 Z M 22.746094 15.195312 " fill-opacity="1" fill-rule="nonzero"/><path fill="#f7705c" d="M 9.929688 15.597656 C 9.71875 15.4375 9.535156 15.292969 9.339844 15.148438 C 9.847656 15.078125 10.527344 15.675781 10.511719 16.164062 C 10.507812 16.328125 10.464844 16.480469 10.28125 16.507812 C 9.988281 16.550781 9.691406 16.582031 9.476562 16.316406 C 9.355469 16.171875 9.304688 15.992188 9.402344 15.8125 C 9.503906 15.621094 9.742188 15.757812 9.929688 15.597656 Z M 9.929688 15.597656 " fill-opacity="1" fill-rule="nonzero"/><path fill="#191919" d="M 13.421875 13.035156 C 13.65625 13.089844 13.851562 13.191406 13.84375 13.46875 C 13.839844 13.71875 13.683594 13.867188 13.449219 13.871094 C 13.191406 13.875 13.035156 13.714844 13.039062 13.445312 C 13.039062 13.203125 13.179688 13.066406 13.421875 13.035156 Z M 13.421875 13.035156 " fill-opacity="1" fill-rule="nonzero"/><path fill="#191919" d="M 18.640625 13.09375 C 18.875 13.109375 19.03125 13.222656 19.023438 13.476562 C 19.019531 13.746094 18.839844 13.886719 18.601562 13.882812 C 18.363281 13.882812 18.226562 13.699219 18.230469 13.46875 C 18.234375 13.226562 18.390625 13.101562 18.640625 13.09375 Z M 18.640625 13.09375 " fill-opacity="1" fill-rule="nonzero"/><path fill="#f7705c" d="M 16.25 15.300781 C 16.101562 14.523438 16.253906 13.738281 16.199219 12.960938 C 16.359375 13.511719 16.410156 14.832031 16.25 15.300781 Z M 16.25 15.300781 " fill-opacity="1" fill-rule="nonzero"/><path fill="#191919" d="M 19.527344 13.371094 C 19.132812 13.003906 18.738281 12.675781 18.125 12.898438 C 18.320312 12.625 18.464844 12.542969 18.714844 12.609375 C 19.105469 12.710938 19.398438 12.949219 19.527344 13.371094 Z M 19.527344 13.371094 " fill-opacity="1" fill-rule="nonzero"/><path fill="#191919" d="M 14.078125 12.875 C 13.371094 12.570312 13.003906 13.09375 12.519531 13.421875 C 12.714844 12.664062 13.539062 12.363281 14.078125 12.875 Z M 14.078125 12.875 " fill-opacity="1" fill-rule="nonzero"/><path fill="#191919" d="M 22.292969 11.753906 C 21.957031 11.613281 21.621094 11.472656 21.285156 11.332031 C 21.265625 11.246094 21.289062 11.179688 21.382812 11.226562 C 21.695312 11.386719 22.046875 11.480469 22.292969 11.753906 Z M 22.292969 11.753906 " fill-opacity="1" fill-rule="nonzero"/></svg>