<svg xmlns="http://www.w3.org/2000/svg" xmlns:xlink="http://www.w3.org/1999/xlink" width="42" zoomAndPan="magnify" viewBox="0 0 31.5 31.499999" height="42" preserveAspectRatio="xMidYMid meet" version="1.0"><defs><g/><clipPath id="5f77b51f8f"><path d="M 6 6.355469 L 26 6.355469 L 26 30.71875 L 6 30.71875 Z M 6 6.355469 " clip-rule="nonzero"/></clipPath><clipPath id="ad45b87c86"><path d="M 9 16 L 23 16 L 23 30.71875 L 9 30.71875 Z M 9 16 " clip-rule="nonzero"/></clipPath><clipPath id="1daf15a7af"><path d="M 5 20 L 26 20 L 26 30.71875 L 5 30.71875 Z M 5 20 " clip-rule="nonzero"/></clipPath><clipPath id="54f84dac35"><path d="M 4.828125 24 L 26.238281 24 L 26.238281 30.71875 L 4.828125 30.71875 Z M 4.828125 24 " clip-rule="nonzero"/></clipPath><clipPath id="a4aca69683"><path d="M 4.828125 25 L 14 25 L 14 30.71875 L 4.828125 30.71875 Z M 4.828125 25 " clip-rule="nonzero"/></clipPath><clipPath id="2d642ef860"><path d="M 17 25 L 26.238281 25 L 26.238281 30.71875 L 17 30.71875 Z M 17 25 " clip-rule="nonzero"/></clipPath><clipPath id="fd5388aebb"><path d="M 13 30 L 18 30 L 18 30.71875 L 13 30.71875 Z M 13 30 " clip-rule="nonzero"/></clipPath></defs><g clip-path="url(#5f77b51f8f)"><path fill="#5e4241" d="M 24.929688 24.871094 C 24.425781 23.414062 24.039062 21.804688 23.75 19.949219 C 23.519531 18.460938 23.320312 16.917969 23.140625 15.230469 C 23.113281 14.976562 23.085938 14.714844 23.0625 14.453125 C 22.96875 13.523438 22.824219 12.664062 22.632812 11.894531 C 22.402344 10.960938 22.089844 10.132812 21.710938 9.4375 C 21.273438 8.625 20.726562 7.96875 20.09375 7.480469 C 19.378906 6.933594 18.535156 6.589844 17.585938 6.457031 C 16.902344 6.363281 16.257812 6.386719 15.617188 6.527344 C 15.195312 6.621094 14.761719 6.644531 14.324219 6.59375 C 13.882812 6.542969 13.429688 6.582031 12.976562 6.710938 C 12.566406 6.824219 12.152344 7.011719 11.746094 7.265625 C 10.863281 7.816406 10.203125 8.554688 9.804688 9.078125 C 8.800781 10.398438 8.425781 12.058594 8.128906 13.644531 C 7.648438 16.195312 7.515625 18.84375 7.390625 21.40625 C 7.34375 22.355469 7.292969 23.339844 7.230469 24.300781 C 7.1875 24.878906 7.019531 25.449219 6.734375 25.945312 C 6.570312 26.234375 6.460938 26.484375 6.390625 26.730469 C 6.273438 27.140625 6.289062 27.5625 6.433594 27.957031 C 6.574219 28.347656 6.839844 28.683594 7.195312 28.921875 C 8.25 29.636719 9.1875 29.722656 10.277344 29.820312 C 10.507812 29.84375 10.742188 29.863281 10.992188 29.894531 C 12.992188 30.121094 15.019531 30.238281 17.035156 30.238281 C 17.179688 30.238281 17.320312 30.238281 17.464844 30.234375 C 18.125 30.230469 18.835938 30.160156 19.632812 30.015625 C 20.335938 29.890625 21.035156 29.726562 21.75 29.554688 L 21.789062 29.542969 C 22.152344 29.457031 22.539062 29.410156 22.914062 29.363281 C 23.378906 29.304688 23.820312 29.253906 24.207031 29.128906 C 24.664062 28.984375 24.980469 28.757812 25.183594 28.4375 C 25.617188 27.753906 25.539062 26.621094 24.929688 24.871094 Z M 24.929688 24.871094 " fill-opacity="1" fill-rule="nonzero"/></g><g clip-path="url(#ad45b87c86)"><path fill="#4a3433" d="M 21.585938 28.765625 C 21.746094 28.441406 21.765625 28.054688 21.757812 27.6875 C 21.71875 26.007812 21.144531 24.359375 21.273438 22.683594 C 21.378906 21.300781 21.945312 20.027344 22.140625 18.660156 C 22.242188 17.949219 22.25 16.921875 21.476562 16.683594 C 21.046875 16.546875 20.535156 16.714844 20.097656 16.753906 C 19.503906 16.808594 18.914062 16.832031 18.320312 16.835938 C 15.972656 16.863281 13.613281 16.628906 11.273438 16.957031 C 10.542969 17.0625 9.707031 17.3125 9.414062 18.058594 C 9.132812 18.773438 9.636719 19.511719 9.789062 20.210938 C 9.988281 21.132812 10.066406 22.082031 10.019531 23.027344 C 9.953125 24.316406 9.660156 25.574219 9.539062 26.859375 C 9.484375 27.421875 9.464844 28.042969 9.6875 28.570312 C 9.941406 29.179688 10.738281 29.199219 11.277344 29.355469 C 12.160156 29.609375 13.042969 29.894531 13.929688 30.132812 C 14.917969 30.203125 15.910156 30.238281 16.894531 30.238281 C 17.023438 30.238281 17.148438 30.238281 17.277344 30.234375 C 17.867188 30.230469 18.496094 30.160156 19.207031 30.015625 C 19.691406 29.921875 20.171875 29.800781 20.65625 29.671875 C 20.773438 29.59375 20.890625 29.511719 21.003906 29.421875 C 21.230469 29.242188 21.453125 29.035156 21.585938 28.765625 Z M 21.585938 28.765625 " fill-opacity="1" fill-rule="nonzero"/></g><g clip-path="url(#1daf15a7af)"><path fill="#ffd8cf" d="M 25.71875 29.855469 C 25.585938 28.828125 25.578125 28.160156 24.921875 27.679688 C 24.195312 27.144531 22.859375 26.835938 21.492188 26.515625 C 19.070312 25.945312 18.0625 25.335938 17.941406 25.257812 C 17.933594 25.253906 17.925781 25.246094 17.917969 25.238281 C 17.898438 25.222656 17.910156 25.179688 17.898438 25.15625 C 17.566406 24.382812 17.613281 22.976562 17.609375 21.835938 L 17.601562 20.367188 C 17.601562 20.273438 17.523438 20.195312 17.429688 20.195312 L 13.628906 20.195312 C 13.535156 20.195312 13.457031 20.273438 13.457031 20.367188 L 13.449219 21.835938 C 13.445312 22.972656 13.558594 24.238281 13.191406 25.164062 C 13.175781 25.199219 13.152344 25.226562 13.121094 25.246094 C 12.890625 25.386719 11.835938 25.980469 9.566406 26.515625 C 8.203125 26.835938 6.867188 27.144531 6.140625 27.675781 C 5.480469 28.160156 5.472656 28.824219 5.339844 29.855469 C 5.3125 30.058594 5.292969 30.300781 5.277344 30.5625 L 25.78125 30.5625 C 25.765625 30.300781 25.746094 30.058594 25.71875 29.855469 Z M 25.71875 29.855469 " fill-opacity="1" fill-rule="nonzero"/></g><path fill="#f3aba5" d="M 17.613281 23.15625 C 17.609375 22.710938 17.632812 22.25 17.628906 21.835938 L 17.625 20.367188 C 17.625 20.273438 17.546875 20.195312 17.449219 20.195312 L 13.609375 20.195312 C 13.511719 20.195312 13.433594 20.273438 13.433594 20.367188 L 13.429688 21.835938 C 13.425781 22.972656 13.539062 24.238281 13.164062 25.164062 C 13.160156 25.175781 13.15625 25.183594 13.148438 25.191406 C 14.789062 25.066406 16.300781 24.46875 17.613281 23.15625 Z M 17.613281 23.15625 " fill-opacity="1" fill-rule="nonzero"/><path fill="#000000" d="M 14.558594 27.875 C 14.542969 27.875 14.53125 27.875 14.519531 27.871094 C 13.382812 27.589844 11.6875 27.214844 10.085938 27.011719 C 9.128906 26.890625 8.652344 26.886719 8.648438 26.886719 C 8.566406 26.886719 8.5 26.824219 8.5 26.742188 C 8.5 26.660156 8.566406 26.597656 8.648438 26.597656 C 8.667969 26.597656 9.140625 26.597656 10.113281 26.722656 C 11.007812 26.835938 12.507812 27.078125 14.59375 27.585938 C 14.671875 27.605469 14.71875 27.6875 14.699219 27.765625 C 14.683594 27.832031 14.625 27.875 14.558594 27.875 Z M 14.558594 27.875 " fill-opacity="1" fill-rule="nonzero"/><path fill="#000000" d="M 16.484375 27.875 C 16.417969 27.875 16.355469 27.832031 16.339844 27.765625 C 16.320312 27.6875 16.367188 27.605469 16.445312 27.585938 C 17.597656 27.304688 19.308594 26.925781 20.925781 26.722656 C 21.898438 26.597656 22.371094 26.597656 22.390625 26.597656 C 22.472656 26.597656 22.539062 26.660156 22.539062 26.742188 C 22.539062 26.824219 22.472656 26.886719 22.390625 26.886719 C 22.386719 26.886719 21.910156 26.890625 20.953125 27.011719 C 20.070312 27.125 18.582031 27.363281 16.519531 27.871094 C 16.507812 27.875 16.496094 27.875 16.484375 27.875 Z M 16.484375 27.875 " fill-opacity="1" fill-rule="nonzero"/><path fill="#ffc6c0" d="M 7.910156 17.949219 C 8.253906 18.773438 9.292969 19.472656 10.277344 19.648438 C 11 19.78125 10.757812 18.90625 10.640625 17.902344 C 10.5 16.6875 9.925781 15.546875 9.199219 15.429688 C 8.4375 15.308594 7.914062 15.730469 7.757812 16.386719 C 7.636719 16.902344 7.699219 17.449219 7.910156 17.949219 Z M 7.910156 17.949219 " fill-opacity="1" fill-rule="nonzero"/><path fill="#ffc6c0" d="M 23.035156 17.949219 C 22.691406 18.773438 21.648438 19.472656 20.667969 19.648438 C 19.945312 19.78125 20.1875 18.90625 20.304688 17.902344 C 20.445312 16.6875 21.019531 15.546875 21.742188 15.429688 C 22.507812 15.308594 23.03125 15.730469 23.183594 16.386719 C 23.304688 16.902344 23.246094 17.449219 23.035156 17.949219 Z M 23.035156 17.949219 " fill-opacity="1" fill-rule="nonzero"/><path fill="#ffa3a3" d="M 9.914062 17.492188 C 9.9375 17.492188 9.957031 17.488281 9.980469 17.480469 C 10.054688 17.445312 10.085938 17.355469 10.050781 17.285156 C 9.804688 16.78125 9.441406 16.550781 9.175781 16.445312 C 8.886719 16.328125 8.652344 16.335938 8.640625 16.335938 C 8.558594 16.335938 8.496094 16.40625 8.5 16.484375 C 8.5 16.566406 8.566406 16.628906 8.648438 16.625 C 8.65625 16.625 8.84375 16.625 9.074219 16.71875 C 9.382812 16.847656 9.621094 17.078125 9.78125 17.410156 C 9.808594 17.460938 9.859375 17.492188 9.914062 17.492188 Z M 9.914062 17.492188 " fill-opacity="1" fill-rule="nonzero"/><path fill="#ffa3a3" d="M 21.070312 17.496094 C 21.050781 17.496094 21.027344 17.492188 21.007812 17.480469 C 20.933594 17.445312 20.902344 17.359375 20.9375 17.285156 C 21.179688 16.785156 21.546875 16.550781 21.8125 16.445312 C 22.101562 16.332031 22.335938 16.335938 22.34375 16.335938 C 22.425781 16.339844 22.492188 16.40625 22.488281 16.488281 C 22.484375 16.566406 22.417969 16.632812 22.335938 16.628906 C 22.332031 16.628906 22.144531 16.625 21.910156 16.722656 C 21.601562 16.847656 21.363281 17.082031 21.203125 17.410156 C 21.179688 17.464844 21.125 17.496094 21.070312 17.496094 Z M 21.070312 17.496094 " fill-opacity="1" fill-rule="nonzero"/><path fill="#ffd8cf" d="M 21.675781 14.832031 C 21.675781 15.617188 20.988281 19.019531 20.054688 20.425781 C 19.089844 21.886719 16.496094 23.160156 15.503906 23.160156 C 14.390625 23.160156 11.78125 21.929688 10.839844 20.511719 C 9.902344 19.097656 9.332031 15.632812 9.332031 14.832031 C 9.332031 12.46875 9.859375 9.257812 15.503906 9.257812 C 20.910156 9.257812 21.675781 12.46875 21.675781 14.832031 Z M 21.675781 14.832031 " fill-opacity="1" fill-rule="nonzero"/><path fill="#5e4241" d="M 8.835938 14.933594 C 8.835938 14.933594 9.214844 15.648438 9.671875 17.421875 C 9.71875 17.601562 9.933594 17.558594 9.929688 17.371094 C 9.921875 16.132812 10.128906 14.253906 10.433594 13.8125 C 10.433594 13.8125 9.09375 14.058594 8.835938 14.933594 Z M 8.835938 14.933594 " fill-opacity="1" fill-rule="nonzero"/><path fill="#5e4241" d="M 21.820312 13.15625 C 22.542969 22.703125 19.414062 23.945312 18.878906 23.953125 C 19.097656 23.566406 19.285156 23.160156 19.445312 22.75 C 20.519531 19.992188 20.523438 17.902344 19.882812 15.066406 C 19.636719 13.992188 19.3125 12.898438 18.769531 11.90625 C 18.234375 10.933594 17.496094 10.441406 16.175781 10.605469 C 16.039062 10.621094 15.457031 10.84375 15.351562 10.800781 C 15.347656 10.800781 12.308594 9.609375 11.429688 12.957031 C 11.0625 14.351562 10.527344 14.976562 10.097656 15.261719 C 9.835938 15.429688 9.519531 15.488281 9.210938 15.429688 C 9.09375 15.410156 8.917969 15.394531 8.683594 15.429688 C 8.214844 15.5 8.566406 14.441406 8.742188 13.78125 C 8.820312 13.496094 8.839844 13.195312 8.914062 12.90625 C 9.082031 12.253906 9.324219 11.617188 9.671875 11.039062 C 10.078125 10.367188 10.652344 9.746094 11.382812 9.402344 C 12.144531 9.046875 13.03125 8.882812 13.855469 8.738281 C 15.082031 8.519531 16.40625 8.355469 17.644531 8.542969 C 19.464844 8.824219 21.078125 10.082031 21.558594 11.867188 C 21.675781 12.289062 21.785156 12.722656 21.820312 13.15625 Z M 21.820312 13.15625 " fill-opacity="1" fill-rule="nonzero"/><path fill="#7c5959" d="M 20.722656 9.664062 C 21.074219 9.9375 21.152344 10.25 21 10.445312 C 20.84375 10.636719 19.582031 11.207031 19.230469 10.933594 C 18.878906 10.660156 19.871094 9.878906 20.023438 9.6875 C 20.175781 9.492188 20.371094 9.390625 20.722656 9.664062 Z M 20.722656 9.664062 " fill-opacity="1" fill-rule="nonzero"/><path fill="#7c5959" d="M 10.386719 9.785156 C 10.066406 10.035156 9.996094 10.320312 10.136719 10.496094 C 10.277344 10.667969 11.421875 11.1875 11.742188 10.9375 C 12.0625 10.691406 11.164062 9.980469 11.023438 9.804688 C 10.882812 9.632812 10.707031 9.539062 10.386719 9.785156 Z M 10.386719 9.785156 " fill-opacity="1" fill-rule="nonzero"/><path fill="#ffa3a3" d="M 15.515625 20.925781 C 15.132812 20.925781 14.652344 20.773438 14.3125 20.539062 C 14.246094 20.496094 14.230469 20.402344 14.273438 20.335938 C 14.320312 20.269531 14.414062 20.253906 14.480469 20.300781 C 14.777344 20.503906 15.214844 20.640625 15.539062 20.632812 C 15.847656 20.625 16.296875 20.503906 16.601562 20.253906 C 16.660156 20.199219 16.753906 20.207031 16.808594 20.269531 C 16.859375 20.332031 16.851562 20.421875 16.792969 20.476562 C 16.476562 20.738281 15.984375 20.914062 15.542969 20.921875 C 15.535156 20.925781 15.523438 20.925781 15.515625 20.925781 Z M 15.515625 20.925781 " fill-opacity="1" fill-rule="nonzero"/><path fill="#ffa3a3" d="M 15.535156 19.210938 C 15.371094 19.210938 15.171875 19.144531 15.027344 19.046875 C 14.960938 19.003906 14.941406 18.910156 14.988281 18.84375 C 15.035156 18.777344 15.128906 18.761719 15.195312 18.808594 C 15.304688 18.882812 15.453125 18.917969 15.539062 18.917969 C 15.660156 18.914062 15.804688 18.863281 15.886719 18.792969 C 15.949219 18.742188 16.042969 18.75 16.09375 18.8125 C 16.148438 18.875 16.140625 18.964844 16.078125 19.015625 C 15.941406 19.128906 15.734375 19.203125 15.546875 19.207031 C 15.542969 19.210938 15.539062 19.210938 15.535156 19.210938 Z M 15.535156 19.210938 " fill-opacity="1" fill-rule="nonzero"/><path fill="#5e4241" d="M 13.40625 15.355469 C 13.378906 15.355469 13.351562 15.347656 13.328125 15.332031 C 12.953125 15.105469 12.550781 15.023438 12.132812 15.082031 C 11.816406 15.125 11.609375 15.238281 11.605469 15.238281 C 11.535156 15.277344 11.445312 15.253906 11.40625 15.183594 C 11.363281 15.113281 11.390625 15.027344 11.460938 14.984375 C 11.46875 14.980469 11.710938 14.847656 12.078125 14.792969 C 12.414062 14.742188 12.933594 14.753906 13.480469 15.082031 C 13.550781 15.125 13.574219 15.214844 13.53125 15.285156 C 13.503906 15.328125 13.453125 15.355469 13.40625 15.355469 Z M 13.40625 15.355469 " fill-opacity="1" fill-rule="nonzero"/><path fill="#5e4241" d="M 17.601562 15.355469 C 17.550781 15.355469 17.503906 15.328125 17.476562 15.285156 C 17.433594 15.214844 17.457031 15.125 17.527344 15.082031 C 18.074219 14.753906 18.59375 14.742188 18.929688 14.792969 C 19.296875 14.847656 19.535156 14.980469 19.546875 14.984375 C 19.617188 15.027344 19.640625 15.113281 19.601562 15.183594 C 19.5625 15.253906 19.472656 15.277344 19.398438 15.238281 C 19.398438 15.238281 19.191406 15.125 18.875 15.082031 C 18.457031 15.023438 18.054688 15.105469 17.679688 15.332031 C 17.65625 15.347656 17.628906 15.355469 17.601562 15.355469 Z M 17.601562 15.355469 " fill-opacity="1" fill-rule="nonzero"/><path fill="#000000" d="M 19.03125 16.367188 C 19.03125 16.292969 19.015625 16.222656 18.988281 16.152344 C 18.929688 16 18.789062 15.867188 18.632812 15.816406 C 17.820312 15.558594 17.492188 16.78125 18.320312 16.957031 C 18.488281 16.988281 18.671875 16.941406 18.800781 16.839844 C 18.945312 16.730469 19.039062 16.546875 19.03125 16.367188 Z M 18.429688 16.375 Z M 18.429688 16.375 " fill-opacity="1" fill-rule="nonzero"/><path fill="#000000" d="M 13.175781 16.371094 C 13.175781 16.296875 13.160156 16.222656 13.132812 16.152344 C 13.066406 15.992188 12.9375 15.871094 12.777344 15.816406 C 12.371094 15.660156 11.910156 16.027344 11.980469 16.453125 C 12.023438 16.882812 12.578125 17.117188 12.929688 16.855469 L 12.925781 16.855469 C 13.0625 16.757812 13.15625 16.605469 13.175781 16.429688 C 13.175781 16.410156 13.175781 16.390625 13.175781 16.371094 Z M 12.574219 16.375 Z M 12.574219 16.375 " fill-opacity="1" fill-rule="nonzero"/><g clip-path="url(#54f84dac35)"><path fill="#f3fcff" d="M 26.085938 30.566406 C 26.015625 29.273438 25.980469 28.105469 24.9375 27.4375 C 24.167969 26.945312 23.230469 26.820312 22.363281 26.585938 C 21.46875 26.347656 20.496094 26.132812 19.652344 25.753906 C 18.921875 25.429688 18.230469 25.054688 17.449219 24.84375 C 16.996094 24.71875 16.714844 27.023438 16.238281 28.132812 C 16.074219 28.519531 15.6875 29.183594 15.527344 29.1875 C 15.367188 29.1875 14.949219 28.398438 14.792969 28.054688 C 14.304688 26.980469 14.09375 24.800781 13.59375 24.90625 C 12.570312 25.117188 11.621094 25.523438 10.648438 25.890625 C 9.890625 26.171875 9.128906 26.441406 8.359375 26.695312 C 7.679688 26.921875 6.945312 27.0625 6.328125 27.441406 C 5.535156 27.9375 5.210938 28.6875 5.054688 29.546875 C 5.035156 29.652344 5.023438 29.757812 5.015625 29.863281 L 4.976562 30.566406 L 25.847656 30.566406 L 25.535156 30.566406 C 25.535156 30.566406 26.085938 30.566406 26.085938 30.566406 Z M 26.085938 30.566406 " fill-opacity="1" fill-rule="nonzero"/><path fill="#72799f" d="M 25.847656 30.710938 L 4.976562 30.710938 C 4.933594 30.710938 4.894531 30.695312 4.867188 30.664062 C 4.839844 30.636719 4.824219 30.597656 4.828125 30.554688 L 4.871094 29.855469 C 4.875 29.742188 4.890625 29.628906 4.910156 29.519531 C 5 29.03125 5.132812 28.625 5.324219 28.289062 C 5.550781 27.882812 5.851562 27.566406 6.25 27.320312 C 6.25 27.320312 6.25 27.316406 6.25 27.316406 C 6.71875 27.03125 7.246094 26.875 7.761719 26.726562 C 7.945312 26.671875 8.132812 26.617188 8.3125 26.558594 C 9.078125 26.304688 9.84375 26.035156 10.597656 25.753906 C 10.777344 25.683594 10.960938 25.613281 11.140625 25.546875 C 11.917969 25.246094 12.558594 24.964844 13.402344 24.789062 C 13.492188 24.769531 13.628906 24.777344 13.757812 24.9375 C 13.828125 25.023438 13.898438 25.148438 13.964844 25.324219 C 14.082031 25.628906 14.347656 26.015625 14.457031 26.457031 C 14.597656 27.011719 14.742188 27.585938 14.929688 27.996094 C 14.992188 28.136719 15.117188 28.390625 15.253906 28.625 C 15.402344 28.878906 15.464844 29.359375 15.507812 29.398438 C 15.546875 29.363281 15.652344 28.894531 15.785156 28.683594 C 15.902344 28.492188 16.023438 28.257812 16.101562 28.078125 C 16.28125 27.65625 16.433594 27.058594 16.582031 26.480469 C 16.683594 26.078125 16.949219 26.179688 17.050781 25.875 C 17.179688 25.492188 17.296875 25.296875 17.433594 25.214844 C 17.503906 25.175781 17.582031 25.164062 17.65625 25.183594 C 18.25 25.347656 18.632812 25.121094 19.167969 25.371094 C 19.34375 25.453125 19.527344 25.542969 19.710938 25.621094 C 20.382812 25.921875 21.144531 26.117188 21.878906 26.308594 C 22.050781 26.355469 22.230469 26.398438 22.398438 26.445312 C 22.601562 26.5 22.816406 26.550781 23.019531 26.597656 C 23.703125 26.757812 24.410156 26.925781 25.015625 27.316406 C 26.097656 28.007812 26.160156 29.203125 26.230469 30.464844 L 26.234375 30.558594 C 26.234375 30.59375 26.222656 30.632812 26.195312 30.660156 C 26.152344 30.710938 26.101562 30.710938 26.0625 30.710938 Z M 5.132812 30.417969 L 25.535156 30.417969 C 25.535156 30.417969 25.765625 30.417969 25.929688 30.417969 C 25.863281 29.207031 25.792969 28.164062 24.855469 27.558594 C 24.292969 27.195312 23.609375 27.035156 22.949219 26.882812 C 22.742188 26.832031 22.53125 26.785156 22.324219 26.726562 C 22.152344 26.683594 21.972656 26.636719 21.804688 26.589844 C 21.054688 26.398438 20.285156 26.199219 19.589844 25.890625 C 19.402344 25.804688 19.21875 25.71875 19.039062 25.636719 C 18.496094 25.378906 17.984375 25.140625 17.414062 24.984375 C 17.40625 24.992188 17.371094 25.015625 17.324219 25.101562 C 17.277344 25.179688 17.226562 25.300781 17.175781 25.453125 C 17.074219 25.75 16.972656 26.140625 16.871094 26.550781 C 16.71875 27.140625 16.566406 27.75 16.375 28.191406 C 16.285156 28.402344 16.140625 28.675781 16.007812 28.882812 C 15.929688 29.003906 15.859375 29.101562 15.792969 29.171875 C 15.695312 29.28125 15.613281 29.332031 15.527344 29.332031 C 15.410156 29.332031 15.285156 29.246094 15.03125 28.824219 C 14.886719 28.582031 14.738281 28.292969 14.65625 28.113281 C 14.460938 27.683594 14.3125 27.09375 14.171875 26.527344 C 14.0625 26.097656 13.960938 25.691406 13.847656 25.402344 C 13.792969 25.261719 13.738281 25.15625 13.691406 25.097656 C 13.667969 25.070312 13.640625 25.042969 13.625 25.046875 C 12.804688 25.21875 12.011719 25.523438 11.246094 25.816406 C 11.070312 25.886719 10.882812 25.957031 10.703125 26.023438 C 9.945312 26.308594 9.175781 26.582031 8.40625 26.835938 C 8.222656 26.894531 8.03125 26.953125 7.84375 27.003906 C 7.351562 27.148438 6.839844 27.296875 6.40625 27.566406 C 5.75 27.976562 5.378906 28.597656 5.199219 29.574219 C 5.183594 29.667969 5.171875 29.769531 5.164062 29.871094 Z M 15.5 29.046875 Z M 15.5 29.046875 " fill-opacity="1" fill-rule="nonzero"/></g><path fill="#f3fcff" d="M 15.523438 29.269531 C 15.523438 29.269531 15.789062 27.957031 16.152344 27.515625 C 16.503906 27.089844 16.441406 25.324219 16.804688 25.414062 C 17.171875 25.507812 18.53125 24.347656 18.921875 25.53125 C 18.921875 25.53125 18.894531 28.804688 17.25 28.929688 C 15.59375 29.050781 15.515625 29.605469 15.515625 29.605469 Z M 15.523438 29.269531 " fill-opacity="1" fill-rule="nonzero"/><path fill="#c8dae8" d="M 18.5625 27.34375 C 18.128906 25.996094 17.171875 25.507812 16.804688 25.414062 L 16.75 25.414062 C 16.445312 25.5 16.484375 27.113281 16.152344 27.515625 C 16.152344 27.515625 17.269531 27.152344 18.5625 27.34375 Z M 18.5625 27.34375 " fill-opacity="1" fill-rule="nonzero"/><path fill="#f3fcff" d="M 15.535156 29.269531 C 15.535156 29.269531 15.273438 27.957031 14.910156 27.515625 C 14.558594 27.089844 14.621094 25.324219 14.257812 25.414062 C 13.890625 25.507812 12.53125 24.300781 12.140625 25.476562 C 12.140625 25.476562 12.167969 28.804688 13.8125 28.929688 C 15.46875 29.050781 15.546875 29.605469 15.546875 29.605469 Z M 15.535156 29.269531 " fill-opacity="1" fill-rule="nonzero"/><path fill="#c8dae8" d="M 12.5 27.34375 C 12.933594 25.996094 13.890625 25.507812 14.257812 25.414062 L 14.3125 25.414062 C 14.617188 25.5 14.578125 27.113281 14.910156 27.515625 C 14.910156 27.515625 13.796875 27.152344 12.5 27.34375 Z M 12.5 27.34375 " fill-opacity="1" fill-rule="nonzero"/><path fill="#c8dae8" d="M 12.113281 26.546875 C 12.148438 26.945312 12.28125 27.484375 12.5 27.835938 C 12.933594 26.351562 13.890625 25.8125 14.257812 25.710938 L 14.324219 25.710938 C 14.324219 25.710938 13.308594 24.871094 13.425781 23.941406 C 13.445312 23.808594 13.242188 23.808594 13.160156 23.835938 C 12.898438 23.917969 12.6875 24.1875 12.542969 24.4375 C 12.1875 25.058594 12.039062 25.800781 12.113281 26.546875 Z M 12.113281 26.546875 " fill-opacity="1" fill-rule="nonzero"/><path fill="#c8dae8" d="M 18.957031 26.550781 C 18.90625 27.007812 18.777344 27.488281 18.5625 27.835938 C 18.128906 26.351562 17.171875 25.8125 16.804688 25.710938 L 16.742188 25.710938 C 16.742188 25.710938 17.753906 24.871094 17.636719 23.941406 C 17.621094 23.808594 17.820312 23.808594 17.90625 23.835938 C 18.164062 23.917969 18.378906 24.1875 18.519531 24.4375 C 18.800781 24.925781 18.972656 25.503906 18.980469 26.097656 C 18.980469 26.242188 18.972656 26.394531 18.957031 26.550781 Z M 18.957031 26.550781 " fill-opacity="1" fill-rule="nonzero"/><path fill="#f3fcff" d="M 12.113281 26.175781 C 12.148438 26.535156 12.28125 27.023438 12.5 27.34375 C 12.933594 25.996094 13.890625 25.507812 14.257812 25.414062 L 14.324219 25.414062 C 14.324219 25.414062 13.308594 24.652344 13.425781 23.808594 C 13.445312 23.6875 13.242188 23.6875 13.160156 23.710938 C 12.898438 23.789062 12.6875 24.03125 12.542969 24.257812 C 12.1875 24.824219 12.039062 25.496094 12.113281 26.175781 Z M 12.113281 26.175781 " fill-opacity="1" fill-rule="nonzero"/><g clip-path="url(#a4aca69683)"><path fill="#72799f" d="M 13.101562 30.414062 C 12.539062 29.4375 12.195312 28.371094 12.082031 27.242188 C 11.988281 26.332031 12.070312 25.660156 12.113281 25.414062 C 12.121094 25.363281 12.101562 25.308594 12.058594 25.277344 C 12.019531 25.242188 11.964844 25.234375 11.914062 25.253906 C 11.65625 25.347656 11.394531 25.449219 11.140625 25.546875 C 10.960938 25.613281 10.777344 25.683594 10.597656 25.753906 C 9.84375 26.035156 9.078125 26.304688 8.3125 26.558594 C 8.132812 26.617188 7.945312 26.671875 7.761719 26.726562 C 7.246094 26.875 6.71875 27.03125 6.25 27.316406 C 6.25 27.316406 6.25 27.320312 6.25 27.320312 C 5.851562 27.566406 5.550781 27.882812 5.324219 28.289062 C 5.132812 28.625 5 29.03125 4.910156 29.523438 C 4.890625 29.628906 4.875 29.742188 4.871094 29.855469 L 4.828125 30.554688 C 4.824219 30.597656 4.839844 30.636719 4.867188 30.664062 C 4.894531 30.695312 4.933594 30.710938 4.976562 30.710938 L 13.019531 30.710938 C 13.070312 30.710938 13.121094 30.683594 13.144531 30.636719 C 13.171875 30.59375 13.171875 30.535156 13.144531 30.492188 C 13.132812 30.464844 13.117188 30.441406 13.101562 30.414062 Z M 13.101562 30.414062 " fill-opacity="1" fill-rule="nonzero"/></g><g clip-path="url(#2d642ef860)"><path fill="#72799f" d="M 26.234375 30.558594 L 26.230469 30.464844 C 26.160156 29.203125 26.097656 28.007812 25.015625 27.316406 C 24.410156 26.925781 23.703125 26.757812 23.019531 26.597656 C 22.816406 26.550781 22.601562 26.5 22.398438 26.445312 C 22.230469 26.398438 22.050781 26.355469 21.878906 26.308594 C 21.144531 26.117188 20.382812 25.921875 19.710938 25.621094 C 19.527344 25.542969 19.34375 25.453125 19.164062 25.371094 L 19.140625 25.359375 C 19.089844 25.335938 19.03125 25.34375 18.988281 25.375 C 18.945312 25.410156 18.921875 25.464844 18.933594 25.515625 C 18.976562 25.757812 19.066406 26.417969 18.957031 27.308594 C 18.828125 28.402344 18.453125 29.441406 17.847656 30.402344 C 17.832031 30.429688 17.8125 30.457031 17.792969 30.484375 C 17.765625 30.53125 17.761719 30.589844 17.789062 30.636719 C 17.816406 30.683594 17.863281 30.710938 17.917969 30.710938 L 26.039062 30.710938 C 26.109375 30.710938 26.15625 30.710938 26.199219 30.660156 C 26.222656 30.628906 26.234375 30.59375 26.234375 30.558594 Z M 26.234375 30.558594 " fill-opacity="1" fill-rule="nonzero"/></g><path fill="#f3fcff" d="M 18.957031 26.175781 C 18.90625 26.589844 18.777344 27.03125 18.5625 27.34375 C 18.128906 25.996094 17.171875 25.507812 16.804688 25.414062 L 16.742188 25.414062 C 16.742188 25.414062 17.753906 24.652344 17.636719 23.808594 C 17.621094 23.6875 17.820312 23.6875 17.90625 23.710938 C 18.164062 23.789062 18.378906 24.03125 18.519531 24.257812 C 18.800781 24.703125 18.972656 25.226562 18.980469 25.765625 C 18.980469 25.894531 18.972656 26.035156 18.957031 26.175781 Z M 18.957031 26.175781 " fill-opacity="1" fill-rule="nonzero"/><g clip-path="url(#fd5388aebb)"><path fill="#f3fcff" d="M 17.847656 30.402344 C 17.773438 30.511719 17.695312 30.617188 17.601562 30.710938 L 13.292969 30.710938 L 13.101562 30.414062 L 17.464844 30.234375 Z M 17.847656 30.402344 " fill-opacity="1" fill-rule="nonzero"/></g><g fill="#000000" fill-opacity="1"><g transform="translate(17.896398, 16.783592)"><g><path d="M 0.265625 0.015625 C 0.222656 0.015625 0.191406 0.00390625 0.171875 -0.015625 C 0.148438 -0.0351562 0.140625 -0.0664062 0.140625 -0.109375 C 0.140625 -0.140625 0.148438 -0.164062 0.171875 -0.1875 C 0.191406 -0.207031 0.222656 -0.21875 0.265625 -0.21875 C 0.296875 -0.21875 0.320312 -0.207031 0.34375 -0.1875 C 0.363281 -0.164062 0.375 -0.140625 0.375 -0.109375 C 0.375 -0.0664062 0.363281 -0.0351562 0.34375 -0.015625 C 0.320312 0.00390625 0.296875 0.015625 0.265625 0.015625 Z M 0.265625 0.015625 "/></g></g></g></svg>