<svg xmlns="http://www.w3.org/2000/svg" xmlns:xlink="http://www.w3.org/1999/xlink" width="42" zoomAndPan="magnify" viewBox="0 0 31.5 31.499999" height="42" preserveAspectRatio="xMidYMid meet" version="1.0"><defs><clipPath id="034793d54c"><path d="M 6.925781 18 L 23 18 L 23 27.613281 L 6.925781 27.613281 Z M 6.925781 18 " clip-rule="nonzero"/></clipPath><clipPath id="72dde3df0f"><path d="M 8 6.203125 L 22 6.203125 L 22 23 L 8 23 Z M 8 6.203125 " clip-rule="nonzero"/></clipPath><clipPath id="0ee3119207"><path d="M 6.925781 20 L 13 20 L 13 27.613281 L 6.925781 27.613281 Z M 6.925781 20 " clip-rule="nonzero"/></clipPath><clipPath id="a19683b8dc"><path d="M 18 20 L 23 20 L 23 27.613281 L 18 27.613281 Z M 18 20 " clip-rule="nonzero"/></clipPath><clipPath id="3fde38479f"><path d="M 7 20 L 13 20 L 13 27.613281 L 7 27.613281 Z M 7 20 " clip-rule="nonzero"/></clipPath><clipPath id="a4c10cf387"><path d="M 18 20 L 23 20 L 23 27.613281 L 18 27.613281 Z M 18 20 " clip-rule="nonzero"/></clipPath><clipPath id="5b1334e2f7"><path d="M 6.925781 26 L 7 26 L 7 27.613281 L 6.925781 27.613281 Z M 6.925781 26 " clip-rule="nonzero"/></clipPath><clipPath id="60980134b5"><path d="M 8 25 L 9 25 L 9 27.613281 L 8 27.613281 Z M 8 25 " clip-rule="nonzero"/></clipPath><clipPath id="700ab14214"><path d="M 21 25 L 22 25 L 22 27.613281 L 21 27.613281 Z M 21 25 " clip-rule="nonzero"/></clipPath></defs><g clip-path="url(#034793d54c)"><path fill="#964f4f" d="M 6.992188 27.535156 C 7.515625 27.53125 8.800781 25.339844 9.320312 25.339844 C 9.320312 25.339844 15.324219 15.214844 13.496094 19.394531 C 14.867188 19.398438 23.898438 19.691406 22.914062 27.53125 C 22.84375 27.613281 12.554688 27.582031 12.46875 27.582031 C 10.730469 27.585938 8.988281 27.585938 7.246094 27.582031 C 7.160156 27.582031 7.066406 27.609375 6.992188 27.535156 Z M 6.992188 27.535156 " fill-opacity="1" fill-rule="nonzero"/></g><g clip-path="url(#72dde3df0f)"><path fill="#191919" d="M 8.535156 21.042969 C 8.578125 17.707031 8.792969 14.398438 9.855469 11.203125 C 10.300781 9.867188 10.933594 8.632812 11.875 7.570312 C 12.269531 7.121094 12.722656 6.742188 13.226562 6.414062 C 13.550781 6.203125 13.871094 6.261719 14.199219 6.320312 C 16.289062 6.710938 18.09375 7.625 19.574219 9.164062 C 20.207031 9.820312 20.402344 10.65625 20.582031 11.5 C 21.03125 13.632812 21.257812 15.792969 21.375 17.96875 C 21.445312 19.253906 21.496094 20.539062 21.480469 21.828125 C 21.390625 21.941406 21.289062 21.894531 21.191406 21.839844 C 20.707031 21.554688 20.199219 21.316406 19.660156 21.144531 C 19.5625 21.113281 19.480469 21.0625 19.457031 20.949219 C 19.390625 20.804688 19.375 20.648438 19.371094 20.488281 C 19.332031 19.050781 19.15625 17.621094 18.96875 16.195312 C 18.933594 15.933594 18.988281 15.648438 18.84375 15.402344 C 18.742188 15.089844 18.828125 14.761719 18.742188 14.445312 C 18.546875 13.710938 18.425781 12.957031 18.234375 12.222656 C 18.289062 12.058594 18.1875 11.941406 18.121094 11.8125 C 18.109375 11.394531 17.96875 11.050781 17.628906 10.777344 C 16.621094 9.960938 15.578125 9.1875 14.484375 8.484375 C 14.082031 8.226562 14.007812 8.242188 13.765625 8.648438 C 13.246094 9.507812 12.664062 10.316406 11.898438 10.976562 C 11.660156 11.179688 11.617188 11.46875 11.671875 11.765625 C 11.675781 12.160156 11.683594 12.550781 11.667969 12.941406 C 11.664062 13.074219 11.679688 13.222656 11.511719 13.289062 C 11.394531 13.285156 11.328125 13.199219 11.300781 13.109375 C 11.226562 12.859375 11.070312 12.753906 10.816406 12.765625 C 10.535156 12.777344 10.320312 12.886719 10.1875 13.140625 C 9.878906 13.738281 10.15625 14.59375 10.761719 14.898438 C 10.890625 15.015625 11.050781 15.085938 11.1875 15.1875 C 11.339844 15.277344 11.359375 15.414062 11.351562 15.574219 C 11.304688 16.808594 11.226562 18.042969 11.261719 19.277344 C 11.277344 19.859375 11.347656 20.441406 11.308594 21.027344 C 11.300781 21.207031 11.160156 21.246094 11.027344 21.289062 C 10.492188 21.46875 9.949219 21.625 9.433594 21.859375 C 9.214844 21.960938 9.011719 22.078125 8.796875 22.183594 C 8.59375 22.28125 8.519531 22.234375 8.519531 22.019531 C 8.523438 21.691406 8.492188 21.367188 8.539062 21.042969 Z M 8.535156 21.042969 " fill-opacity="1" fill-rule="nonzero"/></g><g clip-path="url(#0ee3119207)"><path fill="#964f4f" d="M 6.992188 26.195312 C 6.960938 25.988281 6.976562 25.78125 7 25.574219 C 7.191406 25.566406 7.1875 25.714844 7.195312 25.835938 C 7.214844 26.152344 7.199219 26.46875 7.203125 26.785156 C 7.203125 26.875 7.199219 26.964844 7.21875 27.050781 C 7.238281 27.132812 7.261719 27.214844 7.367188 27.207031 C 7.449219 27.199219 7.480469 27.125 7.488281 27.058594 C 7.507812 26.839844 7.5625 26.625 7.539062 26.410156 C 7.480469 25.773438 7.558594 25.148438 7.664062 24.523438 C 7.808594 23.625 8.347656 23.007812 9.097656 22.550781 C 10.007812 21.996094 11.023438 21.726562 12.058594 21.53125 C 12.300781 21.484375 12.496094 21.410156 12.539062 21.132812 C 12.550781 21.0625 12.59375 20.992188 12.671875 20.992188 C 12.78125 20.996094 12.75 21.09375 12.746094 21.152344 C 12.738281 21.429688 12.78125 21.703125 12.722656 21.980469 C 12.730469 22.253906 12.742188 22.53125 12.742188 22.804688 C 12.742188 24.285156 12.742188 25.761719 12.738281 27.238281 C 12.738281 27.339844 12.726562 27.4375 12.71875 27.535156 C 12.628906 27.585938 12.523438 27.5625 12.429688 27.5625 C 11.175781 27.5625 9.925781 27.5625 8.675781 27.5625 C 8.636719 27.5625 8.589844 27.554688 8.585938 27.507812 C 8.515625 26.964844 8.480469 26.417969 8.574219 25.949219 C 8.488281 26.359375 8.519531 26.851562 8.558594 27.339844 C 8.566406 27.421875 8.625 27.519531 8.496094 27.5625 C 7.996094 27.546875 7.492188 27.597656 6.992188 27.535156 C 6.949219 27.089844 6.953125 26.644531 6.992188 26.199219 Z M 6.992188 26.195312 " fill-opacity="1" fill-rule="nonzero"/></g><g clip-path="url(#a19683b8dc)"><path fill="#964f4f" d="M 22.921875 26.90625 C 22.945312 27.328125 22.75 27.542969 22.34375 27.542969 C 21.144531 27.546875 19.941406 27.542969 18.742188 27.550781 C 18.558594 27.550781 18.449219 27.53125 18.453125 27.300781 C 18.46875 25.125 18.476562 22.945312 18.488281 20.769531 C 18.511719 20.742188 18.542969 20.734375 18.574219 20.746094 C 18.609375 20.765625 18.644531 20.792969 18.652344 20.832031 C 18.703125 21.226562 19.007812 21.300781 19.320312 21.390625 C 19.882812 21.550781 20.441406 21.71875 20.949219 22.023438 C 21.824219 22.550781 22.261719 23.347656 22.394531 24.324219 C 22.511719 25.1875 22.5625 26.054688 22.507812 26.925781 C 22.507812 26.945312 22.5 26.964844 22.503906 26.984375 C 22.503906 27.0625 22.488281 27.164062 22.59375 27.171875 C 22.679688 27.175781 22.6875 27.082031 22.703125 27.015625 C 22.710938 26.96875 22.710938 26.917969 22.71875 26.867188 C 22.734375 26.761719 22.75 26.613281 22.890625 26.648438 C 23 26.675781 22.9375 26.8125 22.921875 26.90625 Z M 22.921875 26.90625 " fill-opacity="1" fill-rule="nonzero"/></g><path fill="#fe9881" d="M 17.914062 20.648438 C 17.777344 20.910156 17.640625 21.175781 17.507812 21.441406 C 17.121094 22.21875 16.644531 22.933594 15.945312 23.476562 C 15.605469 23.742188 15.449219 23.75 15.089844 23.5 C 14.257812 22.921875 13.699219 22.128906 13.289062 21.214844 C 13.214844 21.050781 13.203125 20.84375 13.011719 20.746094 C 13.054688 20.523438 13.234375 20.582031 13.378906 20.5625 C 14.015625 20.644531 14.601562 20.464844 15.148438 20.167969 C 15.882812 19.769531 16.496094 19.226562 16.996094 18.558594 C 17.085938 18.4375 17.164062 18.265625 17.371094 18.367188 C 17.554688 18.578125 17.542969 18.84375 17.566406 19.089844 C 17.59375 19.355469 17.636719 19.617188 17.65625 19.882812 C 17.671875 20.160156 17.753906 20.414062 17.914062 20.648438 Z M 17.914062 20.648438 " fill-opacity="1" fill-rule="nonzero"/><path fill="#191919" d="M 13.429688 20.695312 C 13.289062 20.703125 13.144531 20.6875 13.011719 20.746094 C 12.9375 20.753906 12.863281 20.757812 12.792969 20.765625 C 12.714844 20.875 12.609375 20.941406 12.480469 20.96875 C 12.160156 21.039062 11.839844 21.105469 11.519531 21.164062 C 11.402344 21.183594 11.300781 21.171875 11.234375 21.058594 C 11.214844 20.984375 11.175781 20.910156 11.175781 20.835938 C 11.15625 19.554688 11.03125 18.277344 11.160156 16.996094 C 11.214844 16.496094 11.125 15.992188 11.214844 15.492188 C 11.238281 15.359375 11.140625 15.296875 11.050781 15.238281 C 11.183594 15.105469 11.367188 15.085938 11.535156 15.046875 C 11.761719 15 11.867188 15.160156 11.949219 15.34375 C 12.144531 15.789062 12.34375 16.222656 12.648438 16.605469 C 12.933594 16.96875 13.285156 17.25 13.652344 17.519531 C 13.761719 17.597656 13.894531 17.664062 13.890625 17.828125 C 13.917969 18.429688 13.796875 19.019531 13.738281 19.613281 C 13.710938 19.875 13.6875 20.140625 13.640625 20.402344 C 13.613281 20.539062 13.566406 20.644531 13.429688 20.695312 Z M 13.429688 20.695312 " fill-opacity="1" fill-rule="nonzero"/><path fill="#191919" d="M 17.914062 20.648438 C 17.636719 20.652344 17.5625 20.511719 17.539062 20.246094 C 17.484375 19.625 17.433594 19 17.308594 18.382812 C 17.09375 18.203125 17.132812 17.960938 17.152344 17.726562 C 17.132812 17.554688 17.230469 17.445312 17.351562 17.351562 C 17.9375 16.882812 18.320312 16.265625 18.648438 15.605469 C 18.707031 15.480469 18.742188 15.335938 18.929688 15.351562 C 19.097656 15.515625 19.054688 15.742188 19.082031 15.941406 C 19.257812 17.089844 19.351562 18.25 19.46875 19.410156 C 19.523438 19.921875 19.441406 20.4375 19.574219 20.941406 C 19.53125 21.011719 19.464844 21.070312 19.378906 21.050781 C 19.097656 20.980469 18.785156 20.992188 18.5625 20.761719 C 18.535156 20.761719 18.511719 20.765625 18.488281 20.769531 C 18.308594 20.671875 18.109375 20.660156 17.910156 20.648438 Z M 17.914062 20.648438 " fill-opacity="1" fill-rule="nonzero"/><g clip-path="url(#3fde38479f)"><path fill="#964f4f" d="M 11.234375 21.058594 L 11.238281 21.058594 C 11.238281 21.058594 11.238281 21.058594 11.234375 21.058594 C 11.753906 20.960938 12.273438 20.863281 12.792969 20.765625 L 12.722656 21.980469 L 12.722656 21.128906 C 12.625 21.570312 12.621094 21.570312 12.152344 21.664062 L 12.136719 21.667969 C 11.128906 21.863281 10.152344 22.128906 9.246094 22.632812 C 8.242188 23.191406 7.773438 24.0625 7.714844 25.175781 C 7.679688 25.84375 7.667969 26.511719 7.65625 27.179688 C 7.652344 27.398438 7.558594 27.476562 7.347656 27.476562 C 7.125 27.476562 7.050781 27.371094 7.054688 27.164062 C 7.0625 26.761719 7.058594 26.355469 7.058594 25.949219 C 7.058594 25.820312 7.070312 25.691406 7 25.574219 C 6.992188 24.867188 7.058594 24.171875 7.335938 23.515625 C 7.535156 23.039062 8.28125 22.367188 8.703125 22.074219 C 9.488281 21.582031 10.375 21.351562 11.234375 21.058594 Z M 11.234375 21.058594 " fill-opacity="1" fill-rule="nonzero"/></g><g clip-path="url(#a4c10cf387)"><path fill="#964f4f" d="M 18.5625 20.757812 C 18.914062 20.742188 19.230469 20.914062 19.574219 20.941406 C 20.242188 21.171875 20.878906 21.464844 21.480469 21.828125 C 22.476562 22.539062 22.894531 23.535156 22.941406 24.726562 C 22.96875 25.453125 23.015625 26.179688 22.921875 26.90625 C 22.914062 26.867188 22.910156 26.828125 22.90625 26.789062 C 22.890625 26.789062 22.871094 26.785156 22.855469 26.785156 C 22.855469 26.914062 22.847656 27.046875 22.855469 27.175781 C 22.867188 27.386719 22.777344 27.484375 22.554688 27.472656 C 22.324219 27.464844 22.3125 27.3125 22.324219 27.144531 C 22.332031 27.027344 22.367188 26.910156 22.371094 26.792969 C 22.394531 25.796875 22.382812 24.796875 22.132812 23.824219 C 21.867188 22.796875 21.167969 22.179688 20.191406 21.832031 C 19.71875 21.664062 19.242188 21.492188 18.742188 21.40625 C 18.625 21.386719 18.570312 21.316406 18.566406 21.203125 C 18.5625 21.054688 18.5625 20.90625 18.5625 20.757812 Z M 18.5625 20.757812 " fill-opacity="1" fill-rule="nonzero"/></g><g clip-path="url(#5b1334e2f7)"><path fill="#964f4f" d="M 6.992188 26.195312 C 6.992188 26.644531 6.992188 27.089844 6.996094 27.535156 C 6.929688 27.089844 6.945312 26.644531 6.992188 26.195312 Z M 6.992188 26.195312 " fill-opacity="1" fill-rule="nonzero"/></g><path fill="#fe9881" d="M 18.929688 15.351562 C 18.550781 16.257812 18.011719 17.042969 17.238281 17.664062 C 16.863281 18.183594 16.300781 18.328125 15.714844 18.398438 C 15.179688 18.464844 14.671875 18.335938 14.175781 18.136719 C 14 18.066406 13.875 17.949219 13.789062 17.789062 C 12.855469 17.214844 12.179688 16.429688 11.808594 15.398438 C 11.738281 15.203125 11.636719 15.136719 11.429688 15.199219 C 11.308594 15.234375 11.175781 15.226562 11.050781 15.234375 C 10.921875 15.152344 10.75 15.160156 10.636719 15.046875 C 10.65625 14.871094 10.773438 14.878906 10.898438 14.910156 C 11.023438 14.945312 11.148438 14.96875 11.28125 14.960938 C 11.480469 14.949219 11.597656 14.859375 11.582031 14.644531 C 11.574219 14.480469 11.5625 14.304688 11.769531 14.257812 C 11.988281 14.214844 12.089844 14.363281 12.152344 14.546875 C 12.21875 14.691406 12.292969 14.859375 12.460938 14.867188 C 12.71875 14.875 12.988281 14.9375 13.234375 14.820312 C 13.355469 14.765625 13.371094 14.636719 13.351562 14.515625 C 13.320312 14.320312 13.257812 14.152344 13.054688 14.070312 C 12.875 13.996094 12.675781 14.042969 12.503906 13.957031 C 12.367188 13.832031 12.253906 13.855469 12.132812 13.996094 C 11.933594 14.230469 11.683594 14.328125 11.375 14.238281 C 11.179688 14.082031 11.171875 13.820312 11.03125 13.632812 C 11.125 13.441406 11.160156 13.191406 11.460938 13.214844 C 11.578125 13.03125 11.492188 12.835938 11.503906 12.644531 C 11.523438 12.320312 11.523438 11.992188 11.53125 11.667969 C 11.628906 11.46875 11.769531 11.304688 11.929688 11.152344 C 12.589844 10.523438 13.214844 9.863281 13.726562 9.101562 C 13.910156 8.832031 14.03125 8.816406 14.335938 8.953125 C 15.605469 9.539062 16.722656 10.363281 17.828125 11.199219 C 17.945312 11.289062 18.210938 11.402344 17.964844 11.636719 C 17.796875 11.710938 17.632812 11.632812 17.472656 11.609375 C 17.246094 11.574219 17.023438 11.503906 16.792969 11.519531 C 16.683594 11.527344 16.511719 11.484375 16.507812 11.640625 C 16.507812 11.773438 16.675781 11.757812 16.777344 11.753906 C 17.066406 11.742188 17.355469 11.777344 17.632812 11.835938 C 17.878906 11.882812 18.1875 11.835938 18.324219 12.140625 C 18.542969 12.542969 18.566406 12.992188 18.65625 13.421875 C 18.773438 13.957031 18.847656 14.496094 18.949219 15.03125 C 18.96875 15.144531 18.9375 15.246094 18.925781 15.351562 Z M 18.929688 15.351562 " fill-opacity="1" fill-rule="nonzero"/><path fill="#191919" d="M 17.957031 11.558594 C 17.960938 11.433594 17.851562 11.394531 17.78125 11.339844 C 16.691406 10.53125 15.601562 9.726562 14.378906 9.125 C 14.101562 8.992188 13.945312 9.011719 13.773438 9.28125 C 13.226562 10.136719 12.480469 10.824219 11.753906 11.519531 C 11.691406 11.582031 11.605469 11.617188 11.53125 11.667969 C 11.503906 11.28125 11.621094 10.988281 11.945312 10.71875 C 12.738281 10.070312 13.277344 9.207031 13.777344 8.324219 C 13.914062 8.082031 14.023438 8.027344 14.273438 8.179688 C 15.566406 8.96875 16.769531 9.875 17.929688 10.839844 C 18.214844 11.078125 18.179688 11.464844 18.269531 11.796875 C 18.0625 11.851562 17.957031 11.773438 17.957031 11.558594 Z M 17.957031 11.558594 " fill-opacity="1" fill-rule="nonzero"/><path fill="#fe9881" d="M 12 14.636719 C 11.984375 14.601562 11.96875 14.566406 11.953125 14.53125 C 11.921875 14.453125 11.914062 14.332031 11.789062 14.386719 C 11.683594 14.429688 11.71875 14.535156 11.738281 14.621094 C 11.828125 15.011719 11.765625 15.074219 11.359375 15.117188 C 11.109375 15.140625 10.886719 14.996094 10.640625 15.046875 C 10.03125 14.648438 9.757812 13.902344 9.972656 13.238281 C 10.148438 12.710938 10.65625 12.476562 11.183594 12.652344 C 11.484375 12.753906 11.394531 13.015625 11.464844 13.214844 C 11.339844 13.347656 11.292969 13.546875 11.109375 13.628906 C 11.054688 13.703125 10.960938 13.585938 10.910156 13.671875 C 10.882812 13.765625 10.859375 13.855469 10.785156 13.929688 C 10.679688 14.042969 10.660156 14.167969 10.769531 14.292969 C 10.894531 14.4375 11.007812 14.359375 11.125 14.28125 C 11.226562 14.257812 11.304688 14.167969 11.417969 14.160156 C 11.683594 14.160156 11.917969 14.097656 12.109375 13.882812 C 12.226562 13.742188 12.390625 13.6875 12.539062 13.867188 C 12.546875 13.914062 12.550781 13.976562 12.511719 14.003906 C 12.289062 14.148438 12.160156 14.355469 12.078125 14.601562 C 12.070312 14.625 12.03125 14.632812 12 14.636719 Z M 12 14.636719 " fill-opacity="1" fill-rule="nonzero"/><path fill="#191919" d="M 17.957031 11.558594 C 18.058594 11.636719 18.164062 11.71875 18.269531 11.796875 C 18.339844 11.902344 18.417969 12.007812 18.324219 12.140625 C 17.75 11.972656 17.164062 11.890625 16.5625 11.902344 C 16.375 11.90625 16.183594 11.871094 16.1875 11.628906 C 16.191406 11.382812 16.394531 11.375 16.578125 11.367188 C 17.050781 11.335938 17.5 11.464844 17.957031 11.558594 Z M 17.957031 11.558594 " fill-opacity="1" fill-rule="nonzero"/><g clip-path="url(#60980134b5)"><path fill="#964f4f" d="M 8.59375 27.527344 C 8.582031 27.527344 8.570312 27.527344 8.558594 27.523438 C 8.367188 26.816406 8.429688 26.121094 8.65625 25.429688 C 8.574219 26.128906 8.613281 26.828125 8.59375 27.527344 Z M 8.59375 27.527344 " fill-opacity="1" fill-rule="nonzero"/></g><g clip-path="url(#700ab14214)"><path fill="#964f4f" d="M 21.308594 27.367188 C 21.3125 26.691406 21.269531 26.015625 21.398438 25.285156 L 21.398438 27.371094 Z M 21.308594 27.367188 " fill-opacity="1" fill-rule="nonzero"/></g><path fill="#f7705c" d="M 13.789062 17.789062 C 14.511719 18.15625 15.257812 18.390625 16.082031 18.195312 C 16.503906 18.09375 16.847656 17.832031 17.238281 17.664062 C 17.257812 17.902344 17.335938 18.140625 17.308594 18.382812 C 16.753906 19.175781 16.074219 19.84375 15.214844 20.304688 C 14.660156 20.597656 14.082031 20.816406 13.429688 20.695312 C 13.570312 20.117188 13.582031 19.523438 13.664062 18.9375 C 13.71875 18.558594 13.75 18.171875 13.789062 17.789062 Z M 13.789062 17.789062 " fill-opacity="1" fill-rule="nonzero"/><path fill="#ffffff" d="M 15.421875 15.183594 C 15.71875 15.183594 16.015625 15.183594 16.316406 15.183594 C 16.421875 15.183594 16.503906 15.203125 16.519531 15.335938 C 16.589844 15.917969 16.089844 16.523438 15.507812 16.550781 C 14.792969 16.585938 14.304688 16.105469 14.308594 15.382812 C 14.308594 15.207031 14.402344 15.1875 14.53125 15.1875 C 14.828125 15.1875 15.125 15.1875 15.425781 15.1875 C 15.425781 15.183594 15.425781 15.183594 15.425781 15.183594 Z M 15.421875 15.183594 " fill-opacity="1" fill-rule="nonzero"/><path fill="#f7705c" d="M 17.90625 13.929688 C 18.488281 13.921875 18.6875 14.074219 18.761719 14.523438 C 18.800781 14.746094 18.703125 14.863281 18.527344 14.945312 C 18.1875 15.101562 17.832031 15.097656 17.484375 14.964844 C 17.238281 14.875 17.15625 14.664062 17.199219 14.410156 C 17.242188 14.160156 17.347656 13.953125 17.640625 13.929688 C 17.726562 13.921875 17.816406 13.929688 17.90625 13.929688 Z M 17.90625 13.929688 " fill-opacity="1" fill-rule="nonzero"/><path fill="#f7705c" d="M 12 14.640625 C 11.933594 14.210938 12.195312 14.007812 12.542969 13.867188 C 12.707031 13.867188 12.875 13.859375 13.042969 13.902344 C 13.359375 13.980469 13.523438 14.207031 13.484375 14.53125 C 13.449219 14.839844 13.289062 14.992188 12.945312 14.992188 C 12.589844 14.992188 12.195312 15.082031 12 14.640625 Z M 12 14.640625 " fill-opacity="1" fill-rule="nonzero"/><path fill="#191919" d="M 12.164062 12.289062 C 12.304688 11.957031 12.460938 11.75 12.703125 11.644531 C 13.160156 11.445312 13.648438 11.363281 14.148438 11.378906 C 14.308594 11.382812 14.445312 11.445312 14.441406 11.640625 C 14.441406 11.804688 14.34375 11.898438 14.183594 11.902344 C 13.519531 11.929688 12.863281 11.996094 12.164062 12.289062 Z M 12.164062 12.289062 " fill-opacity="1" fill-rule="nonzero"/><path fill="#191919" d="M 16.71875 13.15625 C 16.710938 12.789062 16.976562 12.550781 17.292969 12.625 C 17.546875 12.683594 17.75 12.851562 17.964844 12.988281 C 18.019531 13.023438 18.042969 13.082031 18.007812 13.140625 C 17.964844 13.214844 17.910156 13.175781 17.855469 13.148438 C 17.8125 13.125 17.773438 13.097656 17.730469 13.070312 C 17.53125 12.949219 17.410156 12.996094 17.367188 13.210938 C 17.328125 13.390625 17.210938 13.496094 17.035156 13.484375 C 16.828125 13.472656 16.734375 13.324219 16.71875 13.15625 Z M 16.71875 13.15625 " fill-opacity="1" fill-rule="nonzero"/><path fill="#191919" d="M 12.972656 12.925781 C 12.847656 13.007812 12.75 13.074219 12.652344 13.136719 C 12.601562 13.167969 12.542969 13.210938 12.5 13.140625 C 12.460938 13.082031 12.484375 13.023438 12.539062 12.984375 C 12.734375 12.835938 12.9375 12.691406 13.179688 12.625 C 13.316406 12.589844 13.480469 12.578125 13.546875 12.730469 C 13.632812 12.9375 13.734375 13.15625 13.550781 13.371094 C 13.449219 13.484375 13.328125 13.53125 13.179688 13.460938 C 12.984375 13.371094 12.949219 13.210938 12.996094 13.015625 C 12.996094 13 12.988281 12.980469 12.976562 12.925781 Z M 12.972656 12.925781 " fill-opacity="1" fill-rule="nonzero"/><path fill="#f7705c" d="M 10.8125 13.628906 C 10.730469 13.546875 10.601562 13.515625 10.566406 13.363281 C 10.8125 13.34375 10.941406 13.527344 11.109375 13.628906 C 11.230469 13.796875 11.34375 13.96875 11.417969 14.160156 C 11.414062 14.324219 11.402344 14.480469 11.171875 14.457031 C 10.808594 14.355469 10.808594 14.351562 10.863281 13.96875 C 10.882812 13.851562 10.886719 13.730469 10.8125 13.628906 Z M 10.8125 13.628906 " fill-opacity="1" fill-rule="nonzero"/><path fill="#f7705c" d="M 15.5 12.839844 C 15.527344 13.382812 15.554688 13.925781 15.582031 14.46875 C 15.582031 14.515625 15.574219 14.574219 15.507812 14.574219 C 15.449219 14.574219 15.421875 14.523438 15.421875 14.472656 C 15.421875 13.929688 15.421875 13.386719 15.421875 12.84375 C 15.449219 12.839844 15.472656 12.839844 15.5 12.839844 Z M 15.5 12.839844 " fill-opacity="1" fill-rule="nonzero"/><path fill="#f7705c" d="M 10.8125 13.628906 C 10.980469 13.773438 11.21875 13.878906 10.980469 14.175781 C 10.890625 14.292969 11.09375 14.367188 11.171875 14.457031 C 11.09375 14.46875 11.015625 14.484375 10.941406 14.5 C 10.777344 14.53125 10.644531 14.480469 10.566406 14.332031 C 10.484375 14.175781 10.480469 14.011719 10.613281 13.871094 C 10.683594 13.792969 10.792969 13.746094 10.8125 13.628906 Z M 10.8125 13.628906 " fill-opacity="1" fill-rule="nonzero"/><path fill="#f7705c" d="M 17.476562 14.371094 C 17.582031 14.136719 17.804688 14.140625 18.011719 14.121094 C 17.839844 14.210938 17.621094 14.21875 17.476562 14.371094 Z M 17.476562 14.371094 " fill-opacity="1" fill-rule="nonzero"/><path fill="#f7705c" d="M 18.375 14.644531 C 18.222656 14.78125 18.046875 14.757812 17.867188 14.714844 C 18.035156 14.691406 18.203125 14.667969 18.375 14.644531 Z M 18.375 14.644531 " fill-opacity="1" fill-rule="nonzero"/><path fill="#f7705c" d="M 13.277344 14.675781 C 12.980469 14.792969 12.753906 14.757812 12.523438 14.695312 C 12.746094 14.628906 12.972656 14.621094 13.277344 14.675781 Z M 13.277344 14.675781 " fill-opacity="1" fill-rule="nonzero"/></svg>