<svg xmlns="http://www.w3.org/2000/svg" xmlns:xlink="http://www.w3.org/1999/xlink" width="212" zoomAndPan="magnify" viewBox="0 0 159 37.5" height="50" preserveAspectRatio="xMidYMid meet" version="1.0"><defs><g/></defs><g fill="#000000" fill-opacity="1"><g transform="translate(82.355343, 20.030545)"><g><path d="M 0.3125 0.015625 C 0.269531 0.015625 0.234375 0.00390625 0.203125 -0.015625 C 0.179688 -0.046875 0.171875 -0.0820312 0.171875 -0.125 C 0.171875 -0.164062 0.179688 -0.195312 0.203125 -0.21875 C 0.234375 -0.25 0.269531 -0.265625 0.3125 -0.265625 C 0.351562 -0.265625 0.382812 -0.25 0.40625 -0.21875 C 0.4375 -0.195312 0.453125 -0.164062 0.453125 -0.125 C 0.453125 -0.0820312 0.4375 -0.046875 0.40625 -0.015625 C 0.382812 0.00390625 0.351562 0.015625 0.3125 0.015625 Z M 0.3125 0.015625 "/></g></g></g><g fill="#000000" fill-opacity="1"><g transform="translate(2.632449, 23.129144)"><g><path d="M 4.90625 -1.5 L 5.75 -1.5 L 5.375 -2.703125 L 2.8125 -2.703125 L 2.4375 -1.5 L 3.3125 -1.5 L 3.3125 0 L 0.15625 0 L 0.15625 -1.5 L 0.765625 -1.5 L 3.046875 -8.34375 L 5.25 -8.34375 L 7.46875 -1.5 L 8.078125 -1.5 L 8.078125 0 L 4.90625 0 Z M 3.234375 -4.109375 L 4.921875 -4.109375 L 4.078125 -6.828125 Z M 3.234375 -4.109375 "/></g></g></g><g fill="#000000" fill-opacity="1"><g transform="translate(10.83286, 23.129144)"><g><path d="M 4.078125 -3.953125 C 4.078125 -4.046875 4.046875 -4.128906 3.984375 -4.203125 C 3.929688 -4.285156 3.847656 -4.359375 3.734375 -4.421875 C 3.628906 -4.484375 3.492188 -4.53125 3.328125 -4.5625 C 3.171875 -4.601562 2.992188 -4.625 2.796875 -4.625 C 2.710938 -4.625 2.628906 -4.613281 2.546875 -4.59375 C 2.460938 -4.582031 2.378906 -4.5625 2.296875 -4.53125 C 2.222656 -4.5 2.160156 -4.453125 2.109375 -4.390625 C 2.066406 -4.335938 2.046875 -4.269531 2.046875 -4.1875 C 2.046875 -4.132812 2.050781 -4.085938 2.0625 -4.046875 C 2.070312 -4.015625 2.09375 -3.976562 2.125 -3.9375 C 2.164062 -3.90625 2.21875 -3.875 2.28125 -3.84375 C 2.34375 -3.8125 2.425781 -3.785156 2.53125 -3.765625 L 3.5625 -3.5625 C 3.9375 -3.488281 4.25 -3.394531 4.5 -3.28125 C 4.757812 -3.175781 4.96875 -3.046875 5.125 -2.890625 C 5.28125 -2.742188 5.390625 -2.582031 5.453125 -2.40625 C 5.523438 -2.226562 5.5625 -2.035156 5.5625 -1.828125 C 5.5625 -1.503906 5.484375 -1.21875 5.328125 -0.96875 C 5.171875 -0.71875 4.96875 -0.507812 4.71875 -0.34375 C 4.476562 -0.1875 4.203125 -0.0664062 3.890625 0.015625 C 3.578125 0.0976562 3.265625 0.140625 2.953125 0.140625 C 2.742188 0.140625 2.554688 0.125 2.390625 0.09375 C 2.222656 0.0703125 2.070312 0.0390625 1.9375 0 C 1.8125 -0.0507812 1.695312 -0.101562 1.59375 -0.15625 C 1.488281 -0.21875 1.390625 -0.285156 1.296875 -0.359375 L 0.296875 -0.359375 L 0.296875 -1.890625 L 1.859375 -1.890625 L 1.859375 -1.859375 C 1.859375 -1.753906 1.890625 -1.660156 1.953125 -1.578125 C 2.015625 -1.503906 2.097656 -1.4375 2.203125 -1.375 C 2.304688 -1.320312 2.421875 -1.28125 2.546875 -1.25 C 2.671875 -1.226562 2.804688 -1.21875 2.953125 -1.21875 C 3.285156 -1.21875 3.523438 -1.257812 3.671875 -1.34375 C 3.828125 -1.425781 3.90625 -1.535156 3.90625 -1.671875 C 3.90625 -1.785156 3.867188 -1.878906 3.796875 -1.953125 C 3.722656 -2.023438 3.59375 -2.082031 3.40625 -2.125 L 2.34375 -2.359375 C 1.675781 -2.484375 1.171875 -2.691406 0.828125 -2.984375 C 0.492188 -3.285156 0.328125 -3.671875 0.328125 -4.140625 C 0.328125 -4.421875 0.390625 -4.671875 0.515625 -4.890625 C 0.648438 -5.117188 0.828125 -5.3125 1.046875 -5.46875 C 1.265625 -5.632812 1.519531 -5.757812 1.8125 -5.84375 C 2.113281 -5.9375 2.429688 -5.984375 2.765625 -5.984375 C 3.003906 -5.984375 3.210938 -5.96875 3.390625 -5.9375 C 3.566406 -5.90625 3.726562 -5.867188 3.875 -5.828125 C 4.019531 -5.785156 4.144531 -5.734375 4.25 -5.671875 C 4.351562 -5.609375 4.445312 -5.546875 4.53125 -5.484375 L 5.5 -5.484375 L 5.5 -3.953125 Z M 4.078125 -3.953125 "/></g></g></g><g fill="#000000" fill-opacity="1"><g transform="translate(16.893794, 23.129144)"><g><path d="M 4.078125 -3.953125 C 4.078125 -4.046875 4.046875 -4.128906 3.984375 -4.203125 C 3.929688 -4.285156 3.847656 -4.359375 3.734375 -4.421875 C 3.628906 -4.484375 3.492188 -4.53125 3.328125 -4.5625 C 3.171875 -4.601562 2.992188 -4.625 2.796875 -4.625 C 2.710938 -4.625 2.628906 -4.613281 2.546875 -4.59375 C 2.460938 -4.582031 2.378906 -4.5625 2.296875 -4.53125 C 2.222656 -4.5 2.160156 -4.453125 2.109375 -4.390625 C 2.066406 -4.335938 2.046875 -4.269531 2.046875 -4.1875 C 2.046875 -4.132812 2.050781 -4.085938 2.0625 -4.046875 C 2.070312 -4.015625 2.09375 -3.976562 2.125 -3.9375 C 2.164062 -3.90625 2.21875 -3.875 2.28125 -3.84375 C 2.34375 -3.8125 2.425781 -3.785156 2.53125 -3.765625 L 3.5625 -3.5625 C 3.9375 -3.488281 4.25 -3.394531 4.5 -3.28125 C 4.757812 -3.175781 4.96875 -3.046875 5.125 -2.890625 C 5.28125 -2.742188 5.390625 -2.582031 5.453125 -2.40625 C 5.523438 -2.226562 5.5625 -2.035156 5.5625 -1.828125 C 5.5625 -1.503906 5.484375 -1.21875 5.328125 -0.96875 C 5.171875 -0.71875 4.96875 -0.507812 4.71875 -0.34375 C 4.476562 -0.1875 4.203125 -0.0664062 3.890625 0.015625 C 3.578125 0.0976562 3.265625 0.140625 2.953125 0.140625 C 2.742188 0.140625 2.554688 0.125 2.390625 0.09375 C 2.222656 0.0703125 2.070312 0.0390625 1.9375 0 C 1.8125 -0.0507812 1.695312 -0.101562 1.59375 -0.15625 C 1.488281 -0.21875 1.390625 -0.285156 1.296875 -0.359375 L 0.296875 -0.359375 L 0.296875 -1.890625 L 1.859375 -1.890625 L 1.859375 -1.859375 C 1.859375 -1.753906 1.890625 -1.660156 1.953125 -1.578125 C 2.015625 -1.503906 2.097656 -1.4375 2.203125 -1.375 C 2.304688 -1.320312 2.421875 -1.28125 2.546875 -1.25 C 2.671875 -1.226562 2.804688 -1.21875 2.953125 -1.21875 C 3.285156 -1.21875 3.523438 -1.257812 3.671875 -1.34375 C 3.828125 -1.425781 3.90625 -1.535156 3.90625 -1.671875 C 3.90625 -1.785156 3.867188 -1.878906 3.796875 -1.953125 C 3.722656 -2.023438 3.59375 -2.082031 3.40625 -2.125 L 2.34375 -2.359375 C 1.675781 -2.484375 1.171875 -2.691406 0.828125 -2.984375 C 0.492188 -3.285156 0.328125 -3.671875 0.328125 -4.140625 C 0.328125 -4.421875 0.390625 -4.671875 0.515625 -4.890625 C 0.648438 -5.117188 0.828125 -5.3125 1.046875 -5.46875 C 1.265625 -5.632812 1.519531 -5.757812 1.8125 -5.84375 C 2.113281 -5.9375 2.429688 -5.984375 2.765625 -5.984375 C 3.003906 -5.984375 3.210938 -5.96875 3.390625 -5.9375 C 3.566406 -5.90625 3.726562 -5.867188 3.875 -5.828125 C 4.019531 -5.785156 4.144531 -5.734375 4.25 -5.671875 C 4.351562 -5.609375 4.445312 -5.546875 4.53125 -5.484375 L 5.5 -5.484375 L 5.5 -3.953125 Z M 4.078125 -3.953125 "/></g></g></g><g fill="#000000" fill-opacity="1"><g transform="translate(22.954728, 23.129144)"><g><path d="M 3.984375 -5.703125 L 6.671875 -5.703125 L 6.671875 -1.5 L 7.359375 -1.5 L 7.359375 0 L 4.9375 0 L 4.9375 -0.484375 C 4.75 -0.304688 4.523438 -0.171875 4.265625 -0.078125 C 4.003906 0.015625 3.703125 0.0625 3.359375 0.0625 C 3.046875 0.0625 2.75 0.015625 2.46875 -0.078125 C 2.1875 -0.179688 1.941406 -0.332031 1.734375 -0.53125 C 1.535156 -0.726562 1.375 -0.976562 1.25 -1.28125 C 1.132812 -1.582031 1.078125 -1.9375 1.078125 -2.34375 L 1.078125 -4.1875 L 0.328125 -4.1875 L 0.328125 -5.703125 L 2.84375 -5.703125 L 2.84375 -2.34375 C 2.84375 -1.957031 2.941406 -1.671875 3.140625 -1.484375 C 3.335938 -1.296875 3.59375 -1.203125 3.90625 -1.203125 C 4.125 -1.203125 4.320312 -1.269531 4.5 -1.40625 C 4.675781 -1.539062 4.804688 -1.722656 4.890625 -1.953125 L 4.890625 -4.1875 L 3.984375 -4.1875 Z M 3.984375 -5.703125 "/></g></g></g><g fill="#000000" fill-opacity="1"><g transform="translate(30.709643, 23.129144)"><g><path d="M 5.609375 -3.625 L 4.0625 -3.625 L 4.0625 -4.21875 C 3.914062 -4.21875 3.78125 -4.207031 3.65625 -4.1875 C 3.53125 -4.164062 3.421875 -4.128906 3.328125 -4.078125 C 3.234375 -4.035156 3.15625 -3.96875 3.09375 -3.875 C 3.03125 -3.789062 2.984375 -3.6875 2.953125 -3.5625 L 2.953125 -1.5 L 4.109375 -1.5 L 4.109375 0 L 0.390625 0 L 0.390625 -1.5 L 1.25 -1.5 L 1.25 -4.1875 L 0.40625 -4.1875 L 0.40625 -5.703125 L 2.9375 -5.703125 L 2.9375 -5.296875 C 3.101562 -5.421875 3.285156 -5.519531 3.484375 -5.59375 C 3.691406 -5.664062 3.910156 -5.703125 4.140625 -5.703125 C 4.390625 -5.703125 4.640625 -5.695312 4.890625 -5.6875 C 5.148438 -5.6875 5.390625 -5.6875 5.609375 -5.6875 Z M 5.609375 -3.625 "/></g></g></g><g fill="#000000" fill-opacity="1"><g transform="translate(36.814576, 23.129144)"><g><path d="M 3.9375 -0.3125 C 3.8125 -0.226562 3.695312 -0.15625 3.59375 -0.09375 C 3.488281 -0.0390625 3.378906 0 3.265625 0.03125 C 3.160156 0.0703125 3.050781 0.0976562 2.9375 0.109375 C 2.820312 0.128906 2.695312 0.140625 2.5625 0.140625 C 2.226562 0.140625 1.925781 0.09375 1.65625 0 C 1.382812 -0.09375 1.15625 -0.21875 0.96875 -0.375 C 0.78125 -0.539062 0.632812 -0.734375 0.53125 -0.953125 C 0.4375 -1.179688 0.390625 -1.425781 0.390625 -1.6875 C 0.390625 -1.945312 0.441406 -2.1875 0.546875 -2.40625 C 0.648438 -2.632812 0.796875 -2.828125 0.984375 -2.984375 C 1.171875 -3.148438 1.398438 -3.273438 1.671875 -3.359375 C 1.953125 -3.453125 2.273438 -3.5 2.640625 -3.5 C 2.898438 -3.5 3.132812 -3.484375 3.34375 -3.453125 C 3.5625 -3.429688 3.757812 -3.398438 3.9375 -3.359375 L 3.9375 -3.53125 C 3.9375 -3.675781 3.910156 -3.800781 3.859375 -3.90625 C 3.804688 -4.007812 3.726562 -4.09375 3.625 -4.15625 C 3.53125 -4.226562 3.410156 -4.28125 3.265625 -4.3125 C 3.128906 -4.34375 2.976562 -4.359375 2.8125 -4.359375 C 2.46875 -4.359375 2.164062 -4.320312 1.90625 -4.25 C 1.644531 -4.1875 1.394531 -4.09375 1.15625 -3.96875 L 0.625 -5.03125 C 1 -5.289062 1.390625 -5.488281 1.796875 -5.625 C 2.203125 -5.757812 2.632812 -5.828125 3.09375 -5.828125 C 3.445312 -5.828125 3.773438 -5.785156 4.078125 -5.703125 C 4.378906 -5.628906 4.640625 -5.503906 4.859375 -5.328125 C 5.078125 -5.148438 5.25 -4.914062 5.375 -4.625 C 5.5 -4.34375 5.5625 -3.992188 5.5625 -3.578125 L 5.5625 -1.5 L 6.328125 -1.5 L 6.328125 0 L 3.9375 0 Z M 2.6875 -1.15625 C 2.945312 -1.15625 3.179688 -1.195312 3.390625 -1.28125 C 3.609375 -1.363281 3.789062 -1.46875 3.9375 -1.59375 L 3.9375 -2.328125 L 2.625 -2.328125 C 2.539062 -2.328125 2.457031 -2.3125 2.375 -2.28125 C 2.289062 -2.257812 2.21875 -2.222656 2.15625 -2.171875 C 2.09375 -2.117188 2.039062 -2.054688 2 -1.984375 C 1.96875 -1.921875 1.953125 -1.84375 1.953125 -1.75 C 1.953125 -1.582031 2.007812 -1.441406 2.125 -1.328125 C 2.25 -1.210938 2.4375 -1.15625 2.6875 -1.15625 Z M 2.6875 -1.15625 "/></g></g></g><g fill="#000000" fill-opacity="1"><g transform="translate(43.854499, 23.129144)"><g><path d="M 5.125 -3.28125 C 5.125 -3.59375 5.039062 -3.835938 4.875 -4.015625 C 4.707031 -4.203125 4.484375 -4.296875 4.203125 -4.296875 C 4.015625 -4.296875 3.820312 -4.253906 3.625 -4.171875 C 3.425781 -4.085938 3.238281 -3.929688 3.0625 -3.703125 L 3.0625 -1.5 L 3.984375 -1.5 L 3.984375 0 L 0.4375 0 L 0.4375 -1.5 L 1.28125 -1.5 L 1.28125 -4.1875 L 0.453125 -4.1875 L 0.453125 -5.703125 L 3.046875 -5.703125 L 3.046875 -5.203125 C 3.285156 -5.390625 3.550781 -5.535156 3.84375 -5.640625 C 4.144531 -5.742188 4.457031 -5.796875 4.78125 -5.796875 C 5.46875 -5.796875 5.992188 -5.601562 6.359375 -5.21875 C 6.734375 -4.84375 6.921875 -4.285156 6.921875 -3.546875 L 6.921875 -1.5 L 7.734375 -1.5 L 7.734375 0 L 5.125 0 Z M 5.125 -3.28125 "/></g></g></g><g fill="#000000" fill-opacity="1"><g transform="translate(51.884412, 23.129144)"><g><path d="M 4.703125 -3.734375 C 4.546875 -3.929688 4.367188 -4.078125 4.171875 -4.171875 C 3.984375 -4.273438 3.757812 -4.320312 3.5 -4.3125 C 3.28125 -4.320312 3.082031 -4.289062 2.90625 -4.21875 C 2.738281 -4.144531 2.585938 -4.039062 2.453125 -3.90625 C 2.328125 -3.78125 2.226562 -3.625 2.15625 -3.4375 C 2.09375 -3.257812 2.0625 -3.054688 2.0625 -2.828125 C 2.0625 -2.628906 2.097656 -2.4375 2.171875 -2.25 C 2.242188 -2.070312 2.34375 -1.914062 2.46875 -1.78125 C 2.59375 -1.65625 2.742188 -1.554688 2.921875 -1.484375 C 3.097656 -1.410156 3.289062 -1.367188 3.5 -1.359375 C 3.664062 -1.367188 3.816406 -1.398438 3.953125 -1.453125 C 4.097656 -1.515625 4.222656 -1.585938 4.328125 -1.671875 C 4.441406 -1.765625 4.535156 -1.867188 4.609375 -1.984375 C 4.691406 -2.097656 4.757812 -2.203125 4.8125 -2.296875 L 6.328125 -1.875 C 6.265625 -1.65625 6.15625 -1.425781 6 -1.1875 C 5.84375 -0.957031 5.640625 -0.742188 5.390625 -0.546875 C 5.148438 -0.347656 4.863281 -0.179688 4.53125 -0.046875 C 4.195312 0.078125 3.816406 0.140625 3.390625 0.140625 C 2.953125 0.140625 2.550781 0.0625 2.1875 -0.09375 C 1.820312 -0.257812 1.503906 -0.476562 1.234375 -0.75 C 0.972656 -1.03125 0.765625 -1.351562 0.609375 -1.71875 C 0.460938 -2.09375 0.390625 -2.492188 0.390625 -2.921875 C 0.390625 -3.335938 0.46875 -3.722656 0.625 -4.078125 C 0.78125 -4.441406 0.988281 -4.757812 1.25 -5.03125 C 1.519531 -5.300781 1.835938 -5.507812 2.203125 -5.65625 C 2.578125 -5.8125 2.976562 -5.882812 3.40625 -5.875 C 3.71875 -5.882812 4.015625 -5.847656 4.296875 -5.765625 C 4.585938 -5.679688 4.863281 -5.554688 5.125 -5.390625 L 6.234375 -5.390625 L 6.234375 -3.734375 Z M 4.703125 -3.734375 "/></g></g></g><g fill="#000000" fill-opacity="1"><g transform="translate(58.374341, 23.129144)"><g><path d="M 1.921875 -2.484375 L 1.9375 -2.328125 C 1.976562 -2.160156 2.046875 -2.015625 2.140625 -1.890625 C 2.234375 -1.765625 2.347656 -1.660156 2.484375 -1.578125 C 2.617188 -1.492188 2.765625 -1.425781 2.921875 -1.375 C 3.085938 -1.332031 3.253906 -1.3125 3.421875 -1.3125 C 3.578125 -1.3125 3.726562 -1.320312 3.875 -1.34375 C 4.03125 -1.363281 4.175781 -1.390625 4.3125 -1.421875 C 4.457031 -1.460938 4.59375 -1.503906 4.71875 -1.546875 C 4.851562 -1.597656 4.988281 -1.648438 5.125 -1.703125 L 5.734375 -0.578125 C 5.523438 -0.441406 5.332031 -0.328125 5.15625 -0.234375 C 4.976562 -0.148438 4.800781 -0.078125 4.625 -0.015625 C 4.457031 0.0351562 4.273438 0.078125 4.078125 0.109375 C 3.878906 0.140625 3.644531 0.15625 3.375 0.15625 C 2.882812 0.15625 2.445312 0.0703125 2.0625 -0.09375 C 1.675781 -0.257812 1.347656 -0.476562 1.078125 -0.75 C 0.816406 -1.03125 0.617188 -1.359375 0.484375 -1.734375 C 0.347656 -2.109375 0.28125 -2.503906 0.28125 -2.921875 C 0.28125 -3.335938 0.351562 -3.726562 0.5 -4.09375 C 0.644531 -4.46875 0.847656 -4.789062 1.109375 -5.0625 C 1.367188 -5.332031 1.679688 -5.546875 2.046875 -5.703125 C 2.421875 -5.867188 2.832031 -5.953125 3.28125 -5.953125 C 3.726562 -5.953125 4.125 -5.875 4.46875 -5.71875 C 4.8125 -5.570312 5.101562 -5.367188 5.34375 -5.109375 C 5.582031 -4.847656 5.765625 -4.539062 5.890625 -4.1875 C 6.023438 -3.832031 6.097656 -3.453125 6.109375 -3.046875 C 6.117188 -2.953125 6.125 -2.859375 6.125 -2.765625 C 6.125 -2.679688 6.117188 -2.585938 6.109375 -2.484375 Z M 3.234375 -4.578125 C 3.023438 -4.578125 2.847656 -4.550781 2.703125 -4.5 C 2.554688 -4.445312 2.429688 -4.378906 2.328125 -4.296875 C 2.234375 -4.210938 2.15625 -4.113281 2.09375 -4 C 2.039062 -3.882812 2 -3.769531 1.96875 -3.65625 L 4.34375 -3.65625 C 4.320312 -3.78125 4.285156 -3.894531 4.234375 -4 C 4.191406 -4.113281 4.128906 -4.210938 4.046875 -4.296875 C 3.960938 -4.378906 3.851562 -4.445312 3.71875 -4.5 C 3.59375 -4.550781 3.429688 -4.578125 3.234375 -4.578125 Z M 3.234375 -4.578125 "/></g></g></g><g fill="#000000" fill-opacity="1"><g transform="translate(64.89727, 23.129144)"><g/></g></g><g fill="#000000" fill-opacity="1"><g transform="translate(67.152245, 23.129144)"><g><path d="M 0.625 -8.34375 L 7.078125 -8.34375 L 7.078125 -5.5 L 5.28125 -5.5 L 5.28125 -6.671875 L 3.3125 -6.671875 L 3.3125 -4.90625 L 5.015625 -4.90625 L 5.015625 -3.3125 L 3.3125 -3.3125 L 3.3125 -1.5 L 4.1875 -1.5 L 4.1875 0 L 0.625 0 L 0.625 -1.5 L 1.484375 -1.5 L 1.484375 -6.671875 L 0.625 -6.671875 Z M 0.625 -8.34375 "/></g></g></g><g fill="#000000" fill-opacity="1"><g transform="translate(74.225168, 23.129144)"><g><path d="M 5.609375 -3.625 L 4.0625 -3.625 L 4.0625 -4.21875 C 3.914062 -4.21875 3.78125 -4.207031 3.65625 -4.1875 C 3.53125 -4.164062 3.421875 -4.128906 3.328125 -4.078125 C 3.234375 -4.035156 3.15625 -3.96875 3.09375 -3.875 C 3.03125 -3.789062 2.984375 -3.6875 2.953125 -3.5625 L 2.953125 -1.5 L 4.109375 -1.5 L 4.109375 0 L 0.390625 0 L 0.390625 -1.5 L 1.25 -1.5 L 1.25 -4.1875 L 0.40625 -4.1875 L 0.40625 -5.703125 L 2.9375 -5.703125 L 2.9375 -5.296875 C 3.101562 -5.421875 3.285156 -5.519531 3.484375 -5.59375 C 3.691406 -5.664062 3.910156 -5.703125 4.140625 -5.703125 C 4.390625 -5.703125 4.640625 -5.695312 4.890625 -5.6875 C 5.148438 -5.6875 5.390625 -5.6875 5.609375 -5.6875 Z M 5.609375 -3.625 "/></g></g></g><g fill="#000000" fill-opacity="1"><g transform="translate(80.330101, 23.129144)"><g><path d="M 1.921875 -2.484375 L 1.9375 -2.328125 C 1.976562 -2.160156 2.046875 -2.015625 2.140625 -1.890625 C 2.234375 -1.765625 2.347656 -1.660156 2.484375 -1.578125 C 2.617188 -1.492188 2.765625 -1.425781 2.921875 -1.375 C 3.085938 -1.332031 3.253906 -1.3125 3.421875 -1.3125 C 3.578125 -1.3125 3.726562 -1.320312 3.875 -1.34375 C 4.03125 -1.363281 4.175781 -1.390625 4.3125 -1.421875 C 4.457031 -1.460938 4.59375 -1.503906 4.71875 -1.546875 C 4.851562 -1.597656 4.988281 -1.648438 5.125 -1.703125 L 5.734375 -0.578125 C 5.523438 -0.441406 5.332031 -0.328125 5.15625 -0.234375 C 4.976562 -0.148438 4.800781 -0.078125 4.625 -0.015625 C 4.457031 0.0351562 4.273438 0.078125 4.078125 0.109375 C 3.878906 0.140625 3.644531 0.15625 3.375 0.15625 C 2.882812 0.15625 2.445312 0.0703125 2.0625 -0.09375 C 1.675781 -0.257812 1.347656 -0.476562 1.078125 -0.75 C 0.816406 -1.03125 0.617188 -1.359375 0.484375 -1.734375 C 0.347656 -2.109375 0.28125 -2.503906 0.28125 -2.921875 C 0.28125 -3.335938 0.351562 -3.726562 0.5 -4.09375 C 0.644531 -4.46875 0.847656 -4.789062 1.109375 -5.0625 C 1.367188 -5.332031 1.679688 -5.546875 2.046875 -5.703125 C 2.421875 -5.867188 2.832031 -5.953125 3.28125 -5.953125 C 3.726562 -5.953125 4.125 -5.875 4.46875 -5.71875 C 4.8125 -5.570312 5.101562 -5.367188 5.34375 -5.109375 C 5.582031 -4.847656 5.765625 -4.539062 5.890625 -4.1875 C 6.023438 -3.832031 6.097656 -3.453125 6.109375 -3.046875 C 6.117188 -2.953125 6.125 -2.859375 6.125 -2.765625 C 6.125 -2.679688 6.117188 -2.585938 6.109375 -2.484375 Z M 3.234375 -4.578125 C 3.023438 -4.578125 2.847656 -4.550781 2.703125 -4.5 C 2.554688 -4.445312 2.429688 -4.378906 2.328125 -4.296875 C 2.234375 -4.210938 2.15625 -4.113281 2.09375 -4 C 2.039062 -3.882812 2 -3.769531 1.96875 -3.65625 L 4.34375 -3.65625 C 4.320312 -3.78125 4.285156 -3.894531 4.234375 -4 C 4.191406 -4.113281 4.128906 -4.210938 4.046875 -4.296875 C 3.960938 -4.378906 3.851562 -4.445312 3.71875 -4.5 C 3.59375 -4.550781 3.429688 -4.578125 3.234375 -4.578125 Z M 3.234375 -4.578125 "/></g></g></g><g fill="#000000" fill-opacity="1"><g transform="translate(86.85303, 23.129144)"><g><path d="M 0.4375 -5.703125 L 3 -5.703125 L 3 -1.5 L 3.796875 -1.5 L 3.796875 0 L 0.4375 0 L 0.4375 -1.5 L 1.296875 -1.5 L 1.296875 -4.1875 L 0.4375 -4.1875 Z M 1.203125 -7.53125 C 1.203125 -7.664062 1.226562 -7.789062 1.28125 -7.90625 C 1.332031 -8.03125 1.398438 -8.132812 1.484375 -8.21875 C 1.578125 -8.3125 1.679688 -8.382812 1.796875 -8.4375 C 1.921875 -8.488281 2.050781 -8.515625 2.1875 -8.515625 C 2.320312 -8.515625 2.445312 -8.488281 2.5625 -8.4375 C 2.675781 -8.382812 2.773438 -8.3125 2.859375 -8.21875 C 2.953125 -8.132812 3.023438 -8.03125 3.078125 -7.90625 C 3.128906 -7.789062 3.15625 -7.664062 3.15625 -7.53125 C 3.15625 -7.394531 3.128906 -7.265625 3.078125 -7.140625 C 3.023438 -7.023438 2.953125 -6.925781 2.859375 -6.84375 C 2.773438 -6.757812 2.675781 -6.691406 2.5625 -6.640625 C 2.445312 -6.585938 2.320312 -6.5625 2.1875 -6.5625 C 2.050781 -6.5625 1.921875 -6.585938 1.796875 -6.640625 C 1.679688 -6.691406 1.578125 -6.757812 1.484375 -6.84375 C 1.398438 -6.925781 1.332031 -7.023438 1.28125 -7.140625 C 1.226562 -7.265625 1.203125 -7.394531 1.203125 -7.53125 Z M 1.203125 -7.53125 "/></g></g></g><g fill="#000000" fill-opacity="1"><g transform="translate(91.197982, 23.129144)"><g><path d="M 4.671875 -0.296875 C 4.460938 -0.179688 4.253906 -0.0976562 4.046875 -0.046875 C 3.847656 0.00390625 3.640625 0.03125 3.421875 0.03125 C 2.984375 0.03125 2.578125 -0.0390625 2.203125 -0.1875 C 1.835938 -0.34375 1.519531 -0.550781 1.25 -0.8125 C 0.976562 -1.082031 0.765625 -1.398438 0.609375 -1.765625 C 0.460938 -2.128906 0.390625 -2.519531 0.390625 -2.9375 C 0.390625 -3.34375 0.460938 -3.722656 0.609375 -4.078125 C 0.753906 -4.429688 0.957031 -4.738281 1.21875 -5 C 1.476562 -5.269531 1.789062 -5.476562 2.15625 -5.625 C 2.519531 -5.78125 2.914062 -5.863281 3.34375 -5.875 C 3.601562 -5.863281 3.84375 -5.832031 4.0625 -5.78125 C 4.28125 -5.726562 4.484375 -5.660156 4.671875 -5.578125 L 4.671875 -5.703125 L 6.34375 -5.703125 L 6.34375 -0.234375 C 6.34375 0.242188 6.257812 0.65625 6.09375 1 C 5.925781 1.351562 5.703125 1.644531 5.421875 1.875 C 5.148438 2.101562 4.828125 2.273438 4.453125 2.390625 C 4.085938 2.503906 3.707031 2.5625 3.3125 2.5625 C 2.8125 2.5625 2.347656 2.492188 1.921875 2.359375 C 1.492188 2.222656 1.117188 2.035156 0.796875 1.796875 L 1.484375 0.578125 C 1.734375 0.742188 2.003906 0.875 2.296875 0.96875 C 2.597656 1.0625 2.929688 1.109375 3.296875 1.109375 C 3.492188 1.109375 3.675781 1.082031 3.84375 1.03125 C 4.007812 0.988281 4.15625 0.914062 4.28125 0.8125 C 4.40625 0.707031 4.5 0.566406 4.5625 0.390625 C 4.632812 0.210938 4.671875 -0.00390625 4.671875 -0.265625 Z M 3.484375 -1.484375 C 3.734375 -1.484375 3.960938 -1.546875 4.171875 -1.671875 C 4.378906 -1.804688 4.546875 -1.984375 4.671875 -2.203125 L 4.6875 -3.59375 C 4.5625 -3.820312 4.390625 -4.003906 4.171875 -4.140625 C 3.953125 -4.273438 3.71875 -4.34375 3.46875 -4.34375 C 3.289062 -4.34375 3.113281 -4.304688 2.9375 -4.234375 C 2.757812 -4.171875 2.609375 -4.078125 2.484375 -3.953125 C 2.359375 -3.828125 2.257812 -3.675781 2.1875 -3.5 C 2.113281 -3.332031 2.078125 -3.144531 2.078125 -2.9375 C 2.078125 -2.71875 2.113281 -2.515625 2.1875 -2.328125 C 2.257812 -2.148438 2.359375 -2 2.484375 -1.875 C 2.609375 -1.75 2.753906 -1.648438 2.921875 -1.578125 C 3.097656 -1.515625 3.285156 -1.484375 3.484375 -1.484375 Z M 3.484375 -1.484375 "/></g></g></g><g fill="#000000" fill-opacity="1"><g transform="translate(98.320405, 23.129144)"><g><path d="M 0.3125 -8.5625 L 2.875 -8.5625 L 2.875 -5.171875 C 3.09375 -5.367188 3.332031 -5.519531 3.59375 -5.625 C 3.851562 -5.738281 4.140625 -5.796875 4.453125 -5.796875 C 5.140625 -5.796875 5.660156 -5.601562 6.015625 -5.21875 C 6.378906 -4.84375 6.5625 -4.285156 6.5625 -3.546875 L 6.5625 -1.5 L 7.40625 -1.5 L 7.40625 0 L 4.859375 0 L 4.859375 -3.15625 C 4.859375 -3.476562 4.78125 -3.726562 4.625 -3.90625 C 4.46875 -4.09375 4.265625 -4.1875 4.015625 -4.1875 C 3.847656 -4.1875 3.664062 -4.140625 3.46875 -4.046875 C 3.269531 -3.960938 3.070312 -3.832031 2.875 -3.65625 L 2.875 -1.5 L 3.71875 -1.5 L 3.71875 0 L 0.3125 0 L 0.3125 -1.5 L 1.1875 -1.5 L 1.1875 -7.046875 L 0.3125 -7.046875 Z M 0.3125 -8.5625 "/></g></g></g><g fill="#000000" fill-opacity="1"><g transform="translate(105.943321, 23.129144)"><g><path d="M 2.59375 -5.703125 L 3.734375 -5.703125 L 3.734375 -4.25 L 2.578125 -4.25 L 2.5625 -1.84375 C 2.5625 -1.707031 2.570312 -1.59375 2.59375 -1.5 C 2.625 -1.414062 2.660156 -1.347656 2.703125 -1.296875 C 2.742188 -1.253906 2.789062 -1.222656 2.84375 -1.203125 C 2.90625 -1.179688 2.972656 -1.171875 3.046875 -1.171875 C 3.191406 -1.171875 3.316406 -1.179688 3.421875 -1.203125 C 3.523438 -1.234375 3.628906 -1.269531 3.734375 -1.3125 L 3.984375 -0.25 C 3.796875 -0.132812 3.585938 -0.0390625 3.359375 0.03125 C 3.128906 0.101562 2.851562 0.140625 2.53125 0.140625 C 2.3125 0.140625 2.097656 0.0976562 1.890625 0.015625 C 1.691406 -0.0546875 1.515625 -0.171875 1.359375 -0.328125 C 1.203125 -0.484375 1.078125 -0.675781 0.984375 -0.90625 C 0.898438 -1.144531 0.859375 -1.421875 0.859375 -1.734375 L 0.875 -4.25 L 0.0625 -4.25 L 0.0625 -5.703125 L 0.875 -5.703125 L 0.890625 -7.0625 L 2.609375 -7.875 Z M 2.59375 -5.703125 "/></g></g></g><g fill="#000000" fill-opacity="1"><g transform="translate(110.343273, 23.129144)"><g/></g></g><g fill="#000000" fill-opacity="1"><g transform="translate(112.598249, 23.129144)"><g><path d="M 4.625 -5.984375 C 4.613281 -6.117188 4.570312 -6.242188 4.5 -6.359375 C 4.425781 -6.472656 4.332031 -6.566406 4.21875 -6.640625 C 4.101562 -6.722656 3.972656 -6.789062 3.828125 -6.84375 C 3.691406 -6.894531 3.550781 -6.921875 3.40625 -6.921875 C 3.257812 -6.921875 3.125 -6.90625 3 -6.875 C 2.882812 -6.84375 2.78125 -6.796875 2.6875 -6.734375 C 2.601562 -6.671875 2.53125 -6.59375 2.46875 -6.5 C 2.414062 -6.40625 2.390625 -6.289062 2.390625 -6.15625 C 2.390625 -5.988281 2.425781 -5.859375 2.5 -5.765625 C 2.570312 -5.671875 2.664062 -5.59375 2.78125 -5.53125 C 2.894531 -5.46875 3.019531 -5.414062 3.15625 -5.375 C 3.289062 -5.34375 3.421875 -5.304688 3.546875 -5.265625 L 5.0625 -4.75 C 5.269531 -4.675781 5.460938 -4.570312 5.640625 -4.4375 C 5.828125 -4.3125 5.988281 -4.15625 6.125 -3.96875 C 6.257812 -3.789062 6.363281 -3.582031 6.4375 -3.34375 C 6.519531 -3.113281 6.5625 -2.847656 6.5625 -2.546875 C 6.5625 -2.140625 6.484375 -1.769531 6.328125 -1.4375 C 6.179688 -1.101562 5.972656 -0.816406 5.703125 -0.578125 C 5.441406 -0.335938 5.125 -0.148438 4.75 -0.015625 C 4.375 0.109375 3.957031 0.171875 3.5 0.171875 C 3.1875 0.171875 2.882812 0.132812 2.59375 0.0625 C 2.3125 -0.0078125 2.050781 -0.113281 1.8125 -0.25 C 1.582031 -0.382812 1.378906 -0.546875 1.203125 -0.734375 C 1.023438 -0.921875 0.890625 -1.132812 0.796875 -1.375 L 0.21875 -1.375 L 0.21875 -3.03125 L 2.21875 -3.03125 L 2.21875 -2.6875 C 2.21875 -2.519531 2.242188 -2.367188 2.296875 -2.234375 C 2.347656 -2.097656 2.425781 -1.976562 2.53125 -1.875 C 2.644531 -1.769531 2.78125 -1.6875 2.9375 -1.625 C 3.09375 -1.570312 3.28125 -1.546875 3.5 -1.546875 C 3.832031 -1.546875 4.082031 -1.617188 4.25 -1.765625 C 4.425781 -1.921875 4.515625 -2.132812 4.515625 -2.40625 C 4.515625 -2.550781 4.484375 -2.671875 4.421875 -2.765625 C 4.359375 -2.859375 4.28125 -2.9375 4.1875 -3 C 4.09375 -3.0625 3.988281 -3.113281 3.875 -3.15625 C 3.757812 -3.195312 3.644531 -3.238281 3.53125 -3.28125 L 2.265625 -3.6875 C 2.023438 -3.757812 1.796875 -3.859375 1.578125 -3.984375 C 1.359375 -4.117188 1.160156 -4.285156 0.984375 -4.484375 C 0.816406 -4.679688 0.679688 -4.910156 0.578125 -5.171875 C 0.472656 -5.441406 0.421875 -5.75 0.421875 -6.09375 C 0.421875 -6.488281 0.492188 -6.84375 0.640625 -7.15625 C 0.796875 -7.46875 1.003906 -7.726562 1.265625 -7.9375 C 1.523438 -8.144531 1.835938 -8.304688 2.203125 -8.421875 C 2.566406 -8.535156 2.96875 -8.59375 3.40625 -8.59375 C 3.738281 -8.59375 4.050781 -8.550781 4.34375 -8.46875 C 4.632812 -8.382812 4.894531 -8.273438 5.125 -8.140625 C 5.351562 -8.015625 5.546875 -7.863281 5.703125 -7.6875 C 5.867188 -7.519531 5.992188 -7.347656 6.078125 -7.171875 L 6.625 -7.171875 L 6.625 -5.5 L 4.625 -5.5 Z M 4.625 -5.984375 "/></g></g></g><g fill="#000000" fill-opacity="1"><g transform="translate(119.445674, 23.129144)"><g><path d="M 1.921875 -2.484375 L 1.9375 -2.328125 C 1.976562 -2.160156 2.046875 -2.015625 2.140625 -1.890625 C 2.234375 -1.765625 2.347656 -1.660156 2.484375 -1.578125 C 2.617188 -1.492188 2.765625 -1.425781 2.921875 -1.375 C 3.085938 -1.332031 3.253906 -1.3125 3.421875 -1.3125 C 3.578125 -1.3125 3.726562 -1.320312 3.875 -1.34375 C 4.03125 -1.363281 4.175781 -1.390625 4.3125 -1.421875 C 4.457031 -1.460938 4.59375 -1.503906 4.71875 -1.546875 C 4.851562 -1.597656 4.988281 -1.648438 5.125 -1.703125 L 5.734375 -0.578125 C 5.523438 -0.441406 5.332031 -0.328125 5.15625 -0.234375 C 4.976562 -0.148438 4.800781 -0.078125 4.625 -0.015625 C 4.457031 0.0351562 4.273438 0.078125 4.078125 0.109375 C 3.878906 0.140625 3.644531 0.15625 3.375 0.15625 C 2.882812 0.15625 2.445312 0.0703125 2.0625 -0.09375 C 1.675781 -0.257812 1.347656 -0.476562 1.078125 -0.75 C 0.816406 -1.03125 0.617188 -1.359375 0.484375 -1.734375 C 0.347656 -2.109375 0.28125 -2.503906 0.28125 -2.921875 C 0.28125 -3.335938 0.351562 -3.726562 0.5 -4.09375 C 0.644531 -4.46875 0.847656 -4.789062 1.109375 -5.0625 C 1.367188 -5.332031 1.679688 -5.546875 2.046875 -5.703125 C 2.421875 -5.867188 2.832031 -5.953125 3.28125 -5.953125 C 3.726562 -5.953125 4.125 -5.875 4.46875 -5.71875 C 4.8125 -5.570312 5.101562 -5.367188 5.34375 -5.109375 C 5.582031 -4.847656 5.765625 -4.539062 5.890625 -4.1875 C 6.023438 -3.832031 6.097656 -3.453125 6.109375 -3.046875 C 6.117188 -2.953125 6.125 -2.859375 6.125 -2.765625 C 6.125 -2.679688 6.117188 -2.585938 6.109375 -2.484375 Z M 3.234375 -4.578125 C 3.023438 -4.578125 2.847656 -4.550781 2.703125 -4.5 C 2.554688 -4.445312 2.429688 -4.378906 2.328125 -4.296875 C 2.234375 -4.210938 2.15625 -4.113281 2.09375 -4 C 2.039062 -3.882812 2 -3.769531 1.96875 -3.65625 L 4.34375 -3.65625 C 4.320312 -3.78125 4.285156 -3.894531 4.234375 -4 C 4.191406 -4.113281 4.128906 -4.210938 4.046875 -4.296875 C 3.960938 -4.378906 3.851562 -4.445312 3.71875 -4.5 C 3.59375 -4.550781 3.429688 -4.578125 3.234375 -4.578125 Z M 3.234375 -4.578125 "/></g></g></g><g fill="#000000" fill-opacity="1"><g transform="translate(125.968603, 23.129144)"><g><path d="M 5.609375 -3.625 L 4.0625 -3.625 L 4.0625 -4.21875 C 3.914062 -4.21875 3.78125 -4.207031 3.65625 -4.1875 C 3.53125 -4.164062 3.421875 -4.128906 3.328125 -4.078125 C 3.234375 -4.035156 3.15625 -3.96875 3.09375 -3.875 C 3.03125 -3.789062 2.984375 -3.6875 2.953125 -3.5625 L 2.953125 -1.5 L 4.109375 -1.5 L 4.109375 0 L 0.390625 0 L 0.390625 -1.5 L 1.25 -1.5 L 1.25 -4.1875 L 0.40625 -4.1875 L 0.40625 -5.703125 L 2.9375 -5.703125 L 2.9375 -5.296875 C 3.101562 -5.421875 3.285156 -5.519531 3.484375 -5.59375 C 3.691406 -5.664062 3.910156 -5.703125 4.140625 -5.703125 C 4.390625 -5.703125 4.640625 -5.695312 4.890625 -5.6875 C 5.148438 -5.6875 5.390625 -5.6875 5.609375 -5.6875 Z M 5.609375 -3.625 "/></g></g></g><g fill="#000000" fill-opacity="1"><g transform="translate(132.073536, 23.129144)"><g><path d="M 0.21875 -5.703125 L 3.203125 -5.703125 L 3.203125 -4.1875 L 2.515625 -4.1875 L 3.4375 -1.75 L 4.328125 -4.1875 L 3.71875 -4.1875 L 3.71875 -5.703125 L 6.6875 -5.703125 L 6.6875 -4.1875 L 5.9375 -4.1875 L 4.234375 0.015625 L 2.5625 0.015625 L 0.859375 -4.1875 L 0.21875 -4.1875 Z M 0.21875 -5.703125 "/></g></g></g><g fill="#000000" fill-opacity="1"><g transform="translate(138.986961, 23.129144)"><g><path d="M 0.4375 -5.703125 L 3 -5.703125 L 3 -1.5 L 3.796875 -1.5 L 3.796875 0 L 0.4375 0 L 0.4375 -1.5 L 1.296875 -1.5 L 1.296875 -4.1875 L 0.4375 -4.1875 Z M 1.203125 -7.53125 C 1.203125 -7.664062 1.226562 -7.789062 1.28125 -7.90625 C 1.332031 -8.03125 1.398438 -8.132812 1.484375 -8.21875 C 1.578125 -8.3125 1.679688 -8.382812 1.796875 -8.4375 C 1.921875 -8.488281 2.050781 -8.515625 2.1875 -8.515625 C 2.320312 -8.515625 2.445312 -8.488281 2.5625 -8.4375 C 2.675781 -8.382812 2.773438 -8.3125 2.859375 -8.21875 C 2.953125 -8.132812 3.023438 -8.03125 3.078125 -7.90625 C 3.128906 -7.789062 3.15625 -7.664062 3.15625 -7.53125 C 3.15625 -7.394531 3.128906 -7.265625 3.078125 -7.140625 C 3.023438 -7.023438 2.953125 -6.925781 2.859375 -6.84375 C 2.773438 -6.757812 2.675781 -6.691406 2.5625 -6.640625 C 2.445312 -6.585938 2.320312 -6.5625 2.1875 -6.5625 C 2.050781 -6.5625 1.921875 -6.585938 1.796875 -6.640625 C 1.679688 -6.691406 1.578125 -6.757812 1.484375 -6.84375 C 1.398438 -6.925781 1.332031 -7.023438 1.28125 -7.140625 C 1.226562 -7.265625 1.203125 -7.394531 1.203125 -7.53125 Z M 1.203125 -7.53125 "/></g></g></g><g fill="#000000" fill-opacity="1"><g transform="translate(143.331913, 23.129144)"><g><path d="M 4.703125 -3.734375 C 4.546875 -3.929688 4.367188 -4.078125 4.171875 -4.171875 C 3.984375 -4.273438 3.757812 -4.320312 3.5 -4.3125 C 3.28125 -4.320312 3.082031 -4.289062 2.90625 -4.21875 C 2.738281 -4.144531 2.585938 -4.039062 2.453125 -3.90625 C 2.328125 -3.78125 2.226562 -3.625 2.15625 -3.4375 C 2.09375 -3.257812 2.0625 -3.054688 2.0625 -2.828125 C 2.0625 -2.628906 2.097656 -2.4375 2.171875 -2.25 C 2.242188 -2.070312 2.34375 -1.914062 2.46875 -1.78125 C 2.59375 -1.65625 2.742188 -1.554688 2.921875 -1.484375 C 3.097656 -1.410156 3.289062 -1.367188 3.5 -1.359375 C 3.664062 -1.367188 3.816406 -1.398438 3.953125 -1.453125 C 4.097656 -1.515625 4.222656 -1.585938 4.328125 -1.671875 C 4.441406 -1.765625 4.535156 -1.867188 4.609375 -1.984375 C 4.691406 -2.097656 4.757812 -2.203125 4.8125 -2.296875 L 6.328125 -1.875 C 6.265625 -1.65625 6.15625 -1.425781 6 -1.1875 C 5.84375 -0.957031 5.640625 -0.742188 5.390625 -0.546875 C 5.148438 -0.347656 4.863281 -0.179688 4.53125 -0.046875 C 4.195312 0.078125 3.816406 0.140625 3.390625 0.140625 C 2.953125 0.140625 2.550781 0.0625 2.1875 -0.09375 C 1.820312 -0.257812 1.503906 -0.476562 1.234375 -0.75 C 0.972656 -1.03125 0.765625 -1.351562 0.609375 -1.71875 C 0.460938 -2.09375 0.390625 -2.492188 0.390625 -2.921875 C 0.390625 -3.335938 0.46875 -3.722656 0.625 -4.078125 C 0.78125 -4.441406 0.988281 -4.757812 1.25 -5.03125 C 1.519531 -5.300781 1.835938 -5.507812 2.203125 -5.65625 C 2.578125 -5.8125 2.976562 -5.882812 3.40625 -5.875 C 3.71875 -5.882812 4.015625 -5.847656 4.296875 -5.765625 C 4.585938 -5.679688 4.863281 -5.554688 5.125 -5.390625 L 6.234375 -5.390625 L 6.234375 -3.734375 Z M 4.703125 -3.734375 "/></g></g></g><g fill="#000000" fill-opacity="1"><g transform="translate(149.821842, 23.129144)"><g><path d="M 1.921875 -2.484375 L 1.9375 -2.328125 C 1.976562 -2.160156 2.046875 -2.015625 2.140625 -1.890625 C 2.234375 -1.765625 2.347656 -1.660156 2.484375 -1.578125 C 2.617188 -1.492188 2.765625 -1.425781 2.921875 -1.375 C 3.085938 -1.332031 3.253906 -1.3125 3.421875 -1.3125 C 3.578125 -1.3125 3.726562 -1.320312 3.875 -1.34375 C 4.03125 -1.363281 4.175781 -1.390625 4.3125 -1.421875 C 4.457031 -1.460938 4.59375 -1.503906 4.71875 -1.546875 C 4.851562 -1.597656 4.988281 -1.648438 5.125 -1.703125 L 5.734375 -0.578125 C 5.523438 -0.441406 5.332031 -0.328125 5.15625 -0.234375 C 4.976562 -0.148438 4.800781 -0.078125 4.625 -0.015625 C 4.457031 0.0351562 4.273438 0.078125 4.078125 0.109375 C 3.878906 0.140625 3.644531 0.15625 3.375 0.15625 C 2.882812 0.15625 2.445312 0.0703125 2.0625 -0.09375 C 1.675781 -0.257812 1.347656 -0.476562 1.078125 -0.75 C 0.816406 -1.03125 0.617188 -1.359375 0.484375 -1.734375 C 0.347656 -2.109375 0.28125 -2.503906 0.28125 -2.921875 C 0.28125 -3.335938 0.351562 -3.726562 0.5 -4.09375 C 0.644531 -4.46875 0.847656 -4.789062 1.109375 -5.0625 C 1.367188 -5.332031 1.679688 -5.546875 2.046875 -5.703125 C 2.421875 -5.867188 2.832031 -5.953125 3.28125 -5.953125 C 3.726562 -5.953125 4.125 -5.875 4.46875 -5.71875 C 4.8125 -5.570312 5.101562 -5.367188 5.34375 -5.109375 C 5.582031 -4.847656 5.765625 -4.539062 5.890625 -4.1875 C 6.023438 -3.832031 6.097656 -3.453125 6.109375 -3.046875 C 6.117188 -2.953125 6.125 -2.859375 6.125 -2.765625 C 6.125 -2.679688 6.117188 -2.585938 6.109375 -2.484375 Z M 3.234375 -4.578125 C 3.023438 -4.578125 2.847656 -4.550781 2.703125 -4.5 C 2.554688 -4.445312 2.429688 -4.378906 2.328125 -4.296875 C 2.234375 -4.210938 2.15625 -4.113281 2.09375 -4 C 2.039062 -3.882812 2 -3.769531 1.96875 -3.65625 L 4.34375 -3.65625 C 4.320312 -3.78125 4.285156 -3.894531 4.234375 -4 C 4.191406 -4.113281 4.128906 -4.210938 4.046875 -4.296875 C 3.960938 -4.378906 3.851562 -4.445312 3.71875 -4.5 C 3.59375 -4.550781 3.429688 -4.578125 3.234375 -4.578125 Z M 3.234375 -4.578125 "/></g></g></g></svg>