<svg xmlns="http://www.w3.org/2000/svg" xmlns:xlink="http://www.w3.org/1999/xlink" width="212" zoomAndPan="magnify" viewBox="0 0 159 37.5" height="50" preserveAspectRatio="xMidYMid meet" version="1.0"><defs><g/><clipPath id="a82e9871af"><path d="M 143 7.160156 L 150 7.160156 L 150 15 L 143 15 Z M 143 7.160156 " clip-rule="nonzero"/></clipPath><clipPath id="807c34a507"><path d="M 130.871094 25 L 143 25 L 143 33.066406 L 130.871094 33.066406 Z M 130.871094 25 " clip-rule="nonzero"/></clipPath><clipPath id="5928bab3c1"><path d="M 144 19 L 156.035156 19 L 156.035156 30 L 144 30 Z M 144 19 " clip-rule="nonzero"/></clipPath></defs><g fill="#004aad" fill-opacity="1"><g transform="translate(4.772917, 21.857778)"><g><path d="M 6.9375 -5.890625 C 6.96875 -4.992188 6.988281 -4.097656 7 -3.203125 C 7.019531 -2.304688 7.046875 -1.410156 7.078125 -0.515625 C 7.085938 -0.265625 7.023438 -0.0625 6.890625 0.09375 C 6.753906 0.25 6.585938 0.351562 6.390625 0.40625 C 6.191406 0.457031 5.992188 0.457031 5.796875 0.40625 C 5.597656 0.351562 5.425781 0.25 5.28125 0.09375 C 5.144531 -0.0625 5.070312 -0.265625 5.0625 -0.515625 C 5.050781 -0.785156 5.046875 -1.054688 5.046875 -1.328125 C 5.046875 -1.597656 5.039062 -1.863281 5.03125 -2.125 L 3.015625 -2.203125 C 2.941406 -1.867188 2.875 -1.53125 2.8125 -1.1875 C 2.75 -0.851562 2.6875 -0.515625 2.625 -0.171875 C 2.582031 0.078125 2.484375 0.257812 2.328125 0.375 C 2.171875 0.488281 1.988281 0.546875 1.78125 0.546875 C 1.570312 0.546875 1.375 0.492188 1.1875 0.390625 C 1.007812 0.285156 0.867188 0.140625 0.765625 -0.046875 C 0.660156 -0.234375 0.632812 -0.453125 0.6875 -0.703125 C 0.84375 -1.585938 1.019531 -2.457031 1.21875 -3.3125 C 1.425781 -4.164062 1.710938 -5 2.078125 -5.8125 C 2.253906 -6.21875 2.476562 -6.648438 2.75 -7.109375 C 3.03125 -7.578125 3.347656 -8.003906 3.703125 -8.390625 C 4.054688 -8.785156 4.445312 -9.078125 4.875 -9.265625 C 5.28125 -9.429688 5.609375 -9.460938 5.859375 -9.359375 C 6.109375 -9.253906 6.300781 -9.0625 6.4375 -8.78125 C 6.582031 -8.5 6.6875 -8.175781 6.75 -7.8125 C 6.820312 -7.457031 6.867188 -7.101562 6.890625 -6.75 C 6.921875 -6.40625 6.9375 -6.117188 6.9375 -5.890625 Z M 3.640625 -4.40625 C 3.640625 -4.375 3.628906 -4.335938 3.609375 -4.296875 C 3.597656 -4.265625 3.582031 -4.234375 3.5625 -4.203125 C 3.800781 -4.191406 4.035156 -4.179688 4.265625 -4.171875 C 4.503906 -4.160156 4.738281 -4.148438 4.96875 -4.140625 C 4.957031 -4.429688 4.953125 -4.71875 4.953125 -5 C 4.953125 -5.289062 4.945312 -5.585938 4.9375 -5.890625 C 4.925781 -6.003906 4.921875 -6.125 4.921875 -6.25 C 4.921875 -6.382812 4.921875 -6.519531 4.921875 -6.65625 C 4.765625 -6.46875 4.632812 -6.289062 4.53125 -6.125 C 4.351562 -5.851562 4.191406 -5.570312 4.046875 -5.28125 C 3.898438 -5 3.765625 -4.707031 3.640625 -4.40625 Z M 3.640625 -4.40625 "/></g></g></g><g fill="#004aad" fill-opacity="1"><g transform="translate(12.52088, 21.857778)"><g><path d="M 5 -5.796875 C 5.5 -5.453125 5.894531 -5.003906 6.1875 -4.453125 C 6.476562 -3.910156 6.59375 -3.332031 6.53125 -2.71875 C 6.46875 -2.1875 6.28125 -1.726562 5.96875 -1.34375 C 5.664062 -0.957031 5.296875 -0.65625 4.859375 -0.4375 C 4.421875 -0.226562 3.953125 -0.109375 3.453125 -0.078125 C 2.953125 -0.0546875 2.472656 -0.140625 2.015625 -0.328125 C 1.566406 -0.515625 1.1875 -0.820312 0.875 -1.25 C 0.707031 -1.457031 0.632812 -1.65625 0.65625 -1.84375 C 0.6875 -2.03125 0.769531 -2.195312 0.90625 -2.34375 C 1.050781 -2.488281 1.226562 -2.585938 1.4375 -2.640625 C 1.644531 -2.703125 1.851562 -2.707031 2.0625 -2.65625 C 2.269531 -2.601562 2.445312 -2.472656 2.59375 -2.265625 C 2.664062 -2.171875 2.800781 -2.113281 3 -2.09375 C 3.195312 -2.082031 3.394531 -2.09375 3.59375 -2.125 C 3.789062 -2.15625 3.929688 -2.1875 4.015625 -2.21875 C 4.203125 -2.3125 4.34375 -2.441406 4.4375 -2.609375 C 4.53125 -2.785156 4.5625 -2.976562 4.53125 -3.1875 C 4.5 -3.4375 4.40625 -3.640625 4.25 -3.796875 C 4.101562 -3.960938 3.925781 -4.101562 3.71875 -4.21875 C 3.507812 -4.34375 3.296875 -4.460938 3.078125 -4.578125 C 2.867188 -4.691406 2.679688 -4.816406 2.515625 -4.953125 C 2.066406 -5.335938 1.796875 -5.757812 1.703125 -6.21875 C 1.609375 -6.6875 1.640625 -7.148438 1.796875 -7.609375 C 1.960938 -8.066406 2.21875 -8.484375 2.5625 -8.859375 C 2.914062 -9.234375 3.316406 -9.523438 3.765625 -9.734375 C 4.003906 -9.847656 4.226562 -9.878906 4.4375 -9.828125 C 4.644531 -9.773438 4.820312 -9.671875 4.96875 -9.515625 C 5.113281 -9.367188 5.210938 -9.195312 5.265625 -9 C 5.316406 -8.8125 5.304688 -8.625 5.234375 -8.4375 C 5.171875 -8.257812 5.019531 -8.113281 4.78125 -8 C 4.632812 -7.925781 4.457031 -7.828125 4.25 -7.703125 C 4.050781 -7.578125 3.882812 -7.425781 3.75 -7.25 C 3.625 -7.082031 3.601562 -6.890625 3.6875 -6.671875 C 3.726562 -6.535156 3.832031 -6.414062 4 -6.3125 C 4.164062 -6.207031 4.34375 -6.113281 4.53125 -6.03125 C 4.71875 -5.945312 4.875 -5.867188 5 -5.796875 Z M 5 -5.796875 "/></g></g></g><g fill="#004aad" fill-opacity="1"><g transform="translate(19.73265, 21.857778)"><g><path d="M 5 -5.796875 C 5.5 -5.453125 5.894531 -5.003906 6.1875 -4.453125 C 6.476562 -3.910156 6.59375 -3.332031 6.53125 -2.71875 C 6.46875 -2.1875 6.28125 -1.726562 5.96875 -1.34375 C 5.664062 -0.957031 5.296875 -0.65625 4.859375 -0.4375 C 4.421875 -0.226562 3.953125 -0.109375 3.453125 -0.078125 C 2.953125 -0.0546875 2.472656 -0.140625 2.015625 -0.328125 C 1.566406 -0.515625 1.1875 -0.820312 0.875 -1.25 C 0.707031 -1.457031 0.632812 -1.65625 0.65625 -1.84375 C 0.6875 -2.03125 0.769531 -2.195312 0.90625 -2.34375 C 1.050781 -2.488281 1.226562 -2.585938 1.4375 -2.640625 C 1.644531 -2.703125 1.851562 -2.707031 2.0625 -2.65625 C 2.269531 -2.601562 2.445312 -2.472656 2.59375 -2.265625 C 2.664062 -2.171875 2.800781 -2.113281 3 -2.09375 C 3.195312 -2.082031 3.394531 -2.09375 3.59375 -2.125 C 3.789062 -2.15625 3.929688 -2.1875 4.015625 -2.21875 C 4.203125 -2.3125 4.34375 -2.441406 4.4375 -2.609375 C 4.53125 -2.785156 4.5625 -2.976562 4.53125 -3.1875 C 4.5 -3.4375 4.40625 -3.640625 4.25 -3.796875 C 4.101562 -3.960938 3.925781 -4.101562 3.71875 -4.21875 C 3.507812 -4.34375 3.296875 -4.460938 3.078125 -4.578125 C 2.867188 -4.691406 2.679688 -4.816406 2.515625 -4.953125 C 2.066406 -5.335938 1.796875 -5.757812 1.703125 -6.21875 C 1.609375 -6.6875 1.640625 -7.148438 1.796875 -7.609375 C 1.960938 -8.066406 2.21875 -8.484375 2.5625 -8.859375 C 2.914062 -9.234375 3.316406 -9.523438 3.765625 -9.734375 C 4.003906 -9.847656 4.226562 -9.878906 4.4375 -9.828125 C 4.644531 -9.773438 4.820312 -9.671875 4.96875 -9.515625 C 5.113281 -9.367188 5.210938 -9.195312 5.265625 -9 C 5.316406 -8.8125 5.304688 -8.625 5.234375 -8.4375 C 5.171875 -8.257812 5.019531 -8.113281 4.78125 -8 C 4.632812 -7.925781 4.457031 -7.828125 4.25 -7.703125 C 4.050781 -7.578125 3.882812 -7.425781 3.75 -7.25 C 3.625 -7.082031 3.601562 -6.890625 3.6875 -6.671875 C 3.726562 -6.535156 3.832031 -6.414062 4 -6.3125 C 4.164062 -6.207031 4.34375 -6.113281 4.53125 -6.03125 C 4.71875 -5.945312 4.875 -5.867188 5 -5.796875 Z M 5 -5.796875 "/></g></g></g><g fill="#004aad" fill-opacity="1"><g transform="translate(26.94442, 21.857778)"><g><path d="M 7.84375 -7.609375 C 7.894531 -7.128906 7.894531 -6.601562 7.84375 -6.03125 C 7.800781 -5.46875 7.703125 -4.898438 7.546875 -4.328125 C 7.390625 -3.765625 7.164062 -3.238281 6.875 -2.75 C 6.582031 -2.269531 6.222656 -1.859375 5.796875 -1.515625 C 5.367188 -1.179688 4.875 -0.96875 4.3125 -0.875 C 3.726562 -0.769531 3.226562 -0.8125 2.8125 -1 C 2.394531 -1.1875 2.050781 -1.476562 1.78125 -1.875 C 1.507812 -2.269531 1.289062 -2.722656 1.125 -3.234375 C 0.96875 -3.742188 0.851562 -4.273438 0.78125 -4.828125 C 0.71875 -5.378906 0.679688 -5.90625 0.671875 -6.40625 C 0.671875 -6.914062 0.679688 -7.363281 0.703125 -7.75 C 0.722656 -8 0.804688 -8.203125 0.953125 -8.359375 C 1.109375 -8.515625 1.285156 -8.617188 1.484375 -8.671875 C 1.679688 -8.722656 1.878906 -8.722656 2.078125 -8.671875 C 2.273438 -8.617188 2.4375 -8.515625 2.5625 -8.359375 C 2.6875 -8.210938 2.738281 -8.007812 2.71875 -7.75 C 2.707031 -7.613281 2.695312 -7.382812 2.6875 -7.0625 C 2.6875 -6.738281 2.691406 -6.375 2.703125 -5.96875 C 2.722656 -5.5625 2.757812 -5.148438 2.8125 -4.734375 C 2.875 -4.328125 2.960938 -3.960938 3.078125 -3.640625 C 3.191406 -3.316406 3.34375 -3.082031 3.53125 -2.9375 C 3.71875 -2.800781 3.953125 -2.800781 4.234375 -2.9375 C 4.628906 -3.125 4.941406 -3.398438 5.171875 -3.765625 C 5.398438 -4.128906 5.566406 -4.539062 5.671875 -5 C 5.785156 -5.457031 5.851562 -5.914062 5.875 -6.375 C 5.894531 -6.832031 5.878906 -7.242188 5.828125 -7.609375 C 5.796875 -7.859375 5.835938 -8.0625 5.953125 -8.21875 C 6.066406 -8.375 6.21875 -8.476562 6.40625 -8.53125 C 6.601562 -8.582031 6.800781 -8.582031 7 -8.53125 C 7.207031 -8.476562 7.390625 -8.375 7.546875 -8.21875 C 7.703125 -8.0625 7.800781 -7.859375 7.84375 -7.609375 Z M 7.84375 -7.609375 "/></g></g></g><g fill="#004aad" fill-opacity="1"><g transform="translate(35.496672, 21.857778)"><g><path d="M 7.625 -1.265625 C 7.78125 -1.046875 7.84375 -0.835938 7.8125 -0.640625 C 7.789062 -0.453125 7.707031 -0.285156 7.5625 -0.140625 C 7.414062 -0.00390625 7.242188 0.0859375 7.046875 0.140625 C 6.847656 0.203125 6.640625 0.203125 6.421875 0.140625 C 6.210938 0.0859375 6.035156 -0.0351562 5.890625 -0.234375 C 5.484375 -0.796875 5.03125 -1.304688 4.53125 -1.765625 C 4.039062 -2.234375 3.507812 -2.65625 2.9375 -3.03125 C 2.894531 -2.5 2.851562 -1.96875 2.8125 -1.4375 C 2.769531 -0.90625 2.726562 -0.378906 2.6875 0.140625 C 2.664062 0.398438 2.582031 0.601562 2.4375 0.75 C 2.289062 0.90625 2.113281 1.007812 1.90625 1.0625 C 1.695312 1.125 1.492188 1.128906 1.296875 1.078125 C 1.109375 1.023438 0.953125 0.921875 0.828125 0.765625 C 0.703125 0.609375 0.648438 0.398438 0.671875 0.140625 C 0.753906 -0.828125 0.816406 -1.816406 0.859375 -2.828125 C 0.898438 -3.835938 1.019531 -4.828125 1.21875 -5.796875 C 1.320312 -6.296875 1.503906 -6.773438 1.765625 -7.234375 C 2.035156 -7.703125 2.378906 -8.085938 2.796875 -8.390625 C 3.210938 -8.691406 3.695312 -8.859375 4.25 -8.890625 C 4.632812 -8.910156 5 -8.835938 5.34375 -8.671875 C 5.6875 -8.515625 5.976562 -8.289062 6.21875 -8 C 6.457031 -7.71875 6.617188 -7.394531 6.703125 -7.03125 C 6.796875 -6.675781 6.78125 -6.304688 6.65625 -5.921875 C 6.53125 -5.535156 6.328125 -5.171875 6.046875 -4.828125 C 5.765625 -4.492188 5.4375 -4.203125 5.0625 -3.953125 C 6.019531 -3.171875 6.875 -2.273438 7.625 -1.265625 Z M 4.03125 -5.71875 C 4.082031 -5.78125 4.171875 -5.863281 4.296875 -5.96875 C 4.421875 -6.082031 4.53125 -6.203125 4.625 -6.328125 C 4.726562 -6.453125 4.773438 -6.550781 4.765625 -6.625 C 4.722656 -6.8125 4.648438 -6.910156 4.546875 -6.921875 C 4.441406 -6.941406 4.328125 -6.914062 4.203125 -6.84375 C 4.078125 -6.769531 3.953125 -6.664062 3.828125 -6.53125 C 3.703125 -6.40625 3.59375 -6.285156 3.5 -6.171875 C 3.40625 -6.054688 3.347656 -5.96875 3.328125 -5.90625 C 3.253906 -5.707031 3.191406 -5.484375 3.140625 -5.234375 C 3.316406 -5.265625 3.472656 -5.320312 3.609375 -5.40625 C 3.753906 -5.488281 3.894531 -5.59375 4.03125 -5.71875 Z M 4.03125 -5.71875 "/></g></g></g><g fill="#004aad" fill-opacity="1"><g transform="translate(43.981896, 21.857778)"><g><path d="M 6.9375 -5.859375 C 6.96875 -4.972656 6.988281 -4.082031 7 -3.1875 C 7.019531 -2.289062 7.046875 -1.398438 7.078125 -0.515625 C 7.085938 -0.253906 7.023438 -0.046875 6.890625 0.109375 C 6.753906 0.265625 6.585938 0.367188 6.390625 0.421875 C 6.191406 0.472656 5.992188 0.472656 5.796875 0.421875 C 5.597656 0.367188 5.425781 0.265625 5.28125 0.109375 C 5.144531 -0.046875 5.070312 -0.253906 5.0625 -0.515625 C 5.050781 -0.773438 5.046875 -1.035156 5.046875 -1.296875 C 5.046875 -1.566406 5.039062 -1.835938 5.03125 -2.109375 L 3.015625 -2.1875 C 2.941406 -1.84375 2.875 -1.503906 2.8125 -1.171875 C 2.75 -0.835938 2.6875 -0.5 2.625 -0.15625 C 2.582031 0.101562 2.484375 0.289062 2.328125 0.40625 C 2.171875 0.519531 1.988281 0.570312 1.78125 0.5625 C 1.570312 0.5625 1.375 0.507812 1.1875 0.40625 C 1.007812 0.300781 0.867188 0.15625 0.765625 -0.03125 C 0.660156 -0.21875 0.632812 -0.441406 0.6875 -0.703125 C 0.84375 -1.578125 1.019531 -2.441406 1.21875 -3.296875 C 1.425781 -4.148438 1.710938 -4.988281 2.078125 -5.8125 C 2.253906 -6.207031 2.476562 -6.632812 2.75 -7.09375 C 3.03125 -7.5625 3.347656 -7.988281 3.703125 -8.375 C 4.054688 -8.769531 4.445312 -9.054688 4.875 -9.234375 C 5.28125 -9.398438 5.609375 -9.429688 5.859375 -9.328125 C 6.109375 -9.222656 6.300781 -9.03125 6.4375 -8.75 C 6.582031 -8.476562 6.6875 -8.160156 6.75 -7.796875 C 6.820312 -7.429688 6.867188 -7.070312 6.890625 -6.71875 C 6.921875 -6.375 6.9375 -6.085938 6.9375 -5.859375 Z M 3.5625 -4.171875 C 3.800781 -4.160156 4.035156 -4.148438 4.265625 -4.140625 C 4.503906 -4.128906 4.738281 -4.117188 4.96875 -4.109375 C 4.957031 -4.410156 4.953125 -4.703125 4.953125 -4.984375 C 4.953125 -5.273438 4.945312 -5.566406 4.9375 -5.859375 C 4.925781 -5.972656 4.921875 -6.09375 4.921875 -6.21875 C 4.921875 -6.351562 4.921875 -6.488281 4.921875 -6.625 C 4.765625 -6.445312 4.632812 -6.273438 4.53125 -6.109375 C 4.351562 -5.847656 4.191406 -5.570312 4.046875 -5.28125 C 3.898438 -4.988281 3.765625 -4.691406 3.640625 -4.390625 C 3.640625 -4.359375 3.628906 -4.320312 3.609375 -4.28125 C 3.597656 -4.238281 3.582031 -4.203125 3.5625 -4.171875 Z M 3.5625 -4.171875 "/></g></g></g><g fill="#004aad" fill-opacity="1"><g transform="translate(51.729859, 21.857778)"><g><path d="M 5.90625 -8.125 C 5.9375 -8.375 6.023438 -8.554688 6.171875 -8.671875 C 6.328125 -8.785156 6.503906 -8.84375 6.703125 -8.84375 C 6.910156 -8.84375 7.109375 -8.789062 7.296875 -8.6875 C 7.484375 -8.582031 7.628906 -8.4375 7.734375 -8.25 C 7.835938 -8.0625 7.875 -7.84375 7.84375 -7.59375 C 7.476562 -5.125 7.019531 -2.671875 6.46875 -0.234375 C 6.425781 -0.046875 6.328125 0.109375 6.171875 0.234375 C 6.015625 0.359375 5.832031 0.4375 5.625 0.46875 C 5.425781 0.5 5.234375 0.476562 5.046875 0.40625 C 4.859375 0.332031 4.722656 0.195312 4.640625 0 C 4.429688 -0.488281 4.21875 -0.976562 4 -1.46875 C 3.789062 -1.957031 3.578125 -2.441406 3.359375 -2.921875 C 3.222656 -2.335938 3.09375 -1.753906 2.96875 -1.171875 C 2.84375 -0.585938 2.726562 -0.00390625 2.625 0.578125 C 2.582031 0.835938 2.476562 1.023438 2.3125 1.140625 C 2.15625 1.253906 1.972656 1.304688 1.765625 1.296875 C 1.566406 1.296875 1.375 1.242188 1.1875 1.140625 C 1.007812 1.035156 0.867188 0.890625 0.765625 0.703125 C 0.660156 0.515625 0.640625 0.296875 0.703125 0.046875 C 1.085938 -2.085938 1.566406 -4.195312 2.140625 -6.28125 C 2.191406 -6.46875 2.296875 -6.625 2.453125 -6.75 C 2.617188 -6.875 2.800781 -6.953125 3 -6.984375 C 3.207031 -7.023438 3.398438 -7.007812 3.578125 -6.9375 C 3.753906 -6.875 3.890625 -6.738281 3.984375 -6.53125 L 5.15625 -3.8125 C 5.300781 -4.519531 5.429688 -5.234375 5.546875 -5.953125 C 5.671875 -6.671875 5.789062 -7.394531 5.90625 -8.125 Z M 5.90625 -8.125 "/></g></g></g><g fill="#004aad" fill-opacity="1"><g transform="translate(60.255303, 21.857778)"><g><path d="M 5.96875 -3.21875 C 6.21875 -3.289062 6.429688 -3.28125 6.609375 -3.1875 C 6.796875 -3.101562 6.941406 -2.96875 7.046875 -2.78125 C 7.148438 -2.601562 7.203125 -2.410156 7.203125 -2.203125 C 7.210938 -2.003906 7.160156 -1.816406 7.046875 -1.640625 C 6.929688 -1.460938 6.75 -1.34375 6.5 -1.28125 C 6.039062 -1.144531 5.570312 -1.046875 5.09375 -0.984375 C 4.625 -0.921875 4.148438 -0.921875 3.671875 -0.984375 C 3.203125 -1.046875 2.753906 -1.195312 2.328125 -1.4375 C 1.773438 -1.757812 1.351562 -2.195312 1.0625 -2.75 C 0.769531 -3.300781 0.640625 -3.894531 0.671875 -4.53125 C 0.703125 -5.15625 0.859375 -5.753906 1.140625 -6.328125 C 1.421875 -6.910156 1.789062 -7.421875 2.25 -7.859375 C 2.707031 -8.296875 3.226562 -8.628906 3.8125 -8.859375 C 4.394531 -9.097656 5.003906 -9.195312 5.640625 -9.15625 C 5.898438 -9.125 6.109375 -9.035156 6.265625 -8.890625 C 6.421875 -8.742188 6.523438 -8.570312 6.578125 -8.375 C 6.628906 -8.175781 6.628906 -7.976562 6.578125 -7.78125 C 6.523438 -7.582031 6.421875 -7.421875 6.265625 -7.296875 C 6.109375 -7.171875 5.898438 -7.117188 5.640625 -7.140625 C 5.179688 -7.179688 4.742188 -7.09375 4.328125 -6.875 C 3.910156 -6.664062 3.554688 -6.375 3.265625 -6 C 2.984375 -5.625 2.800781 -5.210938 2.71875 -4.765625 C 2.632812 -4.347656 2.65625 -4.015625 2.78125 -3.765625 C 2.90625 -3.523438 3.085938 -3.347656 3.328125 -3.234375 C 3.566406 -3.117188 3.835938 -3.046875 4.140625 -3.015625 C 4.453125 -2.984375 4.765625 -2.988281 5.078125 -3.03125 C 5.398438 -3.082031 5.695312 -3.144531 5.96875 -3.21875 Z M 5.96875 -3.21875 "/></g></g></g><g fill="#004aad" fill-opacity="1"><g transform="translate(68.13732, 21.857778)"><g><path d="M 5.59375 -2.828125 C 5.851562 -2.816406 6.0625 -2.738281 6.21875 -2.59375 C 6.375 -2.457031 6.472656 -2.285156 6.515625 -2.078125 C 6.566406 -1.878906 6.566406 -1.679688 6.515625 -1.484375 C 6.472656 -1.285156 6.375 -1.117188 6.21875 -0.984375 C 6.0625 -0.859375 5.851562 -0.800781 5.59375 -0.8125 C 4.976562 -0.84375 4.367188 -0.84375 3.765625 -0.8125 C 3.160156 -0.78125 2.550781 -0.710938 1.9375 -0.609375 C 1.75 -0.585938 1.550781 -0.609375 1.34375 -0.671875 C 1.144531 -0.742188 0.972656 -0.851562 0.828125 -1 C 0.691406 -1.15625 0.644531 -1.351562 0.6875 -1.59375 C 0.832031 -2.832031 1 -4.066406 1.1875 -5.296875 C 1.375 -6.523438 1.570312 -7.757812 1.78125 -9 C 1.8125 -9.144531 1.863281 -9.273438 1.9375 -9.390625 C 2.007812 -9.515625 2.113281 -9.617188 2.25 -9.703125 C 2.382812 -9.785156 2.550781 -9.832031 2.75 -9.84375 C 3.71875 -9.863281 4.679688 -9.84375 5.640625 -9.78125 C 5.898438 -9.769531 6.109375 -9.6875 6.265625 -9.53125 C 6.421875 -9.382812 6.523438 -9.210938 6.578125 -9.015625 C 6.628906 -8.816406 6.628906 -8.617188 6.578125 -8.421875 C 6.523438 -8.222656 6.421875 -8.0625 6.265625 -7.9375 C 6.109375 -7.8125 5.898438 -7.757812 5.640625 -7.78125 C 4.984375 -7.820312 4.3125 -7.84375 3.625 -7.84375 C 3.570312 -7.582031 3.523438 -7.320312 3.484375 -7.0625 C 3.441406 -6.800781 3.398438 -6.539062 3.359375 -6.28125 C 3.734375 -6.28125 4.085938 -6.257812 4.421875 -6.21875 C 4.691406 -6.195312 4.925781 -6.097656 5.125 -5.921875 C 5.320312 -5.742188 5.421875 -5.507812 5.421875 -5.21875 C 5.421875 -5.039062 5.375 -4.875 5.28125 -4.71875 C 5.1875 -4.5625 5.0625 -4.429688 4.90625 -4.328125 C 4.757812 -4.234375 4.597656 -4.191406 4.421875 -4.203125 C 3.960938 -4.253906 3.507812 -4.28125 3.0625 -4.28125 C 3.019531 -4.03125 2.976562 -3.773438 2.9375 -3.515625 C 2.90625 -3.253906 2.875 -3 2.84375 -2.75 C 3.300781 -2.789062 3.753906 -2.816406 4.203125 -2.828125 C 4.660156 -2.847656 5.125 -2.847656 5.59375 -2.828125 Z M 5.59375 -2.828125 "/></g></g></g><g fill="#004aad" fill-opacity="1"><g transform="translate(75.416117, 21.857778)"><g/></g></g><g fill="#004aad" fill-opacity="1"><g transform="translate(79.491168, 21.857778)"><g><path d="M 6.0625 -9.296875 C 6.320312 -9.335938 6.546875 -9.300781 6.734375 -9.1875 C 6.921875 -9.082031 7.0625 -8.9375 7.15625 -8.75 C 7.257812 -8.570312 7.3125 -8.382812 7.3125 -8.1875 C 7.320312 -7.988281 7.269531 -7.8125 7.15625 -7.65625 C 7.039062 -7.5 6.851562 -7.398438 6.59375 -7.359375 C 6.132812 -7.285156 5.675781 -7.210938 5.21875 -7.140625 C 4.769531 -7.066406 4.316406 -7 3.859375 -6.9375 C 3.847656 -6.9375 3.804688 -6.925781 3.734375 -6.90625 C 3.671875 -6.894531 3.601562 -6.882812 3.53125 -6.875 C 3.53125 -6.8125 3.523438 -6.769531 3.515625 -6.75 C 3.535156 -6.539062 3.519531 -6.320312 3.46875 -6.09375 C 3.425781 -5.863281 3.390625 -5.644531 3.359375 -5.4375 C 3.359375 -5.40625 3.359375 -5.375 3.359375 -5.34375 C 3.359375 -5.3125 3.359375 -5.28125 3.359375 -5.25 C 4.046875 -5.363281 4.726562 -5.421875 5.40625 -5.421875 C 5.664062 -5.421875 5.875 -5.359375 6.03125 -5.234375 C 6.1875 -5.109375 6.285156 -4.941406 6.328125 -4.734375 C 6.378906 -4.535156 6.378906 -4.332031 6.328125 -4.125 C 6.285156 -3.925781 6.1875 -3.757812 6.03125 -3.625 C 5.875 -3.5 5.664062 -3.429688 5.40625 -3.421875 C 4.625 -3.410156 3.847656 -3.320312 3.078125 -3.15625 C 3.003906 -2.632812 2.929688 -2.109375 2.859375 -1.578125 C 2.785156 -1.046875 2.707031 -0.515625 2.625 0.015625 C 2.582031 0.265625 2.484375 0.445312 2.328125 0.5625 C 2.179688 0.675781 2.003906 0.734375 1.796875 0.734375 C 1.597656 0.734375 1.40625 0.679688 1.21875 0.578125 C 1.03125 0.472656 0.882812 0.328125 0.78125 0.140625 C 0.675781 -0.046875 0.644531 -0.265625 0.6875 -0.515625 C 0.863281 -1.640625 1.019531 -2.757812 1.15625 -3.875 C 1.300781 -4.988281 1.4375 -6.101562 1.5625 -7.21875 C 1.613281 -7.707031 1.75 -8.078125 1.96875 -8.328125 C 2.195312 -8.578125 2.550781 -8.742188 3.03125 -8.828125 C 3.53125 -8.898438 4.035156 -8.976562 4.546875 -9.0625 C 5.054688 -9.144531 5.5625 -9.222656 6.0625 -9.296875 Z M 6.0625 -9.296875 "/></g></g></g><g fill="#004aad" fill-opacity="1"><g transform="translate(87.480418, 21.857778)"><g><path d="M 7.625 -1.265625 C 7.78125 -1.046875 7.84375 -0.835938 7.8125 -0.640625 C 7.789062 -0.453125 7.707031 -0.285156 7.5625 -0.140625 C 7.414062 -0.00390625 7.242188 0.0859375 7.046875 0.140625 C 6.847656 0.203125 6.640625 0.203125 6.421875 0.140625 C 6.210938 0.0859375 6.035156 -0.0351562 5.890625 -0.234375 C 5.484375 -0.796875 5.03125 -1.304688 4.53125 -1.765625 C 4.039062 -2.234375 3.507812 -2.65625 2.9375 -3.03125 C 2.894531 -2.5 2.851562 -1.96875 2.8125 -1.4375 C 2.769531 -0.90625 2.726562 -0.378906 2.6875 0.140625 C 2.664062 0.398438 2.582031 0.601562 2.4375 0.75 C 2.289062 0.90625 2.113281 1.007812 1.90625 1.0625 C 1.695312 1.125 1.492188 1.128906 1.296875 1.078125 C 1.109375 1.023438 0.953125 0.921875 0.828125 0.765625 C 0.703125 0.609375 0.648438 0.398438 0.671875 0.140625 C 0.753906 -0.828125 0.816406 -1.816406 0.859375 -2.828125 C 0.898438 -3.835938 1.019531 -4.828125 1.21875 -5.796875 C 1.320312 -6.296875 1.503906 -6.773438 1.765625 -7.234375 C 2.035156 -7.703125 2.378906 -8.085938 2.796875 -8.390625 C 3.210938 -8.691406 3.695312 -8.859375 4.25 -8.890625 C 4.632812 -8.910156 5 -8.835938 5.34375 -8.671875 C 5.6875 -8.515625 5.976562 -8.289062 6.21875 -8 C 6.457031 -7.71875 6.617188 -7.394531 6.703125 -7.03125 C 6.796875 -6.675781 6.78125 -6.304688 6.65625 -5.921875 C 6.53125 -5.535156 6.328125 -5.171875 6.046875 -4.828125 C 5.765625 -4.492188 5.4375 -4.203125 5.0625 -3.953125 C 6.019531 -3.171875 6.875 -2.273438 7.625 -1.265625 Z M 4.03125 -5.71875 C 4.082031 -5.78125 4.171875 -5.863281 4.296875 -5.96875 C 4.421875 -6.082031 4.53125 -6.203125 4.625 -6.328125 C 4.726562 -6.453125 4.773438 -6.550781 4.765625 -6.625 C 4.722656 -6.8125 4.648438 -6.910156 4.546875 -6.921875 C 4.441406 -6.941406 4.328125 -6.914062 4.203125 -6.84375 C 4.078125 -6.769531 3.953125 -6.664062 3.828125 -6.53125 C 3.703125 -6.40625 3.59375 -6.285156 3.5 -6.171875 C 3.40625 -6.054688 3.347656 -5.96875 3.328125 -5.90625 C 3.253906 -5.707031 3.191406 -5.484375 3.140625 -5.234375 C 3.316406 -5.265625 3.472656 -5.320312 3.609375 -5.40625 C 3.753906 -5.488281 3.894531 -5.59375 4.03125 -5.71875 Z M 4.03125 -5.71875 "/></g></g></g><g fill="#004aad" fill-opacity="1"><g transform="translate(95.965643, 21.857778)"><g><path d="M 5.59375 -2.828125 C 5.851562 -2.816406 6.0625 -2.738281 6.21875 -2.59375 C 6.375 -2.457031 6.472656 -2.285156 6.515625 -2.078125 C 6.566406 -1.878906 6.566406 -1.679688 6.515625 -1.484375 C 6.472656 -1.285156 6.375 -1.117188 6.21875 -0.984375 C 6.0625 -0.859375 5.851562 -0.800781 5.59375 -0.8125 C 4.976562 -0.84375 4.367188 -0.84375 3.765625 -0.8125 C 3.160156 -0.78125 2.550781 -0.710938 1.9375 -0.609375 C 1.75 -0.585938 1.550781 -0.609375 1.34375 -0.671875 C 1.144531 -0.742188 0.972656 -0.851562 0.828125 -1 C 0.691406 -1.15625 0.644531 -1.351562 0.6875 -1.59375 C 0.832031 -2.832031 1 -4.066406 1.1875 -5.296875 C 1.375 -6.523438 1.570312 -7.757812 1.78125 -9 C 1.8125 -9.144531 1.863281 -9.273438 1.9375 -9.390625 C 2.007812 -9.515625 2.113281 -9.617188 2.25 -9.703125 C 2.382812 -9.785156 2.550781 -9.832031 2.75 -9.84375 C 3.71875 -9.863281 4.679688 -9.84375 5.640625 -9.78125 C 5.898438 -9.769531 6.109375 -9.6875 6.265625 -9.53125 C 6.421875 -9.382812 6.523438 -9.210938 6.578125 -9.015625 C 6.628906 -8.816406 6.628906 -8.617188 6.578125 -8.421875 C 6.523438 -8.222656 6.421875 -8.0625 6.265625 -7.9375 C 6.109375 -7.8125 5.898438 -7.757812 5.640625 -7.78125 C 4.984375 -7.820312 4.3125 -7.84375 3.625 -7.84375 C 3.570312 -7.582031 3.523438 -7.320312 3.484375 -7.0625 C 3.441406 -6.800781 3.398438 -6.539062 3.359375 -6.28125 C 3.734375 -6.28125 4.085938 -6.257812 4.421875 -6.21875 C 4.691406 -6.195312 4.925781 -6.097656 5.125 -5.921875 C 5.320312 -5.742188 5.421875 -5.507812 5.421875 -5.21875 C 5.421875 -5.039062 5.375 -4.875 5.28125 -4.71875 C 5.1875 -4.5625 5.0625 -4.429688 4.90625 -4.328125 C 4.757812 -4.234375 4.597656 -4.191406 4.421875 -4.203125 C 3.960938 -4.253906 3.507812 -4.28125 3.0625 -4.28125 C 3.019531 -4.03125 2.976562 -3.773438 2.9375 -3.515625 C 2.90625 -3.253906 2.875 -3 2.84375 -2.75 C 3.300781 -2.789062 3.753906 -2.816406 4.203125 -2.828125 C 4.660156 -2.847656 5.125 -2.847656 5.59375 -2.828125 Z M 5.59375 -2.828125 "/></g></g></g><g fill="#004aad" fill-opacity="1"><g transform="translate(103.24444, 21.857778)"><g><path d="M 1.28125 -8.265625 C 1.300781 -8.515625 1.382812 -8.710938 1.53125 -8.859375 C 1.6875 -9.015625 1.867188 -9.117188 2.078125 -9.171875 C 2.285156 -9.222656 2.484375 -9.222656 2.671875 -9.171875 C 2.867188 -9.128906 3.023438 -9.03125 3.140625 -8.875 C 3.265625 -8.71875 3.3125 -8.515625 3.28125 -8.265625 C 3.019531 -5.835938 2.820312 -3.410156 2.6875 -0.984375 C 2.664062 -0.722656 2.582031 -0.515625 2.4375 -0.359375 C 2.289062 -0.203125 2.117188 -0.0976562 1.921875 -0.046875 C 1.722656 0.00390625 1.523438 0.00390625 1.328125 -0.046875 C 1.128906 -0.0976562 0.960938 -0.203125 0.828125 -0.359375 C 0.703125 -0.515625 0.648438 -0.722656 0.671875 -0.984375 C 0.816406 -3.410156 1.019531 -5.835938 1.28125 -8.265625 Z M 1.28125 -8.265625 "/></g></g></g><g fill="#004aad" fill-opacity="1"><g transform="translate(107.212257, 21.857778)"><g><path d="M 6.09375 -5.59375 C 6.6875 -5.601562 7.144531 -5.457031 7.46875 -5.15625 C 7.789062 -4.863281 7.9375 -4.410156 7.90625 -3.796875 C 7.894531 -3.253906 7.757812 -2.738281 7.5 -2.25 C 7.25 -1.769531 6.90625 -1.378906 6.46875 -1.078125 C 5.976562 -0.734375 5.445312 -0.550781 4.875 -0.53125 C 4.3125 -0.519531 3.757812 -0.59375 3.21875 -0.75 C 2.550781 -0.9375 2.019531 -1.226562 1.625 -1.625 C 1.238281 -2.019531 0.972656 -2.484375 0.828125 -3.015625 C 0.679688 -3.554688 0.632812 -4.125 0.6875 -4.71875 C 0.75 -5.3125 0.894531 -5.894531 1.125 -6.46875 C 1.363281 -7.050781 1.671875 -7.585938 2.046875 -8.078125 C 2.421875 -8.578125 2.851562 -8.992188 3.34375 -9.328125 C 3.832031 -9.660156 4.359375 -9.875 4.921875 -9.96875 C 5.492188 -10.070312 6.078125 -10.015625 6.671875 -9.796875 C 6.921875 -9.710938 7.097656 -9.578125 7.203125 -9.390625 C 7.316406 -9.210938 7.367188 -9.019531 7.359375 -8.8125 C 7.359375 -8.601562 7.304688 -8.410156 7.203125 -8.234375 C 7.109375 -8.066406 6.96875 -7.941406 6.78125 -7.859375 C 6.601562 -7.773438 6.394531 -7.78125 6.15625 -7.875 C 5.726562 -8.007812 5.3125 -8.003906 4.90625 -7.859375 C 4.507812 -7.710938 4.148438 -7.460938 3.828125 -7.109375 C 3.503906 -6.765625 3.238281 -6.367188 3.03125 -5.921875 C 2.820312 -5.484375 2.695312 -5.039062 2.65625 -4.59375 C 2.613281 -4.144531 2.675781 -3.742188 2.84375 -3.390625 C 2.9375 -3.179688 3.09375 -3.003906 3.3125 -2.859375 C 3.53125 -2.722656 3.773438 -2.625 4.046875 -2.5625 C 4.328125 -2.507812 4.59375 -2.5 4.84375 -2.53125 C 5.101562 -2.570312 5.316406 -2.679688 5.484375 -2.859375 C 5.609375 -2.992188 5.710938 -3.15625 5.796875 -3.34375 C 5.804688 -3.363281 5.8125 -3.394531 5.8125 -3.4375 C 5.8125 -3.476562 5.816406 -3.519531 5.828125 -3.5625 C 5.816406 -3.5625 5.804688 -3.5625 5.796875 -3.5625 C 5.785156 -3.5625 5.773438 -3.5625 5.765625 -3.5625 C 5.734375 -3.5625 5.703125 -3.5625 5.671875 -3.5625 C 5.640625 -3.5625 5.601562 -3.5625 5.5625 -3.5625 C 5.40625 -3.40625 5.207031 -3.304688 4.96875 -3.265625 C 4.726562 -3.222656 4.492188 -3.253906 4.265625 -3.359375 C 4.035156 -3.460938 3.875 -3.648438 3.78125 -3.921875 C 3.644531 -4.304688 3.640625 -4.609375 3.765625 -4.828125 C 3.890625 -5.054688 4.085938 -5.222656 4.359375 -5.328125 C 4.628906 -5.429688 4.921875 -5.5 5.234375 -5.53125 C 5.554688 -5.5625 5.84375 -5.582031 6.09375 -5.59375 Z M 6.09375 -5.59375 "/></g></g></g><g fill="#004aad" fill-opacity="1"><g transform="translate(115.791318, 21.857778)"><g><path d="M 5.75 -9.375 C 5.789062 -9.625 5.890625 -9.804688 6.046875 -9.921875 C 6.210938 -10.035156 6.394531 -10.09375 6.59375 -10.09375 C 6.800781 -10.09375 6.992188 -10.035156 7.171875 -9.921875 C 7.359375 -9.816406 7.503906 -9.671875 7.609375 -9.484375 C 7.710938 -9.296875 7.738281 -9.078125 7.6875 -8.828125 C 7.195312 -6.367188 6.863281 -3.882812 6.6875 -1.375 C 6.664062 -1.125 6.582031 -0.921875 6.4375 -0.765625 C 6.289062 -0.609375 6.113281 -0.503906 5.90625 -0.453125 C 5.707031 -0.398438 5.507812 -0.398438 5.3125 -0.453125 C 5.125 -0.503906 4.96875 -0.601562 4.84375 -0.75 C 4.71875 -0.90625 4.660156 -1.113281 4.671875 -1.375 C 4.703125 -1.800781 4.738281 -2.222656 4.78125 -2.640625 C 4.820312 -3.054688 4.863281 -3.476562 4.90625 -3.90625 L 3.0625 -3.90625 C 3 -3.363281 2.9375 -2.828125 2.875 -2.296875 C 2.8125 -1.765625 2.75 -1.234375 2.6875 -0.703125 C 2.65625 -0.453125 2.5625 -0.25 2.40625 -0.09375 C 2.257812 0.0625 2.082031 0.160156 1.875 0.203125 C 1.664062 0.253906 1.460938 0.253906 1.265625 0.203125 C 1.078125 0.160156 0.921875 0.0625 0.796875 -0.09375 C 0.679688 -0.25 0.644531 -0.453125 0.6875 -0.703125 C 0.757812 -1.441406 0.84375 -2.175781 0.9375 -2.90625 C 1.03125 -3.644531 1.113281 -4.390625 1.1875 -5.140625 C 1.238281 -5.484375 1.28125 -5.832031 1.3125 -6.1875 C 1.351562 -6.550781 1.398438 -6.910156 1.453125 -7.265625 C 1.484375 -7.578125 1.507812 -7.90625 1.53125 -8.25 C 1.550781 -8.601562 1.625 -8.925781 1.75 -9.21875 C 1.832031 -9.457031 1.960938 -9.632812 2.140625 -9.75 C 2.328125 -9.863281 2.523438 -9.914062 2.734375 -9.90625 C 2.953125 -9.90625 3.148438 -9.851562 3.328125 -9.75 C 3.503906 -9.644531 3.628906 -9.503906 3.703125 -9.328125 C 3.785156 -9.148438 3.773438 -8.9375 3.671875 -8.6875 C 3.566406 -8.40625 3.503906 -8.085938 3.484375 -7.734375 C 3.460938 -7.390625 3.4375 -7.066406 3.40625 -6.765625 C 3.382812 -6.628906 3.363281 -6.488281 3.34375 -6.34375 C 3.332031 -6.195312 3.316406 -6.050781 3.296875 -5.90625 L 5.15625 -5.90625 C 5.238281 -6.476562 5.328125 -7.054688 5.421875 -7.640625 C 5.523438 -8.222656 5.632812 -8.800781 5.75 -9.375 Z M 5.75 -9.375 "/></g></g></g><g fill="#004aad" fill-opacity="1"><g transform="translate(124.169309, 21.857778)"><g><path d="M 6.109375 -9.203125 C 6.359375 -9.171875 6.554688 -9.078125 6.703125 -8.921875 C 6.859375 -8.773438 6.960938 -8.597656 7.015625 -8.390625 C 7.078125 -8.179688 7.078125 -7.976562 7.015625 -7.78125 C 6.960938 -7.59375 6.859375 -7.441406 6.703125 -7.328125 C 6.554688 -7.210938 6.359375 -7.171875 6.109375 -7.203125 C 5.703125 -7.253906 5.273438 -7.289062 4.828125 -7.3125 C 4.765625 -6.34375 4.703125 -5.367188 4.640625 -4.390625 C 4.585938 -3.421875 4.53125 -2.445312 4.46875 -1.46875 C 4.457031 -1.207031 4.378906 -1 4.234375 -0.84375 C 4.085938 -0.6875 3.910156 -0.582031 3.703125 -0.53125 C 3.503906 -0.476562 3.304688 -0.476562 3.109375 -0.53125 C 2.910156 -0.582031 2.75 -0.6875 2.625 -0.84375 C 2.5 -1 2.441406 -1.207031 2.453125 -1.46875 C 2.515625 -2.445312 2.570312 -3.425781 2.625 -4.40625 C 2.6875 -5.382812 2.75 -6.363281 2.8125 -7.34375 C 2.414062 -7.320312 2.023438 -7.296875 1.640625 -7.265625 C 1.378906 -7.234375 1.171875 -7.28125 1.015625 -7.40625 C 0.859375 -7.53125 0.753906 -7.6875 0.703125 -7.875 C 0.648438 -8.070312 0.648438 -8.269531 0.703125 -8.46875 C 0.765625 -8.675781 0.867188 -8.851562 1.015625 -9 C 1.171875 -9.15625 1.378906 -9.25 1.640625 -9.28125 C 3.128906 -9.425781 4.617188 -9.398438 6.109375 -9.203125 Z M 6.109375 -9.203125 "/></g></g></g><g clip-path="url(#a82e9871af)"><path fill="#1d1d1b" d="M 144.734375 12.5625 C 145.457031 13.632812 146.351562 14.296875 146.390625 14.324219 C 146.445312 14.363281 146.511719 14.386719 146.578125 14.386719 C 146.636719 14.386719 146.699219 14.367188 146.753906 14.332031 C 146.792969 14.304688 147.726562 13.671875 148.460938 12.570312 C 149.027344 11.710938 149.316406 10.8125 149.316406 9.894531 C 149.316406 8.394531 148.089844 7.175781 146.578125 7.175781 C 145.066406 7.175781 143.835938 8.394531 143.835938 9.894531 C 143.835938 10.78125 144.136719 11.679688 144.734375 12.5625 Z M 146.578125 7.800781 C 147.742188 7.800781 148.691406 8.738281 148.691406 9.894531 C 148.691406 10.6875 148.4375 11.472656 147.933594 12.226562 C 147.457031 12.945312 146.875 13.453125 146.585938 13.679688 C 146.300781 13.441406 145.730469 12.921875 145.253906 12.214844 C 144.730469 11.4375 144.464844 10.65625 144.464844 9.894531 C 144.464844 8.738281 145.414062 7.800781 146.578125 7.800781 Z M 146.578125 7.800781 " fill-opacity="1" fill-rule="nonzero"/></g><path fill="#1d1d1b" d="M 146.578125 10.914062 C 147.152344 10.914062 147.617188 10.453125 147.617188 9.882812 C 147.617188 9.3125 147.152344 8.847656 146.578125 8.847656 C 146.003906 8.847656 145.535156 9.3125 145.535156 9.882812 C 145.535156 10.453125 146.003906 10.914062 146.578125 10.914062 Z M 146.578125 9.472656 C 146.804688 9.472656 146.992188 9.65625 146.992188 9.882812 C 146.992188 10.109375 146.804688 10.292969 146.578125 10.292969 C 146.347656 10.292969 146.164062 10.109375 146.164062 9.882812 C 146.164062 9.65625 146.347656 9.472656 146.578125 9.472656 Z M 146.578125 9.472656 " fill-opacity="1" fill-rule="nonzero"/><g clip-path="url(#807c34a507)"><path fill="#1d1d1b" d="M 142.386719 30.839844 L 142.054688 30.839844 L 142.054688 29.550781 C 142.054688 29.378906 141.914062 29.238281 141.742188 29.238281 L 140.125 29.238281 C 139.953125 29.238281 139.8125 29.378906 139.8125 29.550781 L 139.8125 30.839844 L 139.46875 30.839844 L 139.46875 27.417969 L 139.921875 27.417969 C 140.097656 27.417969 140.238281 27.277344 140.238281 27.105469 L 140.238281 25.617188 C 140.238281 25.445312 140.097656 25.308594 139.921875 25.308594 L 131.1875 25.308594 C 131.015625 25.308594 130.875 25.445312 130.875 25.617188 L 130.875 27.105469 C 130.875 27.277344 131.015625 27.417969 131.1875 27.417969 L 131.644531 27.417969 L 131.644531 32.757812 C 131.644531 32.929688 131.785156 33.066406 131.957031 33.066406 L 142.386719 33.066406 C 142.5625 33.066406 142.703125 32.929688 142.703125 32.757812 L 142.703125 31.152344 C 142.703125 30.980469 142.5625 30.839844 142.386719 30.839844 Z M 140.4375 29.859375 L 141.425781 29.859375 L 141.425781 30.839844 L 140.4375 30.839844 Z M 131.503906 25.929688 L 139.609375 25.929688 L 139.609375 26.792969 L 131.503906 26.792969 Z M 132.273438 27.417969 L 138.839844 27.417969 L 138.839844 32.445312 L 138.027344 32.445312 L 138.027344 28.480469 C 138.027344 28.308594 137.886719 28.167969 137.710938 28.167969 L 133.402344 28.167969 C 133.226562 28.167969 133.085938 28.308594 133.085938 28.480469 L 133.085938 32.445312 L 132.273438 32.445312 Z M 133.714844 29.859375 L 137.398438 29.859375 L 137.398438 30.308594 L 133.714844 30.308594 Z M 137.398438 29.238281 L 133.714844 29.238281 L 133.714844 28.792969 L 137.398438 28.792969 Z M 133.714844 30.929688 L 137.398438 30.929688 L 137.398438 31.375 L 133.714844 31.375 Z M 133.714844 32.445312 L 133.714844 32 L 137.398438 32 L 137.398438 32.445312 Z M 139.46875 31.464844 L 140.457031 31.464844 L 140.457031 32.445312 L 139.46875 32.445312 Z M 142.074219 32.445312 L 141.085938 32.445312 L 141.085938 31.464844 L 142.074219 31.464844 Z M 142.074219 32.445312 " fill-opacity="1" fill-rule="nonzero"/></g><path fill="#1d1d1b" d="M 138.84375 20.089844 C 139.019531 20.089844 139.160156 19.949219 139.160156 19.777344 C 139.160156 19.605469 139.019531 19.46875 138.84375 19.46875 C 136.492188 19.46875 134.582031 17.570312 134.582031 15.238281 C 134.582031 12.90625 136.492188 11.011719 138.84375 11.011719 L 142.722656 11.011719 C 142.894531 11.011719 143.035156 10.871094 143.035156 10.699219 C 143.035156 10.527344 142.894531 10.386719 142.722656 10.386719 L 138.84375 10.386719 C 136.148438 10.386719 133.953125 12.5625 133.953125 15.238281 C 133.953125 17.914062 136.148438 20.089844 138.84375 20.089844 Z M 138.84375 20.089844 " fill-opacity="1" fill-rule="nonzero"/><g clip-path="url(#5928bab3c1)"><path fill="#1d1d1b" d="M 150.78125 19.46875 C 150.609375 19.46875 150.46875 19.605469 150.46875 19.777344 C 150.46875 19.949219 150.609375 20.089844 150.78125 20.089844 C 153.339844 20.089844 155.417969 22.152344 155.417969 24.6875 C 155.417969 27.082031 153.457031 29.027344 151.046875 29.027344 L 144.5625 29.027344 C 144.390625 29.027344 144.25 29.164062 144.25 29.335938 C 144.25 29.507812 144.390625 29.648438 144.5625 29.648438 L 151.046875 29.648438 C 153.804688 29.648438 156.046875 27.421875 156.046875 24.6875 C 156.046875 21.808594 153.6875 19.46875 150.78125 19.46875 Z M 150.78125 19.46875 " fill-opacity="1" fill-rule="nonzero"/></g><path fill="#1d1d1b" d="M 145.90625 21.90625 C 146.035156 22.257812 146.371094 22.507812 146.769531 22.507812 C 147.164062 22.507812 147.503906 22.257812 147.632812 21.90625 L 148.773438 21.90625 C 148.945312 21.90625 149.085938 21.765625 149.085938 21.59375 L 149.085938 17.496094 C 149.085938 17.324219 148.945312 17.183594 148.773438 17.183594 L 143.097656 17.183594 C 142.921875 17.183594 142.78125 17.324219 142.78125 17.496094 L 142.78125 18.347656 L 141.207031 18.347656 C 141.097656 18.347656 140.992188 18.40625 140.9375 18.503906 L 140.078125 19.972656 C 140.078125 19.976562 140.078125 19.980469 140.074219 19.984375 C 140.066406 20 140.058594 20.015625 140.050781 20.035156 C 140.050781 20.042969 140.046875 20.046875 140.046875 20.054688 C 140.042969 20.078125 140.039062 20.101562 140.039062 20.125 C 140.039062 20.125 140.039062 20.125 140.039062 20.128906 L 140.039062 21.59375 C 140.039062 21.765625 140.179688 21.90625 140.351562 21.90625 L 141.023438 21.90625 C 141.152344 22.257812 141.492188 22.507812 141.886719 22.507812 C 142.285156 22.507812 142.621094 22.257812 142.75 21.90625 Z M 146.769531 21.882812 C 146.609375 21.882812 146.476562 21.753906 146.476562 21.59375 C 146.476562 21.433594 146.609375 21.304688 146.769531 21.304688 C 146.929688 21.304688 147.0625 21.433594 147.0625 21.59375 C 147.0625 21.753906 146.929688 21.882812 146.769531 21.882812 Z M 143.410156 17.808594 L 148.460938 17.808594 L 148.460938 21.285156 L 147.632812 21.285156 C 147.503906 20.933594 147.167969 20.683594 146.769531 20.683594 C 146.371094 20.683594 146.03125 20.933594 145.902344 21.285156 L 143.410156 21.285156 Z M 141.390625 18.972656 L 142.78125 18.972656 L 142.78125 19.816406 L 140.894531 19.816406 Z M 140.664062 20.4375 L 142.78125 20.4375 L 142.78125 21.285156 L 142.753906 21.285156 C 142.625 20.933594 142.285156 20.683594 141.886719 20.683594 C 141.492188 20.683594 141.152344 20.933594 141.023438 21.285156 L 140.664062 21.285156 Z M 141.886719 21.882812 C 141.726562 21.882812 141.597656 21.753906 141.597656 21.59375 C 141.597656 21.433594 141.726562 21.304688 141.886719 21.304688 C 142.050781 21.304688 142.179688 21.433594 142.179688 21.59375 C 142.179688 21.753906 142.050781 21.882812 141.886719 21.882812 Z M 141.886719 21.882812 " fill-opacity="1" fill-rule="nonzero"/></svg>