<svg xmlns="http://www.w3.org/2000/svg" xmlns:xlink="http://www.w3.org/1999/xlink" width="300" zoomAndPan="magnify" viewBox="0 0 224.87999 44.999999" height="60" preserveAspectRatio="xMidYMid meet" version="1.0"><defs><g/><clipPath id="ce350b87c1"><path d="M 18 1 L 92 1 L 92 39.742188 L 18 39.742188 Z M 18 1 " clip-rule="nonzero"/></clipPath><clipPath id="b1d22398c0"><path d="M 23 23 L 78.542969 23 L 78.542969 43 L 23 43 Z M 23 23 " clip-rule="nonzero"/></clipPath><clipPath id="84d04be994"><path d="M 21.570312 12.039062 L 75 12.039062 L 75 43.523438 L 21.570312 43.523438 Z M 21.570312 12.039062 " clip-rule="nonzero"/></clipPath></defs><g clip-path="url(#ce350b87c1)"><path fill="#fad02c" d="M 18.128906 39.441406 C 17.8125 34.496094 18.515625 29.703125 20.238281 25.054688 C 21.996094 20.339844 24.613281 16.167969 28.097656 12.535156 C 31.597656 8.867188 35.675781 6.035156 40.335938 4.035156 C 42.652344 3.046875 45.046875 2.296875 47.515625 1.792969 C 49.984375 1.285156 52.476562 1.035156 54.996094 1.035156 C 57.515625 1.035156 60.011719 1.285156 62.476562 1.792969 C 64.945312 2.296875 67.339844 3.046875 69.65625 4.035156 C 74.316406 6.035156 78.402344 8.867188 81.902344 12.535156 C 85.375 16.171875 87.988281 20.34375 89.738281 25.054688 C 91.460938 29.703125 92.160156 34.496094 91.839844 39.441406 C 91.519531 34.625 90.351562 30.023438 88.332031 25.632812 C 86.335938 21.320312 83.617188 17.523438 80.171875 14.242188 C 79.332031 13.441406 78.457031 12.683594 77.546875 11.964844 C 76.636719 11.25 75.691406 10.578125 74.714844 9.949219 C 73.742188 9.320312 72.738281 8.742188 71.707031 8.210938 C 70.675781 7.679688 69.621094 7.195312 68.542969 6.765625 C 67.46875 6.332031 66.371094 5.953125 65.261719 5.628906 C 64.148438 5.300781 63.019531 5.027344 61.882812 4.808594 C 60.742188 4.585938 59.597656 4.421875 58.441406 4.3125 C 57.285156 4.203125 56.128906 4.148438 54.96875 4.148438 C 53.808594 4.148438 52.652344 4.203125 51.496094 4.3125 C 50.34375 4.421875 49.195312 4.585938 48.054688 4.808594 C 46.917969 5.027344 45.792969 5.300781 44.679688 5.628906 C 43.566406 5.953125 42.472656 6.332031 41.394531 6.765625 C 40.316406 7.195312 39.261719 7.679688 38.234375 8.210938 C 37.203125 8.742188 36.199219 9.320312 35.222656 9.949219 C 34.246094 10.578125 33.304688 11.25 32.390625 11.964844 C 31.480469 12.683594 30.605469 13.441406 29.765625 14.242188 C 26.332031 17.527344 23.621094 21.320312 21.628906 25.632812 C 19.613281 30.023438 18.445312 34.625 18.128906 39.441406 Z M 18.128906 39.441406 " fill-opacity="1" fill-rule="nonzero"/></g><g clip-path="url(#b1d22398c0)"><path fill="#ff3131" d="M 78.894531 35.882812 C 78.894531 35.882812 78.820312 35.730469 78.703125 35.574219 L 78.703125 33.941406 C 78.703125 33.941406 78.644531 33.730469 78.503906 33.636719 C 78.503906 33.636719 78.210938 31.484375 77.730469 29.863281 C 77.730469 29.863281 77.445312 28.390625 75.105469 27.933594 L 66.722656 27.933594 C 66.722656 27.933594 66.605469 27.933594 66.488281 27.980469 C 66.535156 27.863281 66.652344 27.78125 66.78125 27.78125 L 73.214844 27.628906 C 73.15625 27.203125 72.835938 27.0625 72.414062 27.0625 L 65.746094 27.0625 C 65.488281 27.0625 65.230469 27.085938 64.984375 27.15625 L 53.214844 31.121094 L 64.277344 29.039062 L 64.300781 30.285156 L 53.53125 32.988281 L 64.324219 31.648438 L 64.347656 32.695312 L 53.285156 34.8125 L 64.371094 34.328125 L 64.394531 35.410156 L 53.484375 36.726562 L 64.429688 37.257812 L 64.453125 38.445312 L 53.554688 38.773438 L 65.289062 40.328125 C 65.289062 40.328125 65.171875 38.070312 66.066406 37.5625 C 66.066406 37.292969 66.066406 36.90625 66.066406 36.445312 C 66.101562 36.457031 66.148438 36.46875 66.195312 36.46875 L 66.195312 36.953125 C 66.195312 36.953125 66.195312 37.023438 66.265625 37.046875 L 66.265625 37.773438 C 66.265625 37.773438 65.382812 38.199219 65.546875 40.632812 C 65.546875 40.632812 65.898438 40.714844 66.054688 40.738281 C 66.03125 40.375 66.03125 39.867188 66.03125 39.867188 C 66.101562 38.691406 66.382812 38.410156 66.382812 38.410156 C 66.792969 37.785156 67.453125 38.011719 67.453125 38.011719 C 67.0625 38.035156 66.6875 38.351562 66.570312 38.527344 C 66.136719 39.175781 66.171875 40.171875 66.230469 40.738281 C 66.242188 40.867188 66.300781 41.066406 66.371094 41.265625 C 66.371094 41.265625 59.527344 40.5625 59.527344 40.5625 L 67.265625 42.570312 L 68.226562 42.546875 L 68.25 42.546875 C 68.25 42.546875 68.921875 42.535156 69.132812 41.65625 L 74.105469 41.585938 C 74.105469 41.585938 74.507812 42.21875 75.035156 42.207031 L 76.023438 42.207031 C 76.023438 42.207031 76.445312 42.171875 76.789062 41.574219 L 77.953125 41.480469 C 77.953125 41.480469 78.5625 41.417969 78.609375 41.042969 L 78.609375 37.515625 C 78.621094 37.515625 78.871094 37.550781 78.871094 37.164062 C 78.871094 37.128906 78.871094 35.894531 78.871094 35.894531 Z M 77.375 30.085938 C 77.375 30.085938 77.71875 31.414062 77.941406 33.636719 C 77.941406 33.636719 72.554688 33.835938 70.710938 33.71875 C 70.710938 33.71875 70.566406 31.214844 70.449219 30.144531 L 77.375 30.097656 Z M 77.65625 35.648438 L 72.71875 35.753906 L 72.003906 35.257812 L 72.777344 35.445312 L 77.671875 35.375 L 77.90625 35.257812 Z M 77.789062 36.234375 L 77.539062 36.621094 L 72.976562 36.75 L 72.355469 36.28125 L 73.074219 36.480469 L 77.550781 36.351562 Z M 71.414062 37.503906 L 71.226562 37.398438 C 71.167969 37.363281 71.132812 37.304688 71.132812 37.246094 L 71.097656 36.316406 C 71.097656 36.257812 71.15625 36.1875 71.203125 36.222656 L 71.367188 36.339844 C 71.367188 36.363281 71.414062 37.515625 71.414062 37.515625 Z M 69.414062 28.851562 C 69.414062 28.851562 69.59375 28.828125 69.628906 28.980469 L 69.628906 29.496094 C 69.628906 29.496094 69.511719 29.695312 69.261719 29.660156 L 67.769531 29.589844 L 69.425781 29.4375 L 69.425781 29.0625 C 69.425781 29.0625 67.242188 29.015625 67.242188 29.015625 L 69.414062 28.863281 Z M 67.628906 41.289062 C 67.546875 41.40625 67.441406 41.480469 67.335938 41.480469 C 67.003906 41.492188 66.722656 40.960938 66.6875 40.289062 C 66.652344 39.621094 66.886719 39.054688 67.21875 39.042969 C 67.371094 39.042969 67.511719 39.152344 67.628906 39.351562 C 67.605469 39.351562 67.582031 39.351562 67.558594 39.351562 C 67.300781 39.363281 67.109375 39.808594 67.132812 40.351562 C 67.15625 40.867188 67.382812 41.289062 67.628906 41.300781 Z M 68.699219 38.351562 C 68.15625 37.070312 66.6875 37.339844 66.6875 37.339844 L 66.6875 36.953125 C 68.652344 36.785156 68.722656 38.410156 68.699219 38.351562 Z M 66.464844 36.058594 L 69.097656 35.882812 L 69.097656 35.046875 C 69.097656 35.046875 66.148438 34.304688 66.148438 34.304688 L 69.605469 34.871094 L 69.605469 36.222656 C 69.605469 36.222656 66.453125 36.058594 66.453125 36.058594 Z M 67.242188 32.847656 C 66.769531 32.777344 66.792969 32.15625 66.792969 32.15625 L 66.792969 30.226562 C 66.792969 30.226562 69.804688 30.167969 69.804688 30.167969 L 69.875 33.601562 Z M 70.214844 39.621094 C 70.144531 39.621094 70.085938 39.5625 70.085938 39.492188 L 70.085938 38.796875 C 70.085938 38.726562 70.144531 38.667969 70.214844 38.667969 L 71.8125 38.667969 C 72.648438 38.703125 72.613281 39.609375 72.613281 39.609375 L 70.214844 39.609375 Z M 77.457031 37.503906 L 73.226562 37.679688 L 72.566406 37.222656 L 73.285156 37.421875 L 77.492188 37.28125 L 77.730469 37.164062 L 77.46875 37.503906 Z M 78.46875 39.292969 C 78.46875 39.351562 78.421875 39.398438 78.363281 39.398438 L 77.765625 39.398438 C 77.765625 38.5625 78.292969 38.492188 78.292969 38.492188 L 78.492188 38.445312 L 78.492188 39.28125 Z M 78.597656 37.175781 C 78.597656 37.175781 78.585938 37.328125 78.28125 37.351562 L 78.28125 36.292969 C 78.28125 36.246094 78.304688 36.1875 78.351562 36.164062 L 78.492188 36.070312 C 78.539062 36.046875 78.597656 36.070312 78.597656 36.128906 Z M 54.175781 23.898438 L 40.550781 23.898438 C 40.324219 23.898438 40.148438 24.078125 40.148438 24.300781 L 40.148438 27.285156 C 38.386719 27.617188 36.894531 27.957031 35.753906 28.226562 L 35.753906 27.980469 L 32.613281 27.980469 C 32.414062 27.980469 32.25 28.144531 32.25 28.34375 L 32.25 28.921875 C 32 29.203125 31.765625 29.554688 31.765625 29.554688 L 30.835938 31.460938 C 30.4375 32.542969 29.285156 33.246094 29.285156 33.246094 L 28.921875 33.390625 L 28.921875 31.976562 L 26.746094 31.976562 C 26.546875 31.976562 26.382812 32.144531 26.382812 32.34375 L 26.382812 34.351562 L 23.054688 35.621094 L 23.054688 33.542969 C 23.054688 33.332031 23.160156 33.140625 23.335938 33.023438 L 25.664062 31.53125 C 25.757812 31.472656 25.863281 31.4375 25.980469 31.4375 L 28.921875 31.4375 L 28.921875 29.53125 C 28.921875 29.320312 29.027344 29.132812 29.203125 29.015625 L 31.53125 27.523438 C 31.625 27.460938 31.730469 27.425781 31.847656 27.425781 L 35.753906 27.425781 L 35.753906 25.992188 C 35.753906 25.769531 35.871094 25.558594 36.058594 25.441406 L 39.363281 23.40625 C 39.46875 23.347656 39.585938 23.3125 39.703125 23.3125 L 54.53125 23.3125 C 54.894531 23.3125 55.1875 23.605469 55.1875 23.972656 L 55.1875 26.324219 C 54.976562 26.261719 54.765625 26.214844 54.566406 26.179688 L 54.566406 24.289062 C 54.566406 24.066406 54.390625 23.886719 54.164062 23.886719 Z M 54.175781 23.898438 " fill-opacity="1" fill-rule="nonzero"/></g><g clip-path="url(#84d04be994)"><path fill="#fad02c" d="M 40.714844 42.925781 C 40.714844 42.925781 39.246094 42.855469 38.996094 43.089844 C 38.996094 43.089844 37.515625 43.59375 36.222656 42.972656 C 36.222656 42.972656 37.234375 43.136719 38.515625 42.832031 C 38.515625 42.832031 39.316406 42.546875 40.726562 42.925781 Z M 61.691406 30.742188 C 58.890625 35.835938 56.621094 35.363281 54.4375 39.902344 C 54.4375 39.902344 53.589844 38.832031 52.835938 38.257812 C 52.835938 38.257812 52.15625 37.527344 51.941406 36.714844 C 51.941406 36.714844 51.800781 37.785156 52.460938 38.515625 C 53.425781 39.609375 54.035156 40.632812 54.140625 41.3125 C 54.164062 41.441406 54.152344 41.5625 54.140625 41.667969 L 53.578125 41.667969 C 53.625 41.667969 53.671875 41.667969 53.71875 41.679688 C 56.140625 42.007812 58.410156 42.054688 58.410156 42.054688 C 56.574219 42.582031 54.519531 42.476562 52.578125 42.195312 C 50.824219 41.949219 49.167969 41.574219 47.863281 41.417969 C 46.429688 41.253906 44.980469 41.632812 43.949219 42.007812 C 43.019531 42.359375 41.726562 42.726562 41.726562 42.726562 C 41.949219 42.453125 42.59375 42.136719 42.855469 41.9375 C 43.136719 41.773438 43.429688 41.632812 43.722656 41.515625 L 32.976562 41.359375 C 34.90625 41.902344 36.855469 42.335938 36.855469 42.335938 C 34.164062 42.125 30.027344 41.3125 30.027344 41.3125 L 30.015625 41.3125 C 26.332031 40.515625 25.109375 40.328125 23.839844 40.726562 C 22.996094 40.984375 22.605469 41.289062 22.535156 41.347656 C 22.757812 41.007812 23.054688 40.726562 23.394531 40.503906 C 22.878906 39.960938 21.570312 38.421875 21.59375 36.65625 L 29.320312 33.800781 C 29.320312 33.800781 30.589844 33.554688 30.988281 32.472656 L 31.953125 30.589844 C 31.953125 30.589844 32.214844 29.683594 33.542969 29.367188 C 35.246094 28.96875 42.300781 27.039062 51.671875 26.535156 C 52.578125 26.488281 53.484375 26.535156 54.367188 26.6875 C 56.09375 26.992188 58.703125 28.050781 61.242188 29.203125 C 61.820312 29.472656 62.019531 30.179688 61.714844 30.742188 Z M 36.84375 29.601562 L 34.90625 30.050781 L 34.847656 30.8125 L 36.738281 30.367188 L 36.832031 29.601562 Z M 39.539062 29.015625 L 37.597656 29.460938 L 37.503906 30.238281 L 39.445312 29.789062 L 39.550781 29.027344 Z M 74.402344 13.164062 C 74.507812 14.941406 69.332031 16.621094 69.332031 16.621094 C 69.332031 16.621094 63.488281 18.597656 58.726562 19.972656 L 58.28125 20.078125 L 58.28125 20.101562 C 56.445312 20.621094 54.800781 21.03125 53.777344 21.183594 C 50.039062 21.738281 47.050781 21.242188 46.757812 21.21875 C 46.464844 21.195312 46.417969 21.089844 46.417969 21.089844 L 46.324219 20.796875 C 46.289062 20.65625 46.511719 20.632812 46.511719 20.632812 L 41.914062 19.714844 L 42.714844 19.480469 L 47.308594 19.855469 L 46.132812 16.503906 L 46.839844 16.316406 L 50.296875 18.9375 L 54.730469 17.539062 L 53.835938 16.925781 L 45.101562 13.519531 L 47.371094 12.554688 L 61.125 15.082031 C 61.125 15.082031 70.460938 12.222656 70.792969 12.199219 C 71.554688 12.070312 72.214844 12.414062 72.214844 12.414062 C 72.074219 12.390625 71.472656 12.472656 71.472656 12.472656 C 71.027344 12.566406 71.167969 12.859375 71.167969 12.859375 C 72.742188 12.425781 73.847656 12.660156 74.167969 12.777344 C 74.496094 12.90625 74.402344 13.152344 74.402344 13.152344 Z M 64.078125 14.988281 C 64.078125 14.90625 64.019531 14.871094 63.9375 14.894531 L 63.832031 14.929688 C 63.75 14.953125 63.691406 15.035156 63.691406 15.117188 L 63.691406 15.339844 C 63.691406 15.421875 63.75 15.457031 63.820312 15.433594 L 63.925781 15.398438 C 64.007812 15.375 64.066406 15.292969 64.066406 15.210938 L 64.066406 14.988281 Z M 65.066406 14.660156 C 65.066406 14.574219 65.007812 14.539062 64.925781 14.5625 L 64.816406 14.597656 C 64.734375 14.621094 64.675781 14.707031 64.675781 14.789062 L 64.675781 15.011719 C 64.675781 15.09375 64.734375 15.128906 64.804688 15.105469 L 64.914062 15.070312 C 64.996094 15.046875 65.054688 14.964844 65.054688 14.882812 L 65.054688 14.660156 Z M 66.054688 14.328125 C 66.054688 14.246094 65.992188 14.210938 65.910156 14.234375 L 65.804688 14.269531 C 65.722656 14.292969 65.664062 14.375 65.664062 14.457031 L 65.664062 14.683594 C 65.664062 14.765625 65.722656 14.800781 65.792969 14.777344 L 65.898438 14.742188 C 65.980469 14.71875 66.042969 14.632812 66.042969 14.550781 L 66.042969 14.328125 Z M 67.039062 14 C 67.039062 13.917969 66.980469 13.882812 66.898438 13.90625 L 66.792969 13.941406 C 66.710938 13.964844 66.652344 14.046875 66.652344 14.128906 L 66.652344 14.351562 C 66.652344 14.433594 66.710938 14.46875 66.78125 14.445312 L 66.886719 14.410156 C 66.96875 14.386719 67.027344 14.304688 67.027344 14.222656 L 67.027344 14 Z M 68.027344 13.671875 C 68.027344 13.589844 67.96875 13.554688 67.886719 13.578125 L 67.78125 13.613281 C 67.699219 13.636719 67.640625 13.71875 67.640625 13.800781 L 67.640625 14.023438 C 67.640625 14.105469 67.699219 14.140625 67.769531 14.117188 L 67.875 14.082031 C 67.957031 14.058594 68.015625 13.976562 68.015625 13.894531 L 68.015625 13.671875 Z M 69.015625 13.339844 C 69.015625 13.257812 68.957031 13.222656 68.875 13.246094 L 68.769531 13.28125 C 68.6875 13.304688 68.628906 13.386719 68.628906 13.46875 L 68.628906 13.695312 C 68.628906 13.777344 68.6875 13.8125 68.757812 13.789062 L 68.863281 13.753906 C 68.945312 13.730469 69.003906 13.648438 69.003906 13.566406 L 69.003906 13.339844 Z M 57.808594 22.464844 L 59.316406 22.136719 L 62.808594 19.007812 L 58.726562 19.972656 C 58.574219 20.019531 58.421875 20.054688 58.28125 20.101562 L 57.808594 22.476562 Z M 57.808594 22.464844 " fill-opacity="1" fill-rule="nonzero"/></g><g fill="#56aeff" fill-opacity="1"><g transform="translate(96.47439, 18.06999)"><g><path d="M 9.8125 0 L 7.6875 0 L 6.90625 -2.359375 L 3 -2.359375 L 2.234375 0 L 0.15625 0 L 3.6875 -10.21875 L 6.28125 -10.21875 Z M 4.859375 -8.078125 L 3.546875 -4.046875 L 6.359375 -4.046875 L 5.03125 -8.078125 Z M 4.859375 -8.078125 "/></g></g></g><g fill="#56aeff" fill-opacity="1"><g transform="translate(109.789296, 18.06999)"><g><path d="M 4.53125 0.140625 C 3.820312 0.140625 3.191406 0.0546875 2.640625 -0.109375 C 2.085938 -0.285156 1.625 -0.515625 1.25 -0.796875 C 0.882812 -1.085938 0.601562 -1.398438 0.40625 -1.734375 L 1.53125 -3.09375 L 1.703125 -3.09375 C 2.003906 -2.632812 2.390625 -2.269531 2.859375 -2 C 3.335938 -1.726562 3.894531 -1.59375 4.53125 -1.59375 C 5.070312 -1.59375 5.476562 -1.707031 5.75 -1.9375 C 6.019531 -2.164062 6.15625 -2.484375 6.15625 -2.890625 C 6.15625 -3.128906 6.109375 -3.328125 6.015625 -3.484375 C 5.929688 -3.648438 5.785156 -3.789062 5.578125 -3.90625 C 5.378906 -4.03125 5.109375 -4.132812 4.765625 -4.21875 L 3.453125 -4.515625 C 2.523438 -4.722656 1.835938 -5.070312 1.390625 -5.5625 C 0.941406 -6.050781 0.71875 -6.679688 0.71875 -7.453125 C 0.71875 -8.035156 0.863281 -8.546875 1.15625 -8.984375 C 1.445312 -9.421875 1.867188 -9.757812 2.421875 -10 C 2.972656 -10.238281 3.628906 -10.359375 4.390625 -10.359375 C 5.179688 -10.359375 5.859375 -10.253906 6.421875 -10.046875 C 6.984375 -9.835938 7.457031 -9.519531 7.84375 -9.09375 L 6.84375 -7.734375 L 6.671875 -7.734375 C 6.378906 -8.035156 6.046875 -8.257812 5.671875 -8.40625 C 5.296875 -8.5625 4.867188 -8.640625 4.390625 -8.640625 C 3.835938 -8.640625 3.414062 -8.539062 3.125 -8.34375 C 2.84375 -8.144531 2.703125 -7.875 2.703125 -7.53125 C 2.703125 -7.207031 2.800781 -6.953125 3 -6.765625 C 3.207031 -6.578125 3.554688 -6.425781 4.046875 -6.3125 L 5.390625 -6.03125 C 6.390625 -5.820312 7.109375 -5.46875 7.546875 -4.96875 C 7.992188 -4.46875 8.21875 -3.816406 8.21875 -3.015625 C 8.21875 -2.367188 8.082031 -1.8125 7.8125 -1.34375 C 7.539062 -0.875 7.125 -0.507812 6.5625 -0.25 C 6.007812 0.0078125 5.332031 0.140625 4.53125 0.140625 Z M 4.53125 0.140625 "/></g></g></g><g fill="#56aeff" fill-opacity="1"><g transform="translate(121.924087, 18.06999)"><g><path d="M 4.53125 0.140625 C 3.820312 0.140625 3.191406 0.0546875 2.640625 -0.109375 C 2.085938 -0.285156 1.625 -0.515625 1.25 -0.796875 C 0.882812 -1.085938 0.601562 -1.398438 0.40625 -1.734375 L 1.53125 -3.09375 L 1.703125 -3.09375 C 2.003906 -2.632812 2.390625 -2.269531 2.859375 -2 C 3.335938 -1.726562 3.894531 -1.59375 4.53125 -1.59375 C 5.070312 -1.59375 5.476562 -1.707031 5.75 -1.9375 C 6.019531 -2.164062 6.15625 -2.484375 6.15625 -2.890625 C 6.15625 -3.128906 6.109375 -3.328125 6.015625 -3.484375 C 5.929688 -3.648438 5.785156 -3.789062 5.578125 -3.90625 C 5.378906 -4.03125 5.109375 -4.132812 4.765625 -4.21875 L 3.453125 -4.515625 C 2.523438 -4.722656 1.835938 -5.070312 1.390625 -5.5625 C 0.941406 -6.050781 0.71875 -6.679688 0.71875 -7.453125 C 0.71875 -8.035156 0.863281 -8.546875 1.15625 -8.984375 C 1.445312 -9.421875 1.867188 -9.757812 2.421875 -10 C 2.972656 -10.238281 3.628906 -10.359375 4.390625 -10.359375 C 5.179688 -10.359375 5.859375 -10.253906 6.421875 -10.046875 C 6.984375 -9.835938 7.457031 -9.519531 7.84375 -9.09375 L 6.84375 -7.734375 L 6.671875 -7.734375 C 6.378906 -8.035156 6.046875 -8.257812 5.671875 -8.40625 C 5.296875 -8.5625 4.867188 -8.640625 4.390625 -8.640625 C 3.835938 -8.640625 3.414062 -8.539062 3.125 -8.34375 C 2.84375 -8.144531 2.703125 -7.875 2.703125 -7.53125 C 2.703125 -7.207031 2.800781 -6.953125 3 -6.765625 C 3.207031 -6.578125 3.554688 -6.425781 4.046875 -6.3125 L 5.390625 -6.03125 C 6.390625 -5.820312 7.109375 -5.46875 7.546875 -4.96875 C 7.992188 -4.46875 8.21875 -3.816406 8.21875 -3.015625 C 8.21875 -2.367188 8.082031 -1.8125 7.8125 -1.34375 C 7.539062 -0.875 7.125 -0.507812 6.5625 -0.25 C 6.007812 0.0078125 5.332031 0.140625 4.53125 0.140625 Z M 4.53125 0.140625 "/></g></g></g><g fill="#56aeff" fill-opacity="1"><g transform="translate(134.058879, 18.06999)"><g><path d="M 5.421875 0.140625 C 4.015625 0.140625 2.96875 -0.191406 2.28125 -0.859375 C 1.601562 -1.523438 1.265625 -2.515625 1.265625 -3.828125 L 1.265625 -10.21875 L 3.25 -10.21875 L 3.25 -3.84375 C 3.25 -3.09375 3.425781 -2.53125 3.78125 -2.15625 C 4.132812 -1.789062 4.679688 -1.609375 5.421875 -1.609375 C 6.867188 -1.609375 7.59375 -2.351562 7.59375 -3.84375 L 7.59375 -10.21875 L 9.5625 -10.21875 L 9.5625 -3.828125 C 9.5625 -2.515625 9.222656 -1.523438 8.546875 -0.859375 C 7.867188 -0.191406 6.828125 0.140625 5.421875 0.140625 Z M 5.421875 0.140625 "/></g></g></g><g fill="#56aeff" fill-opacity="1"><g transform="translate(148.246639, 18.06999)"><g><path d="M 1.328125 0 L 1.328125 -10.21875 L 5.4375 -10.21875 C 6.488281 -10.21875 7.28125 -9.972656 7.8125 -9.484375 C 8.351562 -8.992188 8.625 -8.320312 8.625 -7.46875 C 8.625 -6.851562 8.46875 -6.347656 8.15625 -5.953125 C 7.84375 -5.554688 7.375 -5.25 6.75 -5.03125 L 6.75 -4.890625 C 7.070312 -4.753906 7.332031 -4.546875 7.53125 -4.265625 C 7.726562 -3.992188 7.914062 -3.585938 8.09375 -3.046875 L 9.109375 0 L 7.03125 0 L 6.03125 -3.046875 C 5.9375 -3.359375 5.820312 -3.597656 5.6875 -3.765625 C 5.5625 -3.941406 5.398438 -4.066406 5.203125 -4.140625 C 5.003906 -4.210938 4.75 -4.25 4.4375 -4.25 L 3.34375 -4.25 L 3.34375 0 Z M 5.1875 -5.859375 C 6.164062 -5.859375 6.65625 -6.3125 6.65625 -7.21875 C 6.65625 -8.144531 6.164062 -8.609375 5.1875 -8.609375 L 3.34375 -8.609375 L 3.34375 -5.859375 Z M 5.1875 -5.859375 "/></g></g></g><g fill="#56aeff" fill-opacity="1"><g transform="translate(161.156535, 18.06999)"><g><path d="M 9.8125 0 L 7.6875 0 L 6.90625 -2.359375 L 3 -2.359375 L 2.234375 0 L 0.15625 0 L 3.6875 -10.21875 L 6.28125 -10.21875 Z M 4.859375 -8.078125 L 3.546875 -4.046875 L 6.359375 -4.046875 L 5.03125 -8.078125 Z M 4.859375 -8.078125 "/></g></g></g><g fill="#56aeff" fill-opacity="1"><g transform="translate(174.471439, 18.06999)"><g><path d="M 3.28125 0 L 1.328125 0 L 1.328125 -10.21875 L 3.640625 -10.21875 L 7.75 -3.640625 L 7.921875 -3.65625 L 7.921875 -10.21875 L 9.875 -10.21875 L 9.875 0 L 7.796875 0 L 3.453125 -7.03125 L 3.28125 -7 Z M 3.28125 0 "/></g></g></g><g fill="#56aeff" fill-opacity="1"><g transform="translate(189.029297, 18.06999)"><g><path d="M 5.578125 0.140625 C 4.640625 0.140625 3.8125 -0.0507812 3.09375 -0.4375 C 2.375 -0.832031 1.8125 -1.421875 1.40625 -2.203125 C 1 -2.984375 0.796875 -3.953125 0.796875 -5.109375 C 0.796875 -6.253906 1 -7.21875 1.40625 -8 C 1.8125 -8.789062 2.375 -9.378906 3.09375 -9.765625 C 3.8125 -10.160156 4.640625 -10.359375 5.578125 -10.359375 C 6.566406 -10.359375 7.40625 -10.164062 8.09375 -9.78125 C 8.78125 -9.394531 9.269531 -8.8125 9.5625 -8.03125 L 8.078125 -7.125 L 7.90625 -7.140625 C 7.6875 -7.671875 7.390625 -8.050781 7.015625 -8.28125 C 6.640625 -8.507812 6.160156 -8.625 5.578125 -8.625 C 4.734375 -8.625 4.070312 -8.34375 3.59375 -7.78125 C 3.125 -7.21875 2.890625 -6.328125 2.890625 -5.109375 C 2.890625 -3.890625 3.125 -3 3.59375 -2.4375 C 4.070312 -1.875 4.734375 -1.59375 5.578125 -1.59375 C 6.910156 -1.59375 7.722656 -2.238281 8.015625 -3.53125 L 8.203125 -3.53125 L 9.6875 -2.765625 C 9.40625 -1.796875 8.925781 -1.066406 8.25 -0.578125 C 7.570312 -0.0976562 6.679688 0.140625 5.578125 0.140625 Z M 5.578125 0.140625 "/></g></g></g><g fill="#56aeff" fill-opacity="1"><g transform="translate(202.407046, 18.06999)"><g><path d="M 3.34375 -4.484375 L 3.34375 -1.6875 L 8.21875 -1.6875 L 8.21875 0 L 1.328125 0 L 1.328125 -10.21875 L 8.109375 -10.21875 L 8.109375 -8.53125 L 3.34375 -8.53125 L 3.34375 -6.140625 L 7.515625 -6.140625 L 7.515625 -4.484375 Z M 3.34375 -4.484375 "/></g></g></g><g fill="#56aeff" fill-opacity="1"><g transform="translate(112.918739, 37.559589)"><g><path d="M 7.8125 -10.21875 L 7.8125 -8.53125 L 3.34375 -8.53125 L 3.34375 -5.828125 L 7.390625 -5.828125 L 7.390625 -4.15625 L 3.34375 -4.15625 L 3.34375 0 L 1.328125 0 L 1.328125 -10.21875 Z M 7.8125 -10.21875 "/></g></g></g><g fill="#56aeff" fill-opacity="1"><g transform="translate(124.536796, 37.559589)"><g><path d="M 1.328125 0 L 1.328125 -10.21875 L 5.4375 -10.21875 C 6.488281 -10.21875 7.28125 -9.972656 7.8125 -9.484375 C 8.351562 -8.992188 8.625 -8.320312 8.625 -7.46875 C 8.625 -6.851562 8.46875 -6.347656 8.15625 -5.953125 C 7.84375 -5.554688 7.375 -5.25 6.75 -5.03125 L 6.75 -4.890625 C 7.070312 -4.753906 7.332031 -4.546875 7.53125 -4.265625 C 7.726562 -3.992188 7.914062 -3.585938 8.09375 -3.046875 L 9.109375 0 L 7.03125 0 L 6.03125 -3.046875 C 5.9375 -3.359375 5.820312 -3.597656 5.6875 -3.765625 C 5.5625 -3.941406 5.398438 -4.066406 5.203125 -4.140625 C 5.003906 -4.210938 4.75 -4.25 4.4375 -4.25 L 3.34375 -4.25 L 3.34375 0 Z M 5.1875 -5.859375 C 6.164062 -5.859375 6.65625 -6.3125 6.65625 -7.21875 C 6.65625 -8.144531 6.164062 -8.609375 5.1875 -8.609375 L 3.34375 -8.609375 L 3.34375 -5.859375 Z M 5.1875 -5.859375 "/></g></g></g><g fill="#56aeff" fill-opacity="1"><g transform="translate(137.446693, 37.559589)"><g><path d="M 3.34375 -4.484375 L 3.34375 -1.6875 L 8.21875 -1.6875 L 8.21875 0 L 1.328125 0 L 1.328125 -10.21875 L 8.109375 -10.21875 L 8.109375 -8.53125 L 3.34375 -8.53125 L 3.34375 -6.140625 L 7.515625 -6.140625 L 7.515625 -4.484375 Z M 3.34375 -4.484375 "/></g></g></g><g fill="#56aeff" fill-opacity="1"><g transform="translate(149.588474, 37.559589)"><g><path d="M 3.34375 0 L 1.328125 0 L 1.328125 -10.21875 L 3.34375 -10.21875 Z M 3.34375 0 "/></g></g></g><g fill="#56aeff" fill-opacity="1"><g transform="translate(157.631289, 37.559589)"><g><path d="M 4.96875 0.140625 C 4.113281 0.140625 3.375 -0.0507812 2.75 -0.4375 C 2.125 -0.820312 1.640625 -1.40625 1.296875 -2.1875 C 0.960938 -2.976562 0.796875 -3.953125 0.796875 -5.109375 C 0.796875 -6.273438 1 -7.25 1.40625 -8.03125 C 1.8125 -8.8125 2.375 -9.394531 3.09375 -9.78125 C 3.8125 -10.164062 4.648438 -10.359375 5.609375 -10.359375 C 6.585938 -10.359375 7.421875 -10.175781 8.109375 -9.8125 C 8.796875 -9.457031 9.28125 -8.921875 9.5625 -8.203125 L 8.078125 -7.296875 L 7.90625 -7.3125 C 7.695312 -7.769531 7.398438 -8.101562 7.015625 -8.3125 C 6.640625 -8.519531 6.171875 -8.625 5.609375 -8.625 C 4.722656 -8.625 4.046875 -8.34375 3.578125 -7.78125 C 3.117188 -7.226562 2.890625 -6.335938 2.890625 -5.109375 C 2.890625 -3.867188 3.101562 -2.96875 3.53125 -2.40625 C 3.96875 -1.851562 4.613281 -1.578125 5.46875 -1.578125 C 6.207031 -1.578125 6.75 -1.742188 7.09375 -2.078125 C 7.445312 -2.410156 7.625 -2.90625 7.625 -3.5625 L 7.625 -4 L 5.203125 -4 L 5.203125 -5.640625 L 9.625 -5.640625 L 9.625 0 L 7.703125 0 L 7.703125 -1.375 L 7.546875 -1.390625 C 7.335938 -0.898438 7.019531 -0.519531 6.59375 -0.25 C 6.175781 0.0078125 5.632812 0.140625 4.96875 0.140625 Z M 4.96875 0.140625 "/></g></g></g><g fill="#56aeff" fill-opacity="1"><g transform="translate(171.644482, 37.559589)"><g><path d="M 7.921875 -6.375 L 7.921875 -10.21875 L 9.9375 -10.21875 L 9.9375 0 L 7.921875 0 L 7.921875 -4.65625 L 3.34375 -4.65625 L 3.34375 0 L 1.328125 0 L 1.328125 -10.21875 L 3.34375 -10.21875 L 3.34375 -6.375 Z M 7.921875 -6.375 "/></g></g></g><g fill="#56aeff" fill-opacity="1"><g transform="translate(186.272169, 37.559589)"><g><path d="M 8.1875 -10.21875 L 8.1875 -8.515625 L 5.234375 -8.515625 L 5.234375 0 L 3.234375 0 L 3.234375 -8.515625 L 0.28125 -8.515625 L 0.28125 -10.21875 Z M 8.1875 -10.21875 "/></g></g></g></svg>